G04*
G04 #@! TF.GenerationSoftware,Altium Limited,Altium Designer,19.1.5 (86)*
G04*
G04 Layer_Color=2752767*
%FSLAX25Y25*%
%MOIN*%
G70*
G01*
G75*
%ADD10C,0.00800*%
%ADD11C,0.00200*%
%ADD12C,0.00267*%
D10*
X155000Y-47500D02*
Y47500D01*
X152500Y-50000D02*
X155000Y-47500D01*
X2500Y-50000D02*
X152500D01*
Y50000D02*
X155000Y47500D01*
X2500Y50000D02*
X152500D01*
X0Y-47500D02*
Y47500D01*
X2500Y50000D01*
X0Y-47500D02*
X2500Y-50000D01*
D11*
X144200Y44200D02*
Y45800D01*
X145800D01*
Y44200D01*
X144200D01*
X134200D02*
Y45800D01*
X135800D01*
Y44200D01*
X134200D01*
X124200D02*
Y45800D01*
X125800D01*
Y44200D01*
X124200D01*
X114200D02*
Y45800D01*
X115800D01*
Y44200D01*
X114200D01*
X104200D02*
Y45800D01*
X105800D01*
Y44200D01*
X104200D01*
X94200D02*
Y45800D01*
X95800D01*
Y44200D01*
X94200D01*
X84200D02*
Y45800D01*
X85800D01*
Y44200D01*
X84200D01*
X74200D02*
Y45800D01*
X75800D01*
Y44200D01*
X74200D01*
X64200D02*
Y45800D01*
X65800D01*
Y44200D01*
X64200D01*
X54200D02*
Y45800D01*
X55800D01*
Y44200D01*
X54200D01*
X44200D02*
Y45800D01*
X45800D01*
Y44200D01*
X44200D01*
X34200D02*
Y45800D01*
X35800D01*
Y44200D01*
X34200D01*
X24200D02*
Y45800D01*
X25800D01*
Y44200D01*
X24200D01*
X14200D02*
Y45800D01*
X15800D01*
Y44200D01*
X14200D01*
X4200D02*
Y45800D01*
X5800D01*
Y44200D01*
X4200D01*
X144200Y-45800D02*
Y-44200D01*
X145800D01*
Y-45800D01*
X144200D01*
X134200D02*
Y-44200D01*
X135800D01*
Y-45800D01*
X134200D01*
X124200D02*
Y-44200D01*
X125800D01*
Y-45800D01*
X124200D01*
X114200D02*
Y-44200D01*
X115800D01*
Y-45800D01*
X114200D01*
X104200D02*
Y-44200D01*
X105800D01*
Y-45800D01*
X104200D01*
X94200D02*
Y-44200D01*
X95800D01*
Y-45800D01*
X94200D01*
X84200D02*
Y-44200D01*
X85800D01*
Y-45800D01*
X84200D01*
X74200D02*
Y-44200D01*
X75800D01*
Y-45800D01*
X74200D01*
X64200D02*
Y-44200D01*
X65800D01*
Y-45800D01*
X64200D01*
X54200D02*
Y-44200D01*
X55800D01*
Y-45800D01*
X54200D01*
X44200D02*
Y-44200D01*
X45800D01*
Y-45800D01*
X44200D01*
X34200D02*
Y-44200D01*
X35800D01*
Y-45800D01*
X34200D01*
X24200D02*
Y-44200D01*
X25800D01*
Y-45800D01*
X24200D01*
X14200D02*
Y-44200D01*
X15800D01*
Y-45800D01*
X14200D01*
X4200D02*
Y-44200D01*
X5800D01*
Y-45800D01*
X4200D01*
X26693Y16208D02*
X25893Y17808D01*
X27493D01*
X26693Y16208D01*
Y-17808D02*
X25893Y-16208D01*
X27493D01*
X26693Y-17808D01*
X24606Y-12178D02*
X25006Y-11778D01*
X25406D01*
X25006Y-11378D01*
X25406Y-10978D01*
X25006D01*
X24606Y-10578D01*
X24206Y-10978D01*
X23806D01*
X24206Y-11378D01*
X23806Y-11778D01*
X24206D01*
X24606Y-12178D01*
Y10578D02*
X25006Y10978D01*
X25406D01*
X25006Y11378D01*
X25406Y11778D01*
X25006D01*
X24606Y12178D01*
X24206Y11778D01*
X23806D01*
X24206Y11378D01*
X23806Y10978D01*
X24206D01*
X24606Y10578D01*
X11200Y28200D02*
X11600Y29000D01*
X11200Y29800D01*
X12000Y29400D01*
X12800Y29800D01*
X12400Y29000D01*
X12800Y28200D01*
X12000Y28600D01*
X11200Y28200D01*
Y-29800D02*
X11600Y-29000D01*
X11200Y-28200D01*
X12000Y-28600D01*
X12800Y-28200D01*
X12400Y-29000D01*
X12800Y-29800D01*
X12000Y-29400D01*
X11200Y-29800D01*
X1700Y14200D02*
X2100Y15000D01*
X1700Y15800D01*
X2500Y15400D01*
X3300Y15800D01*
X2900Y15000D01*
X3300Y14200D01*
X2500Y14600D01*
X1700Y14200D01*
Y6700D02*
X2100Y7500D01*
X1700Y8300D01*
X2500Y7900D01*
X3300Y8300D01*
X2900Y7500D01*
X3300Y6700D01*
X2500Y7100D01*
X1700Y6700D01*
Y-800D02*
X2100Y0D01*
X1700Y800D01*
X2500Y400D01*
X3300Y800D01*
X2900Y0D01*
X3300Y-800D01*
X2500Y-400D01*
X1700Y-800D01*
Y-8300D02*
X2100Y-7500D01*
X1700Y-6700D01*
X2500Y-7100D01*
X3300Y-6700D01*
X2900Y-7500D01*
X3300Y-8300D01*
X2500Y-7900D01*
X1700Y-8300D01*
Y-15800D02*
X2100Y-15000D01*
X1700Y-14200D01*
X2500Y-14600D01*
X3300Y-14200D01*
X2900Y-15000D01*
X3300Y-15800D01*
X2500Y-15400D01*
X1700Y-15800D01*
X116200Y18200D02*
X116600Y19000D01*
X116200Y19800D01*
X117000Y19400D01*
X117800Y19800D01*
X117400Y19000D01*
X117800Y18200D01*
X117000Y18600D01*
X116200Y18200D01*
X147200Y18098D02*
X147600Y18898D01*
X147200Y19698D01*
X148000Y19298D01*
X148800Y19698D01*
X148400Y18898D01*
X148800Y18098D01*
X148000Y18498D01*
X147200Y18098D01*
Y14948D02*
X147600Y15748D01*
X147200Y16548D01*
X148000Y16148D01*
X148800Y16548D01*
X148400Y15748D01*
X148800Y14948D01*
X148000Y15348D01*
X147200Y14948D01*
Y11798D02*
X147600Y12598D01*
X147200Y13398D01*
X148000Y12998D01*
X148800Y13398D01*
X148400Y12598D01*
X148800Y11798D01*
X148000Y12198D01*
X147200Y11798D01*
Y8649D02*
X147600Y9449D01*
X147200Y10249D01*
X148000Y9849D01*
X148800Y10249D01*
X148400Y9449D01*
X148800Y8649D01*
X148000Y9049D01*
X147200Y8649D01*
Y5499D02*
X147600Y6299D01*
X147200Y7099D01*
X148000Y6699D01*
X148800Y7099D01*
X148400Y6299D01*
X148800Y5499D01*
X148000Y5899D01*
X147200Y5499D01*
Y2350D02*
X147600Y3150D01*
X147200Y3950D01*
X148000Y3550D01*
X148800Y3950D01*
X148400Y3150D01*
X148800Y2350D01*
X148000Y2750D01*
X147200Y2350D01*
Y-19698D02*
X147600Y-18898D01*
X147200Y-18098D01*
X148000Y-18498D01*
X148800Y-18098D01*
X148400Y-18898D01*
X148800Y-19698D01*
X148000Y-19298D01*
X147200Y-19698D01*
Y-16548D02*
X147600Y-15748D01*
X147200Y-14948D01*
X148000Y-15348D01*
X148800Y-14948D01*
X148400Y-15748D01*
X148800Y-16548D01*
X148000Y-16148D01*
X147200Y-16548D01*
Y-13398D02*
X147600Y-12598D01*
X147200Y-11798D01*
X148000Y-12198D01*
X148800Y-11798D01*
X148400Y-12598D01*
X148800Y-13398D01*
X148000Y-12998D01*
X147200Y-13398D01*
Y-10249D02*
X147600Y-9449D01*
X147200Y-8649D01*
X148000Y-9049D01*
X148800Y-8649D01*
X148400Y-9449D01*
X148800Y-10249D01*
X148000Y-9849D01*
X147200Y-10249D01*
Y-7099D02*
X147600Y-6299D01*
X147200Y-5499D01*
X148000Y-5899D01*
X148800Y-5499D01*
X148400Y-6299D01*
X148800Y-7099D01*
X148000Y-6699D01*
X147200Y-7099D01*
Y-3950D02*
X147600Y-3150D01*
X147200Y-2350D01*
X148000Y-2750D01*
X148800Y-2350D01*
X148400Y-3150D01*
X148800Y-3950D01*
X148000Y-3550D01*
X147200Y-3950D01*
Y-800D02*
X147600Y0D01*
X147200Y800D01*
X148000Y400D01*
X148800Y800D01*
X148400Y0D01*
X148800Y-800D01*
X148000Y-400D01*
X147200Y-800D01*
X128147Y-800D02*
X128547Y0D01*
X128147Y800D01*
X128947Y400D01*
X129747Y800D01*
X129347Y0D01*
X129747Y-800D01*
X128947Y-400D01*
X128147Y-800D01*
X132035Y-4688D02*
X132435Y-3888D01*
X132035Y-3088D01*
X132835Y-3488D01*
X133635Y-3088D01*
X133235Y-3888D01*
X133635Y-4688D01*
X132835Y-4288D01*
X132035Y-4688D01*
Y3088D02*
X132435Y3888D01*
X132035Y4688D01*
X132835Y4288D01*
X133635Y4688D01*
X133235Y3888D01*
X133635Y3088D01*
X132835Y3488D01*
X132035Y3088D01*
X135922Y-800D02*
X136322Y-0D01*
X135922Y800D01*
X136722Y400D01*
X137522Y800D01*
X137122Y-0D01*
X137522Y-800D01*
X136722Y-400D01*
X135922Y-800D01*
X151700Y-36800D02*
X152100Y-36000D01*
X151700Y-35200D01*
X152500Y-35600D01*
X153300Y-35200D01*
X152900Y-36000D01*
X153300Y-36800D01*
X152500Y-36400D01*
X151700Y-36800D01*
X40700Y-38800D02*
X41100Y-38000D01*
X40700Y-37200D01*
X41500Y-37600D01*
X42300Y-37200D01*
X41900Y-38000D01*
X42300Y-38800D01*
X41500Y-38400D01*
X40700Y-38800D01*
X100200Y37200D02*
X100600Y38000D01*
X100200Y38800D01*
X101000Y38400D01*
X101800Y38800D01*
X101400Y38000D01*
X101800Y37200D01*
X101000Y37600D01*
X100200Y37200D01*
X86200Y35700D02*
X86600Y36500D01*
X86200Y37300D01*
X87000Y36900D01*
X87800Y37300D01*
X87400Y36500D01*
X87800Y35700D01*
X87000Y36100D01*
X86200Y35700D01*
X28200Y-38800D02*
X28600Y-38000D01*
X28200Y-37200D01*
X29000Y-37600D01*
X29800Y-37200D01*
X29400Y-38000D01*
X29800Y-38800D01*
X29000Y-38400D01*
X28200Y-38800D01*
X54700Y-1800D02*
X55100Y-1000D01*
X54700Y-200D01*
X55500Y-600D01*
X56300Y-200D01*
X55900Y-1000D01*
X56300Y-1800D01*
X55500Y-1400D01*
X54700Y-1800D01*
X30700Y-31800D02*
X31100Y-31000D01*
X30700Y-30200D01*
X31500Y-30600D01*
X32300Y-30200D01*
X31900Y-31000D01*
X32300Y-31800D01*
X31500Y-31400D01*
X30700Y-31800D01*
X1700Y-29800D02*
X2100Y-29000D01*
X1700Y-28200D01*
X2500Y-28600D01*
X3300Y-28200D01*
X2900Y-29000D01*
X3300Y-29800D01*
X2500Y-29400D01*
X1700Y-29800D01*
Y28200D02*
X2100Y29000D01*
X1700Y29800D01*
X2500Y29400D01*
X3300Y29800D01*
X2900Y29000D01*
X3300Y28200D01*
X2500Y28600D01*
X1700Y28200D01*
X49200Y-37300D02*
X49600Y-36500D01*
X49200Y-35700D01*
X50000Y-36100D01*
X50800Y-35700D01*
X50400Y-36500D01*
X50800Y-37300D01*
X50000Y-36900D01*
X49200Y-37300D01*
X151700Y36200D02*
X152100Y37000D01*
X151700Y37800D01*
X152500Y37400D01*
X153300Y37800D01*
X152900Y37000D01*
X153300Y36200D01*
X152500Y36600D01*
X151700Y36200D01*
X145200Y26200D02*
X145600Y27000D01*
X145200Y27800D01*
X146000Y27400D01*
X146800Y27800D01*
X146400Y27000D01*
X146800Y26200D01*
X146000Y26600D01*
X145200Y26200D01*
Y32700D02*
X145600Y33500D01*
X145200Y34300D01*
X146000Y33900D01*
X146800Y34300D01*
X146400Y33500D01*
X146800Y32700D01*
X146000Y33100D01*
X145200Y32700D01*
X151700Y26200D02*
X152100Y27000D01*
X151700Y27800D01*
X152500Y27400D01*
X153300Y27800D01*
X152900Y27000D01*
X153300Y26200D01*
X152500Y26600D01*
X151700Y26200D01*
X137700D02*
X138100Y27000D01*
X137700Y27800D01*
X138500Y27400D01*
X139300Y27800D01*
X138900Y27000D01*
X139300Y26200D01*
X138500Y26600D01*
X137700Y26200D01*
X128700D02*
X129100Y27000D01*
X128700Y27800D01*
X129500Y27400D01*
X130300Y27800D01*
X129900Y27000D01*
X130300Y26200D01*
X129500Y26600D01*
X128700Y26200D01*
X132700Y30700D02*
X133100Y31500D01*
X132700Y32300D01*
X133500Y31900D01*
X134300Y32300D01*
X133900Y31500D01*
X134300Y30700D01*
X133500Y31100D01*
X132700Y30700D01*
X123200Y26200D02*
X123600Y27000D01*
X123200Y27800D01*
X124000Y27400D01*
X124800Y27800D01*
X124400Y27000D01*
X124800Y26200D01*
X124000Y26600D01*
X123200Y26200D01*
X112700D02*
X113100Y27000D01*
X112700Y27800D01*
X113500Y27400D01*
X114300Y27800D01*
X113900Y27000D01*
X114300Y26200D01*
X113500Y26600D01*
X112700Y26200D01*
X95200Y6200D02*
X95600Y7000D01*
X95200Y7800D01*
X96000Y7400D01*
X96800Y7800D01*
X96400Y7000D01*
X96800Y6200D01*
X96000Y6600D01*
X95200Y6200D01*
X105200D02*
X105600Y7000D01*
X105200Y7800D01*
X106000Y7400D01*
X106800Y7800D01*
X106400Y7000D01*
X106800Y6200D01*
X106000Y6600D01*
X105200Y6200D01*
X112200Y-34300D02*
X112600Y-33500D01*
X112200Y-32700D01*
X113000Y-33100D01*
X113800Y-32700D01*
X113400Y-33500D01*
X113800Y-34300D01*
X113000Y-33900D01*
X112200Y-34300D01*
Y-27800D02*
X112600Y-27000D01*
X112200Y-26200D01*
X113000Y-26600D01*
X113800Y-26200D01*
X113400Y-27000D01*
X113800Y-27800D01*
X113000Y-27400D01*
X112200Y-27800D01*
X151700D02*
X152100Y-27000D01*
X151700Y-26200D01*
X152500Y-26600D01*
X153300Y-26200D01*
X152900Y-27000D01*
X153300Y-27800D01*
X152500Y-27400D01*
X151700Y-27800D01*
X137700Y-36800D02*
X138100Y-36000D01*
X137700Y-35200D01*
X138500Y-35600D01*
X139300Y-35200D01*
X138900Y-36000D01*
X139300Y-36800D01*
X138500Y-36400D01*
X137700Y-36800D01*
Y-27800D02*
X138100Y-27000D01*
X137700Y-26200D01*
X138500Y-26600D01*
X139300Y-26200D01*
X138900Y-27000D01*
X139300Y-27800D01*
X138500Y-27400D01*
X137700Y-27800D01*
X129700Y-36800D02*
X130100Y-36000D01*
X129700Y-35200D01*
X130500Y-35600D01*
X131300Y-35200D01*
X130900Y-36000D01*
X131300Y-36800D01*
X130500Y-36400D01*
X129700Y-36800D01*
Y-27800D02*
X130100Y-27000D01*
X129700Y-26200D01*
X130500Y-26600D01*
X131300Y-26200D01*
X130900Y-27000D01*
X131300Y-27800D01*
X130500Y-27400D01*
X129700Y-27800D01*
X135923Y6976D02*
X136322Y7776D01*
X135923Y8576D01*
X136723Y8176D01*
X137522Y8576D01*
X137122Y7776D01*
X137522Y6976D01*
X136723Y7376D01*
X135923Y6976D01*
X139810Y3088D02*
X140210Y3888D01*
X139810Y4688D01*
X140610Y4288D01*
X141410Y4688D01*
X141010Y3888D01*
X141410Y3088D01*
X140610Y3488D01*
X139810Y3088D01*
X139810Y-4688D02*
X140210Y-3888D01*
X139810Y-3088D01*
X140610Y-3488D01*
X141410Y-3088D01*
X141010Y-3888D01*
X141410Y-4688D01*
X140610Y-4288D01*
X139810Y-4688D01*
X135922Y-8576D02*
X136322Y-7776D01*
X135922Y-6976D01*
X136722Y-7376D01*
X137522Y-6976D01*
X137122Y-7776D01*
X137522Y-8576D01*
X136722Y-8176D01*
X135922Y-8576D01*
X128147D02*
X128547Y-7776D01*
X128147Y-6976D01*
X128947Y-7376D01*
X129747Y-6976D01*
X129347Y-7776D01*
X129747Y-8576D01*
X128947Y-8176D01*
X128147Y-8576D01*
X124259Y-4688D02*
X124659Y-3888D01*
X124259Y-3088D01*
X125059Y-3488D01*
X125859Y-3088D01*
X125459Y-3888D01*
X125859Y-4688D01*
X125059Y-4288D01*
X124259Y-4688D01*
X124259Y3088D02*
X124659Y3888D01*
X124259Y4688D01*
X125059Y4288D01*
X125859Y4688D01*
X125459Y3888D01*
X125859Y3088D01*
X125059Y3488D01*
X124259Y3088D01*
X128147Y6976D02*
X128547Y7776D01*
X128147Y8576D01*
X128947Y8176D01*
X129747Y8576D01*
X129347Y7776D01*
X129747Y6976D01*
X128947Y7376D01*
X128147Y6976D01*
X135922Y-4688D02*
X136322Y-3888D01*
X135922Y-3088D01*
X136722Y-3488D01*
X137522Y-3088D01*
X137122Y-3888D01*
X137522Y-4688D01*
X136722Y-4288D01*
X135922Y-4688D01*
X128147D02*
X128547Y-3888D01*
X128147Y-3088D01*
X128947Y-3488D01*
X129747Y-3088D01*
X129347Y-3888D01*
X129747Y-4688D01*
X128947Y-4288D01*
X128147Y-4688D01*
X135923Y3088D02*
X136322Y3888D01*
X135923Y4688D01*
X136723Y4288D01*
X137522Y4688D01*
X137122Y3888D01*
X137522Y3088D01*
X136723Y3488D01*
X135923Y3088D01*
X128147D02*
X128547Y3888D01*
X128147Y4688D01*
X128947Y4288D01*
X129747Y4688D01*
X129347Y3888D01*
X129747Y3088D01*
X128947Y3488D01*
X128147Y3088D01*
X95200Y-1300D02*
X95600Y-500D01*
X95200Y300D01*
X96000Y-100D01*
X96800Y300D01*
X96400Y-500D01*
X96800Y-1300D01*
X96000Y-900D01*
X95200Y-1300D01*
X102700Y15700D02*
X103100Y16500D01*
X102700Y17300D01*
X103500Y16900D01*
X104300Y17300D01*
X103900Y16500D01*
X104300Y15700D01*
X103500Y16100D01*
X102700Y15700D01*
X105200Y-1300D02*
X105600Y-500D01*
X105200Y300D01*
X106000Y-100D01*
X106800Y300D01*
X106400Y-500D01*
X106800Y-1300D01*
X106000Y-900D01*
X105200Y-1300D01*
X94700Y13200D02*
X95100Y14000D01*
X94700Y14800D01*
X95500Y14400D01*
X96300Y14800D01*
X95900Y14000D01*
X96300Y13200D01*
X95500Y13600D01*
X94700Y13200D01*
X75200Y17200D02*
X75600Y18000D01*
X75200Y18800D01*
X76000Y18400D01*
X76800Y18800D01*
X76400Y18000D01*
X76800Y17200D01*
X76000Y17600D01*
X75200Y17200D01*
X68200Y6700D02*
X68600Y7500D01*
X68200Y8300D01*
X69000Y7900D01*
X69800Y8300D01*
X69400Y7500D01*
X69800Y6700D01*
X69000Y7100D01*
X68200Y6700D01*
X74397Y-7493D02*
X74797Y-6693D01*
X74397Y-5893D01*
X75197Y-6293D01*
X75997Y-5893D01*
X75597Y-6693D01*
X75997Y-7493D01*
X75197Y-7093D01*
X74397Y-7493D01*
X34239Y-13398D02*
X34639Y-12598D01*
X34239Y-11798D01*
X35039Y-12198D01*
X35839Y-11798D01*
X35439Y-12598D01*
X35839Y-13398D01*
X35039Y-12998D01*
X34239Y-13398D01*
X18098Y-800D02*
X18498Y0D01*
X18098Y800D01*
X18898Y400D01*
X19698Y800D01*
X19298Y0D01*
X19698Y-800D01*
X18898Y-400D01*
X18098Y-800D01*
X14161Y-14580D02*
X14561Y-13780D01*
X14161Y-12979D01*
X14961Y-13379D01*
X15761Y-12979D01*
X15361Y-13780D01*
X15761Y-14580D01*
X14961Y-14179D01*
X14161Y-14580D01*
X117700Y5700D02*
X118100Y6500D01*
X117700Y7300D01*
X118500Y6900D01*
X119300Y7300D01*
X118900Y6500D01*
X119300Y5700D01*
X118500Y6100D01*
X117700Y5700D01*
X30700Y-21300D02*
X31100Y-20500D01*
X30700Y-19700D01*
X31500Y-20100D01*
X32300Y-19700D01*
X31900Y-20500D01*
X32300Y-21300D01*
X31500Y-20900D01*
X30700Y-21300D01*
X49200Y11405D02*
X49600Y12205D01*
X49200Y13005D01*
X50000Y12605D01*
X50800Y13005D01*
X50400Y12205D01*
X50800Y11405D01*
X50000Y11805D01*
X49200Y11405D01*
X48019Y6287D02*
X48419Y7087D01*
X48019Y7887D01*
X48819Y7487D01*
X49619Y7887D01*
X49219Y7087D01*
X49619Y6287D01*
X48819Y6687D01*
X48019Y6287D01*
X106200Y-36800D02*
X106600Y-36000D01*
X106200Y-35200D01*
X107000Y-35600D01*
X107800Y-35200D01*
X107400Y-36000D01*
X107800Y-36800D01*
X107000Y-36400D01*
X106200Y-36800D01*
X102200Y-32800D02*
X102600Y-32000D01*
X102200Y-31200D01*
X103000Y-31600D01*
X103800Y-31200D01*
X103400Y-32000D01*
X103800Y-32800D01*
X103000Y-32400D01*
X102200Y-32800D01*
X100200Y-30800D02*
X100600Y-30000D01*
X100200Y-29200D01*
X101000Y-29600D01*
X101800Y-29200D01*
X101400Y-30000D01*
X101800Y-30800D01*
X101000Y-30400D01*
X100200Y-30800D01*
X104200Y-34800D02*
X104600Y-34000D01*
X104200Y-33200D01*
X105000Y-33600D01*
X105800Y-33200D01*
X105400Y-34000D01*
X105800Y-34800D01*
X105000Y-34400D01*
X104200Y-34800D01*
X97700Y20200D02*
X98100Y21000D01*
X97700Y21800D01*
X98500Y21400D01*
X99300Y21800D01*
X98900Y21000D01*
X99300Y20200D01*
X98500Y20600D01*
X97700Y20200D01*
X117700Y36200D02*
X118100Y37000D01*
X117700Y37800D01*
X118500Y37400D01*
X119300Y37800D01*
X118900Y37000D01*
X119300Y36200D01*
X118500Y36600D01*
X117700Y36200D01*
X109700Y28200D02*
X110100Y29000D01*
X109700Y29800D01*
X110500Y29400D01*
X111300Y29800D01*
X110900Y29000D01*
X111300Y28200D01*
X110500Y28600D01*
X109700Y28200D01*
X105700D02*
X106100Y29000D01*
X105700Y29800D01*
X106500Y29400D01*
X107300Y29800D01*
X106900Y29000D01*
X107300Y28200D01*
X106500Y28600D01*
X105700Y28200D01*
X107700Y30200D02*
X108100Y31000D01*
X107700Y31800D01*
X108500Y31400D01*
X109300Y31800D01*
X108900Y31000D01*
X109300Y30200D01*
X108500Y30600D01*
X107700Y30200D01*
X108700Y10200D02*
X109100Y11000D01*
X108700Y11800D01*
X109500Y11400D01*
X110300Y11800D01*
X109900Y11000D01*
X110300Y10200D01*
X109500Y10600D01*
X108700Y10200D01*
X141483Y15428D02*
X141884Y16228D01*
X141483Y17028D01*
X142283Y16628D01*
X143084Y17028D01*
X142683Y16228D01*
X143084Y15428D01*
X142283Y15828D01*
X141483Y15428D01*
Y18428D02*
X141884Y19228D01*
X141483Y20028D01*
X142283Y19628D01*
X143084Y20028D01*
X142683Y19228D01*
X143084Y18428D01*
X142283Y18828D01*
X141483Y18428D01*
X103200Y23200D02*
X103600Y24000D01*
X103200Y24800D01*
X104000Y24400D01*
X104800Y24800D01*
X104400Y24000D01*
X104800Y23200D01*
X104000Y23600D01*
X103200Y23200D01*
X96450Y-24050D02*
X96850Y-23250D01*
X96450Y-22450D01*
X97250Y-22850D01*
X98050Y-22450D01*
X97650Y-23250D01*
X98050Y-24050D01*
X97250Y-23650D01*
X96450Y-24050D01*
X79700Y-30800D02*
X80100Y-30000D01*
X79700Y-29200D01*
X80500Y-29600D01*
X81300Y-29200D01*
X80900Y-30000D01*
X81300Y-30800D01*
X80500Y-30400D01*
X79700Y-30800D01*
X62700Y31700D02*
X63100Y32500D01*
X62700Y33300D01*
X63500Y32900D01*
X64300Y33300D01*
X63900Y32500D01*
X64300Y31700D01*
X63500Y32100D01*
X62700Y31700D01*
X41200Y11200D02*
X41600Y12000D01*
X41200Y12800D01*
X42000Y12400D01*
X42800Y12800D01*
X42400Y12000D01*
X42800Y11200D01*
X42000Y11600D01*
X41200Y11200D01*
X82200Y20700D02*
X82600Y21500D01*
X82200Y22300D01*
X83000Y21900D01*
X83800Y22300D01*
X83400Y21500D01*
X83800Y20700D01*
X83000Y21100D01*
X82200Y20700D01*
X79200D02*
X79600Y21500D01*
X79200Y22300D01*
X80000Y21900D01*
X80800Y22300D01*
X80400Y21500D01*
X80800Y20700D01*
X80000Y21100D01*
X79200Y20700D01*
X88700Y20200D02*
X89100Y21000D01*
X88700Y21800D01*
X89500Y21400D01*
X90300Y21800D01*
X89900Y21000D01*
X90300Y20200D01*
X89500Y20600D01*
X88700Y20200D01*
X42200Y32700D02*
X42600Y33500D01*
X42200Y34300D01*
X43000Y33900D01*
X43800Y34300D01*
X43400Y33500D01*
X43800Y32700D01*
X43000Y33100D01*
X42200Y32700D01*
X39200D02*
X39600Y33500D01*
X39200Y34300D01*
X40000Y33900D01*
X40800Y34300D01*
X40400Y33500D01*
X40800Y32700D01*
X40000Y33100D01*
X39200Y32700D01*
X49200Y18098D02*
X49600Y18898D01*
X49200Y19698D01*
X50000Y19298D01*
X50800Y19698D01*
X50400Y18898D01*
X50800Y18098D01*
X50000Y18498D01*
X49200Y18098D01*
X29200Y21200D02*
X29600Y22000D01*
X29200Y22800D01*
X30000Y22400D01*
X30800Y22800D01*
X30400Y22000D01*
X30800Y21200D01*
X30000Y21600D01*
X29200Y21200D01*
X32665Y18098D02*
X33065Y18898D01*
X32665Y19698D01*
X33465Y19298D01*
X34265Y19698D01*
X33865Y18898D01*
X34265Y18098D01*
X33465Y18498D01*
X32665Y18098D01*
X36602Y-11430D02*
X37002Y-10630D01*
X36602Y-9830D01*
X37402Y-10230D01*
X38202Y-9830D01*
X37802Y-10630D01*
X38202Y-11430D01*
X37402Y-11030D01*
X36602Y-11430D01*
X15200Y23200D02*
X15600Y24000D01*
X15200Y24800D01*
X16000Y24400D01*
X16800Y24800D01*
X16400Y24000D01*
X16800Y23200D01*
X16000Y23600D01*
X15200Y23200D01*
X24700Y-7300D02*
X25100Y-6500D01*
X24700Y-5700D01*
X25500Y-6100D01*
X26300Y-5700D01*
X25900Y-6500D01*
X26300Y-7300D01*
X25500Y-6900D01*
X24700Y-7300D01*
Y5700D02*
X25100Y6500D01*
X24700Y7300D01*
X25500Y6900D01*
X26300Y7300D01*
X25900Y6500D01*
X26300Y5700D01*
X25500Y6100D01*
X24700Y5700D01*
X50200Y-32300D02*
X50600Y-31500D01*
X50200Y-30700D01*
X51000Y-31100D01*
X51800Y-30700D01*
X51400Y-31500D01*
X51800Y-32300D01*
X51000Y-31900D01*
X50200Y-32300D01*
X68200Y11700D02*
X68600Y12500D01*
X68200Y13300D01*
X69000Y12900D01*
X69800Y13300D01*
X69400Y12500D01*
X69800Y11700D01*
X69000Y12100D01*
X68200Y11700D01*
X58200D02*
X58600Y12500D01*
X58200Y13300D01*
X59000Y12900D01*
X59800Y13300D01*
X59400Y12500D01*
X59800Y11700D01*
X59000Y12100D01*
X58200Y11700D01*
X63200D02*
X63600Y12500D01*
X63200Y13300D01*
X64000Y12900D01*
X64800Y13300D01*
X64400Y12500D01*
X64800Y11700D01*
X64000Y12100D01*
X63200Y11700D01*
Y1700D02*
X63600Y2500D01*
X63200Y3300D01*
X64000Y2900D01*
X64800Y3300D01*
X64400Y2500D01*
X64800Y1700D01*
X64000Y2100D01*
X63200Y1700D01*
X58200D02*
X58600Y2500D01*
X58200Y3300D01*
X59000Y2900D01*
X59800Y3300D01*
X59400Y2500D01*
X59800Y1700D01*
X59000Y2100D01*
X58200Y1700D01*
X77516Y4192D02*
X77916Y4992D01*
X77516Y5792D01*
X78316Y5392D01*
X79116Y5792D01*
X78716Y4992D01*
X79116Y4192D01*
X78316Y4592D01*
X77516Y4192D01*
X80284D02*
X80684Y4992D01*
X80284Y5792D01*
X81084Y5392D01*
X81884Y5792D01*
X81484Y4992D01*
X81884Y4192D01*
X81084Y4592D01*
X80284Y4192D01*
X48107Y584D02*
X48507Y1384D01*
X48107Y2184D01*
X48907Y1784D01*
X49707Y2184D01*
X49307Y1384D01*
X49707Y584D01*
X48907Y984D01*
X48107Y584D01*
Y-2184D02*
X48507Y-1384D01*
X48107Y-584D01*
X48907Y-984D01*
X49707Y-584D01*
X49307Y-1384D01*
X49707Y-2184D01*
X48907Y-1784D01*
X48107Y-2184D01*
X49700Y-24916D02*
X50100Y-24116D01*
X49700Y-23316D01*
X50500Y-23716D01*
X51300Y-23316D01*
X50900Y-24116D01*
X51300Y-24916D01*
X50500Y-24516D01*
X49700Y-24916D01*
Y-27684D02*
X50100Y-26884D01*
X49700Y-26084D01*
X50500Y-26484D01*
X51300Y-26084D01*
X50900Y-26884D01*
X51300Y-27684D01*
X50500Y-27284D01*
X49700Y-27684D01*
X122395Y-19800D02*
X122795Y-19000D01*
X122395Y-18200D01*
X123195Y-18600D01*
X123995Y-18200D01*
X123595Y-19000D01*
X123995Y-19800D01*
X123195Y-19400D01*
X122395Y-19800D01*
X119627D02*
X120027Y-19000D01*
X119627Y-18200D01*
X120427Y-18600D01*
X121227Y-18200D01*
X120827Y-19000D01*
X121227Y-19800D01*
X120427Y-19400D01*
X119627Y-19800D01*
X51200Y-8800D02*
X51600Y-8000D01*
X51200Y-7200D01*
X52000Y-7600D01*
X52800Y-7200D01*
X52400Y-8000D01*
X52800Y-8800D01*
X52000Y-8400D01*
X51200Y-8800D01*
X70200Y-26300D02*
X70600Y-25500D01*
X70200Y-24700D01*
X71000Y-25100D01*
X71800Y-24700D01*
X71400Y-25500D01*
X71800Y-26300D01*
X71000Y-25900D01*
X70200Y-26300D01*
X54700Y-32300D02*
X55100Y-31500D01*
X54700Y-30700D01*
X55500Y-31100D01*
X56300Y-30700D01*
X55900Y-31500D01*
X56300Y-32300D01*
X55500Y-31900D01*
X54700Y-32300D01*
X62700Y-19800D02*
X63100Y-19000D01*
X62700Y-18200D01*
X63500Y-18600D01*
X64300Y-18200D01*
X63900Y-19000D01*
X64300Y-19800D01*
X63500Y-19400D01*
X62700Y-19800D01*
X80700Y-4800D02*
X81100Y-4000D01*
X80700Y-3200D01*
X81500Y-3600D01*
X82300Y-3200D01*
X81900Y-4000D01*
X82300Y-4800D01*
X81500Y-4400D01*
X80700Y-4800D01*
X103200Y20200D02*
X103600Y21000D01*
X103200Y21800D01*
X104000Y21400D01*
X104800Y21800D01*
X104400Y21000D01*
X104800Y20200D01*
X104000Y20600D01*
X103200Y20200D01*
X132200Y-17777D02*
X132600Y-16977D01*
X132200Y-16177D01*
X133000Y-16577D01*
X133800Y-16177D01*
X133400Y-16977D01*
X133800Y-17777D01*
X133000Y-17377D01*
X132200Y-17777D01*
X135200Y-19800D02*
X135600Y-19000D01*
X135200Y-18200D01*
X136000Y-18600D01*
X136800Y-18200D01*
X136400Y-19000D01*
X136800Y-19800D01*
X136000Y-19400D01*
X135200Y-19800D01*
X116287Y26200D02*
X116687Y27000D01*
X116287Y27800D01*
X117087Y27400D01*
X117887Y27800D01*
X117487Y27000D01*
X117887Y26200D01*
X117087Y26600D01*
X116287Y26200D01*
X22200Y4200D02*
X22600Y5000D01*
X22200Y5800D01*
X23000Y5400D01*
X23800Y5800D01*
X23400Y5000D01*
X23800Y4200D01*
X23000Y4600D01*
X22200Y4200D01*
Y7200D02*
X22600Y8000D01*
X22200Y8800D01*
X23000Y8400D01*
X23800Y8800D01*
X23400Y8000D01*
X23800Y7200D01*
X23000Y7600D01*
X22200Y7200D01*
Y-5800D02*
X22600Y-5000D01*
X22200Y-4200D01*
X23000Y-4600D01*
X23800Y-4200D01*
X23400Y-5000D01*
X23800Y-5800D01*
X23000Y-5400D01*
X22200Y-5800D01*
Y-8800D02*
X22600Y-8000D01*
X22200Y-7200D01*
X23000Y-7600D01*
X23800Y-7200D01*
X23400Y-8000D01*
X23800Y-8800D01*
X23000Y-8400D01*
X22200Y-8800D01*
X78200Y-11800D02*
X78600Y-11000D01*
X78200Y-10200D01*
X79000Y-10600D01*
X79800Y-10200D01*
X79400Y-11000D01*
X79800Y-11800D01*
X79000Y-11400D01*
X78200Y-11800D01*
Y-16300D02*
X78600Y-15500D01*
X78200Y-14700D01*
X79000Y-15100D01*
X79800Y-14700D01*
X79400Y-15500D01*
X79800Y-16300D01*
X79000Y-15900D01*
X78200Y-16300D01*
D12*
X11036Y-17008D02*
G03*
X11036Y-17008I-800J0D01*
G01*
Y17008D02*
G03*
X11036Y17008I-800J0D01*
G01*
M02*
