G04*
G04 #@! TF.GenerationSoftware,Altium Limited,Altium Designer,19.1.5 (86)*
G04*
G04 Layer_Color=32896*
%FSLAX25Y25*%
%MOIN*%
G70*
G01*
G75*
%ADD11C,0.00500*%
%ADD14C,0.00800*%
%ADD69C,0.00600*%
G36*
X137008Y-7087D02*
X31890D01*
Y5906D01*
X137008D01*
Y-7087D01*
D02*
G37*
%LPC*%
G36*
X129207Y1465D02*
X125927D01*
Y-144D01*
X129207D01*
Y1465D01*
D02*
G37*
G36*
X114592D02*
X111312D01*
Y-144D01*
X114592D01*
Y1465D01*
D02*
G37*
G36*
X72034Y1465D02*
X68754D01*
Y-144D01*
X72034D01*
Y1465D01*
D02*
G37*
G36*
X103455Y3779D02*
X103039D01*
X102936Y3769D01*
X102687D01*
X102551Y3759D01*
X102240Y3738D01*
X101898Y3707D01*
X101555Y3665D01*
X101223Y3603D01*
X101213D01*
X101181Y3593D01*
X101140Y3582D01*
X101078Y3572D01*
X101005Y3551D01*
X100922Y3520D01*
X100725Y3458D01*
X100496Y3385D01*
X100258Y3292D01*
X100008Y3177D01*
X99780Y3042D01*
X99770Y3032D01*
X99739Y3011D01*
X99687Y2980D01*
X99624Y2928D01*
X99541Y2876D01*
X99448Y2804D01*
X99344Y2710D01*
X99240Y2617D01*
X99126Y2513D01*
X99002Y2389D01*
X98752Y2129D01*
X98514Y1828D01*
X98306Y1486D01*
X98296Y1475D01*
X98285Y1444D01*
X98254Y1392D01*
X98223Y1319D01*
X98182Y1236D01*
X98140Y1122D01*
X98098Y1008D01*
X98047Y873D01*
X97995Y728D01*
X97953Y562D01*
X97912Y396D01*
X97870Y209D01*
X97808Y-175D01*
X97798Y-383D01*
X97787Y-591D01*
Y3779D01*
D01*
D01*
Y-4961D01*
D01*
Y-705D01*
X97798Y-777D01*
X97808Y-881D01*
X97818Y-995D01*
X97829Y-1130D01*
X97849Y-1276D01*
X97881Y-1431D01*
X97912Y-1597D01*
X98005Y-1940D01*
X98067Y-2116D01*
X98140Y-2303D01*
X98213Y-2480D01*
X98306Y-2656D01*
X98317Y-2667D01*
X98327Y-2698D01*
X98358Y-2750D01*
X98400Y-2812D01*
X98451Y-2895D01*
X98524Y-2988D01*
X98597Y-3092D01*
X98690Y-3206D01*
X98784Y-3331D01*
X98898Y-3455D01*
X99012Y-3580D01*
X99147Y-3715D01*
X99292Y-3839D01*
X99448Y-3974D01*
X99604Y-4099D01*
X99780Y-4213D01*
X99790D01*
X99811Y-4234D01*
X99842Y-4244D01*
X99884Y-4275D01*
X99946Y-4307D01*
X100008Y-4338D01*
X100092Y-4379D01*
X100185Y-4421D01*
X100392Y-4514D01*
X100642Y-4608D01*
X100922Y-4701D01*
X101223Y-4774D01*
X101233D01*
X101264Y-4784D01*
X101306Y-4794D01*
X101379Y-4805D01*
X101462Y-4815D01*
X101555Y-4836D01*
X101669Y-4846D01*
X101794Y-4867D01*
X101939Y-4888D01*
X102095Y-4898D01*
X102261Y-4919D01*
X102427Y-4929D01*
X102811Y-4950D01*
X103226Y-4961D01*
X103455D01*
Y-2968D01*
X103434D01*
X103392Y-2978D01*
X103247D01*
X103195Y-2988D01*
X102811D01*
X102707Y-2978D01*
X102593Y-2968D01*
X102469Y-2957D01*
X102334Y-2947D01*
X102043Y-2905D01*
X101742Y-2843D01*
X101441Y-2760D01*
X101306Y-2708D01*
X101171Y-2646D01*
X101161D01*
X101140Y-2625D01*
X101109Y-2615D01*
X101057Y-2583D01*
X100943Y-2500D01*
X100797Y-2386D01*
X100642Y-2241D01*
X100476Y-2065D01*
X100330Y-1857D01*
X100206Y-1608D01*
X103455D01*
Y344D01*
X100164D01*
Y354D01*
X100174Y375D01*
X100185Y416D01*
X100206Y458D01*
X100237Y520D01*
X100268Y593D01*
X100361Y748D01*
X100486Y925D01*
X100652Y1112D01*
X100745Y1195D01*
X100849Y1278D01*
X100974Y1361D01*
X101098Y1434D01*
X101109D01*
X101129Y1444D01*
X101171Y1465D01*
X101233Y1486D01*
X101306Y1517D01*
X101389Y1548D01*
X101493Y1579D01*
X101607Y1610D01*
X101742Y1641D01*
X101887Y1672D01*
X102043Y1703D01*
X102219Y1735D01*
X102406Y1755D01*
X102603Y1776D01*
X102811Y1787D01*
X103455D01*
Y3779D01*
D02*
G37*
G36*
X78491Y3779D02*
X78075D01*
X77972Y3769D01*
X77723D01*
X77588Y3759D01*
X77276Y3738D01*
X76934Y3707D01*
X76591Y3665D01*
X76259Y3603D01*
X76249D01*
X76218Y3593D01*
X76176Y3582D01*
X76114Y3572D01*
X76041Y3551D01*
X75958Y3520D01*
X75761Y3458D01*
X75532Y3385D01*
X75294Y3292D01*
X75045Y3177D01*
X74816Y3042D01*
X74806Y3032D01*
X74775Y3011D01*
X74723Y2980D01*
X74660Y2928D01*
X74577Y2876D01*
X74484Y2804D01*
X74380Y2710D01*
X74276Y2617D01*
X74162Y2513D01*
X74038Y2389D01*
X73788Y2129D01*
X73550Y1828D01*
X73342Y1485D01*
X73332Y1475D01*
X73321Y1444D01*
X73290Y1392D01*
X73259Y1319D01*
X73218Y1236D01*
X73176Y1122D01*
X73135Y1008D01*
X73083Y873D01*
X73031Y728D01*
X72989Y562D01*
X72948Y396D01*
X72906Y209D01*
X72844Y-175D01*
X72834Y-383D01*
X72823Y-591D01*
Y3779D01*
D01*
Y-4961D01*
X77961D01*
X72823D01*
Y-705D01*
X72834Y-777D01*
X72844Y-881D01*
X72854Y-995D01*
X72865Y-1130D01*
X72886Y-1276D01*
X72917Y-1431D01*
X72948Y-1597D01*
X73041Y-1940D01*
X73103Y-2116D01*
X73176Y-2303D01*
X73249Y-2480D01*
X73342Y-2656D01*
X73353Y-2667D01*
X73363Y-2698D01*
X73394Y-2750D01*
X73436Y-2812D01*
X73488Y-2895D01*
X73560Y-2988D01*
X73633Y-3092D01*
X73726Y-3206D01*
X73820Y-3331D01*
X73934Y-3455D01*
X74048Y-3580D01*
X74183Y-3715D01*
X74328Y-3839D01*
X74484Y-3974D01*
X74640Y-4099D01*
X74816Y-4213D01*
X74827D01*
X74847Y-4234D01*
X74878Y-4244D01*
X74920Y-4276D01*
X74982Y-4307D01*
X75045Y-4338D01*
X75128Y-4379D01*
X75221Y-4421D01*
X75429Y-4514D01*
X75678Y-4608D01*
X75958Y-4701D01*
X76259Y-4774D01*
X76269D01*
X76301Y-4784D01*
X76342Y-4794D01*
X76415Y-4805D01*
X76498Y-4815D01*
X76591Y-4836D01*
X76705Y-4846D01*
X76830Y-4867D01*
X76975Y-4888D01*
X77131Y-4898D01*
X77297Y-4919D01*
X77463Y-4929D01*
X77847Y-4950D01*
X78262Y-4961D01*
X78491D01*
Y-2905D01*
X78470D01*
X78428Y-2916D01*
X78273D01*
X78221Y-2926D01*
X77858D01*
X77754Y-2916D01*
X77640Y-2905D01*
X77505Y-2895D01*
X77349Y-2874D01*
X77183Y-2853D01*
X76840Y-2781D01*
X76653Y-2729D01*
X76477Y-2667D01*
X76301Y-2594D01*
X76124Y-2521D01*
X75958Y-2417D01*
X75813Y-2314D01*
X75802Y-2303D01*
X75782Y-2283D01*
X75740Y-2251D01*
X75699Y-2199D01*
X75636Y-2137D01*
X75574Y-2065D01*
X75501Y-1971D01*
X75439Y-1878D01*
X75366Y-1753D01*
X75294Y-1629D01*
X75231Y-1483D01*
X75169Y-1338D01*
X75128Y-1161D01*
X75086Y-985D01*
X75065Y-798D01*
X75055Y-591D01*
Y-580D01*
Y-539D01*
X75065Y-487D01*
Y-404D01*
X75076Y-310D01*
X75096Y-196D01*
X75117Y-82D01*
X75148Y53D01*
X75190Y188D01*
X75242Y333D01*
X75304Y479D01*
X75377Y613D01*
X75460Y759D01*
X75564Y894D01*
X75678Y1029D01*
X75813Y1143D01*
X75823Y1153D01*
X75844Y1164D01*
X75896Y1195D01*
X75958Y1236D01*
X76031Y1278D01*
X76124Y1330D01*
X76238Y1392D01*
X76373Y1444D01*
X76518Y1496D01*
X76674Y1558D01*
X76861Y1610D01*
X77048Y1651D01*
X77266Y1693D01*
X77494Y1714D01*
X77733Y1735D01*
X77992Y1745D01*
X78491D01*
Y3779D01*
D02*
G37*
G36*
X39804D02*
X39389D01*
X39285Y3769D01*
X39036D01*
X38901Y3759D01*
X38590Y3738D01*
X38247Y3707D01*
X37905Y3665D01*
X37573Y3603D01*
X37562D01*
X37531Y3593D01*
X37490Y3582D01*
X37427Y3572D01*
X37355Y3551D01*
X37272Y3520D01*
X37075Y3458D01*
X36846Y3385D01*
X36607Y3292D01*
X36358Y3177D01*
X36130Y3042D01*
X36119Y3032D01*
X36088Y3011D01*
X36037Y2980D01*
X35974Y2928D01*
X35891Y2876D01*
X35798Y2804D01*
X35694Y2710D01*
X35590Y2617D01*
X35476Y2513D01*
X35351Y2389D01*
X35102Y2129D01*
X34863Y1828D01*
X34656Y1485D01*
X34646Y1475D01*
X34635Y1444D01*
X34604Y1392D01*
X34573Y1319D01*
X34531Y1236D01*
X34490Y1122D01*
X34448Y1008D01*
X34396Y873D01*
X34345Y728D01*
X34303Y562D01*
X34262Y396D01*
X34220Y209D01*
X34158Y-175D01*
X34147Y-383D01*
X34137Y-591D01*
Y3779D01*
D01*
D01*
Y-4961D01*
D01*
Y-705D01*
X34147Y-777D01*
X34158Y-881D01*
X34168Y-995D01*
X34179Y-1130D01*
X34199Y-1276D01*
X34230Y-1431D01*
X34262Y-1597D01*
X34355Y-1940D01*
X34417Y-2116D01*
X34490Y-2303D01*
X34563Y-2480D01*
X34656Y-2656D01*
X34666Y-2667D01*
X34677Y-2698D01*
X34708Y-2750D01*
X34749Y-2812D01*
X34801Y-2895D01*
X34874Y-2988D01*
X34947Y-3092D01*
X35040Y-3206D01*
X35133Y-3331D01*
X35248Y-3455D01*
X35362Y-3580D01*
X35497Y-3715D01*
X35642Y-3839D01*
X35798Y-3974D01*
X35953Y-4099D01*
X36130Y-4213D01*
X36140D01*
X36161Y-4234D01*
X36192Y-4244D01*
X36234Y-4276D01*
X36296Y-4307D01*
X36358Y-4338D01*
X36441Y-4379D01*
X36535Y-4421D01*
X36742Y-4514D01*
X36991Y-4608D01*
X37272Y-4701D01*
X37573Y-4774D01*
X37583D01*
X37614Y-4784D01*
X37656Y-4794D01*
X37728Y-4805D01*
X37811Y-4815D01*
X37905Y-4836D01*
X38019Y-4846D01*
X38144Y-4867D01*
X38289Y-4888D01*
X38445Y-4898D01*
X38611Y-4919D01*
X38777Y-4929D01*
X39161Y-4950D01*
X39576Y-4961D01*
X39804D01*
Y-2968D01*
X39784D01*
X39742Y-2978D01*
X39597D01*
X39545Y-2988D01*
X39161D01*
X39057Y-2978D01*
X38943Y-2968D01*
X38818Y-2957D01*
X38683Y-2947D01*
X38393Y-2905D01*
X38092Y-2843D01*
X37791Y-2760D01*
X37656Y-2708D01*
X37521Y-2646D01*
X37510D01*
X37490Y-2625D01*
X37459Y-2615D01*
X37407Y-2583D01*
X37293Y-2500D01*
X37147Y-2386D01*
X36991Y-2241D01*
X36825Y-2065D01*
X36680Y-1857D01*
X36555Y-1608D01*
X39804D01*
Y344D01*
X36514D01*
Y354D01*
X36524Y375D01*
X36535Y416D01*
X36555Y458D01*
X36587Y520D01*
X36618Y593D01*
X36711Y748D01*
X36836Y925D01*
X37002Y1112D01*
X37095Y1195D01*
X37199Y1278D01*
X37324Y1361D01*
X37448Y1433D01*
X37459D01*
X37479Y1444D01*
X37521Y1465D01*
X37583Y1485D01*
X37656Y1517D01*
X37739Y1548D01*
X37843Y1579D01*
X37957Y1610D01*
X38092Y1641D01*
X38237Y1672D01*
X38393Y1703D01*
X38569Y1735D01*
X38756Y1755D01*
X38953Y1776D01*
X39161Y1787D01*
X39804D01*
Y3779D01*
D02*
G37*
G36*
X134761Y3779D02*
X132695D01*
Y-2988D01*
X131356D01*
Y3779D01*
D01*
D01*
Y-4961D01*
X134761D01*
Y3779D01*
D02*
G37*
G36*
X67768Y3779D02*
X61820D01*
Y-5106D01*
D01*
Y2575D01*
X61831Y2503D01*
X61841Y2409D01*
X61862Y2306D01*
X61893Y2181D01*
X61935Y2056D01*
X61987Y1921D01*
X61997Y1901D01*
X62018Y1859D01*
X62059Y1787D01*
X62121Y1693D01*
X62194Y1579D01*
X62287Y1454D01*
X62402Y1319D01*
X62526Y1174D01*
X65173Y-1639D01*
X65184Y-1649D01*
X65204Y-1670D01*
X65235Y-1712D01*
X65277Y-1764D01*
X65360Y-1888D01*
X65443Y-2023D01*
Y-2033D01*
X65453Y-2054D01*
X65474Y-2096D01*
X65495Y-2148D01*
X65526Y-2272D01*
X65536Y-2407D01*
Y-2417D01*
Y-2459D01*
X65526Y-2521D01*
X65505Y-2604D01*
X65474Y-2687D01*
X65433Y-2781D01*
X65381Y-2874D01*
X65298Y-2957D01*
X65287Y-2968D01*
X65256Y-2988D01*
X65204Y-3030D01*
X65132Y-3071D01*
X65049Y-3113D01*
X64945Y-3154D01*
X64831Y-3175D01*
X64696Y-3185D01*
X64644D01*
X64582Y-3175D01*
X64499Y-3154D01*
X64415Y-3123D01*
X64322Y-3082D01*
X64229Y-3030D01*
X64135Y-2947D01*
X64125Y-2936D01*
X64104Y-2905D01*
X64062Y-2853D01*
X64021Y-2791D01*
X63979Y-2708D01*
X63938Y-2615D01*
X63917Y-2511D01*
X63907Y-2397D01*
Y-2386D01*
Y-2355D01*
X63917Y-2314D01*
Y-2251D01*
X63959Y-2106D01*
X63979Y-2033D01*
X64021Y-1950D01*
X64031Y-1940D01*
X64042Y-1919D01*
X64073Y-1878D01*
X64114Y-1826D01*
X64166Y-1764D01*
X64229Y-1701D01*
X64312Y-1629D01*
X64395Y-1556D01*
X63045Y-123D01*
X63035Y-134D01*
X63014Y-144D01*
X62983Y-165D01*
X62941Y-206D01*
X62838Y-300D01*
X62703Y-424D01*
X62557Y-570D01*
X62412Y-736D01*
X62267Y-923D01*
X62153Y-1120D01*
Y-1130D01*
X62142Y-1141D01*
X62132Y-1172D01*
X62111Y-1213D01*
X62059Y-1328D01*
X62018Y-1473D01*
X61966Y-1660D01*
X61914Y-1867D01*
X61883Y-2096D01*
X61872Y-2345D01*
Y-2355D01*
Y-2397D01*
X61883Y-2459D01*
Y-2542D01*
X61893Y-2646D01*
X61914Y-2760D01*
X61945Y-2895D01*
X61976Y-3040D01*
X62018Y-3196D01*
X62069Y-3352D01*
X62142Y-3518D01*
X62215Y-3684D01*
X62308Y-3850D01*
X62423Y-4006D01*
X62547Y-4172D01*
X62692Y-4317D01*
X62703Y-4327D01*
X62734Y-4348D01*
X62775Y-4390D01*
X62838Y-4442D01*
X62921Y-4504D01*
X63014Y-4566D01*
X63128Y-4639D01*
X63263Y-4711D01*
X63409Y-4784D01*
X63564Y-4857D01*
X63730Y-4919D01*
X63917Y-4981D01*
X64114Y-5033D01*
X64322Y-5075D01*
X64550Y-5096D01*
X64779Y-5106D01*
X65137D01*
X64903D01*
X64986Y-5096D01*
X65090Y-5085D01*
X65215Y-5064D01*
X65350Y-5044D01*
X65505Y-5012D01*
X65661Y-4971D01*
X65827Y-4919D01*
X65993Y-4857D01*
X66170Y-4784D01*
X66336Y-4691D01*
X66502Y-4587D01*
X66668Y-4473D01*
X66824Y-4338D01*
X66834Y-4327D01*
X66855Y-4307D01*
X66896Y-4265D01*
X66948Y-4203D01*
X67010Y-4130D01*
X67073Y-4037D01*
X67145Y-3933D01*
X67228Y-3819D01*
X67301Y-3684D01*
X67374Y-3539D01*
X67436Y-3383D01*
X67498Y-3206D01*
X67550Y-3030D01*
X67592Y-2833D01*
X67612Y-2635D01*
X67623Y-2417D01*
Y-2407D01*
Y-2365D01*
X67612Y-2293D01*
X67602Y-2199D01*
X67571Y-2075D01*
X67540Y-1940D01*
X67498Y-1774D01*
X67426Y-1597D01*
X67353Y-1400D01*
X67249Y-1193D01*
X67125Y-964D01*
X66969Y-726D01*
X66792Y-476D01*
X66585Y-206D01*
X66346Y53D01*
X66076Y333D01*
X65983Y416D01*
X64592Y1755D01*
X67768D01*
Y3779D01*
D02*
G37*
G36*
X125346Y3852D02*
X115194D01*
Y-5096D01*
D01*
Y3852D01*
X120187D01*
X120104Y3831D01*
X120000Y3811D01*
X119886Y3779D01*
X119762Y3728D01*
X119647Y3655D01*
X119533Y3551D01*
X119523Y3541D01*
X119492Y3489D01*
X119440Y3416D01*
X119378Y3302D01*
X119305Y3157D01*
X119232Y2980D01*
X119159Y2762D01*
X119097Y2513D01*
X118184Y-1743D01*
Y-1764D01*
X118173Y-1784D01*
Y-1815D01*
X118163Y-1867D01*
X118153Y-1919D01*
X118132Y-1992D01*
X118122Y-2065D01*
X118101Y-2158D01*
X118080Y-2262D01*
X118059Y-2386D01*
X118028Y-2521D01*
X117997Y-2667D01*
X117966Y-2822D01*
X117935Y-2999D01*
X117893Y-3196D01*
X117872Y-3289D01*
Y-3279D01*
Y-3258D01*
Y-3227D01*
Y-3185D01*
Y-3123D01*
Y-3051D01*
X117862Y-2968D01*
Y-2874D01*
X117852Y-2656D01*
X117841Y-2407D01*
X117821Y-2127D01*
X117789Y-1815D01*
Y-1805D01*
Y-1764D01*
X117779Y-1722D01*
Y-1680D01*
X117291Y3779D01*
X115194D01*
X116139Y-3289D01*
Y-3300D01*
X116149Y-3331D01*
Y-3372D01*
X116160Y-3435D01*
X116181Y-3507D01*
X116191Y-3590D01*
X116243Y-3777D01*
X116315Y-3995D01*
X116409Y-4213D01*
X116523Y-4431D01*
X116668Y-4618D01*
X116679Y-4628D01*
X116689Y-4639D01*
X116751Y-4691D01*
X116845Y-4774D01*
X116969Y-4857D01*
X117125Y-4940D01*
X117312Y-5023D01*
X117530Y-5075D01*
X117644Y-5096D01*
X117831D01*
X117872Y-5085D01*
X117987Y-5075D01*
X118132Y-5044D01*
X118298Y-4992D01*
X118474Y-4919D01*
X118651Y-4815D01*
X118817Y-4680D01*
X118838Y-4659D01*
X118890Y-4608D01*
X118962Y-4504D01*
X119056Y-4369D01*
X119159Y-4203D01*
X119263Y-3995D01*
X119357Y-3746D01*
X119440Y-3466D01*
X120011Y-1047D01*
Y-1027D01*
X120021Y-985D01*
X120042Y-912D01*
X120063Y-819D01*
X120083Y-705D01*
X120104Y-570D01*
X120135Y-424D01*
X120156Y-269D01*
Y-248D01*
X120166Y-196D01*
X120177Y-103D01*
X120197Y12D01*
X120208Y157D01*
X120229Y313D01*
X120239Y499D01*
X120260Y697D01*
Y686D01*
Y676D01*
Y645D01*
X120270Y603D01*
X120281Y499D01*
X120291Y375D01*
X120301Y219D01*
X120322Y63D01*
X120343Y-103D01*
X120364Y-269D01*
Y-289D01*
X120374Y-341D01*
X120384Y-424D01*
X120405Y-528D01*
X120426Y-642D01*
X120447Y-777D01*
X120509Y-1047D01*
X121090Y-3466D01*
Y-3476D01*
X121101Y-3497D01*
X121111Y-3539D01*
X121121Y-3601D01*
X121142Y-3663D01*
X121173Y-3746D01*
X121236Y-3923D01*
X121319Y-4109D01*
X121433Y-4317D01*
X121557Y-4514D01*
X121703Y-4680D01*
X121723Y-4701D01*
X121775Y-4743D01*
X121869Y-4815D01*
X121993Y-4888D01*
X122149Y-4961D01*
X122325Y-5033D01*
X122533Y-5075D01*
X122761Y-5096D01*
X122824D01*
X122876Y-5085D01*
X122990Y-5075D01*
X123145Y-5033D01*
X123322Y-4981D01*
X123498Y-4898D01*
X123685Y-4774D01*
X123768Y-4701D01*
X123851Y-4618D01*
X123872Y-4597D01*
X123893Y-4566D01*
X123924Y-4535D01*
X123955Y-4483D01*
X123997Y-4421D01*
X124080Y-4275D01*
X124173Y-4089D01*
X124256Y-3860D01*
X124339Y-3590D01*
X124391Y-3289D01*
X125346Y3779D01*
D01*
X123249D01*
X122761Y-1680D01*
Y-1701D01*
Y-1753D01*
X122751Y-1836D01*
X122741Y-1940D01*
X122730Y-2075D01*
X122720Y-2210D01*
X122699Y-2511D01*
Y-2532D01*
Y-2583D01*
X122689Y-2656D01*
X122678Y-2760D01*
X122668Y-2874D01*
Y-3009D01*
X122647Y-3289D01*
Y-3279D01*
Y-3269D01*
X122637Y-3237D01*
X122626Y-3196D01*
X122606Y-3092D01*
X122585Y-2968D01*
X122554Y-2822D01*
X122533Y-2677D01*
X122502Y-2521D01*
X122471Y-2376D01*
Y-2365D01*
X122460Y-2314D01*
X122450Y-2251D01*
X122429Y-2168D01*
X122408Y-2065D01*
X122388Y-1961D01*
X122336Y-1743D01*
X121433Y2513D01*
Y2523D01*
X121422Y2544D01*
X121412Y2586D01*
X121402Y2627D01*
X121370Y2762D01*
X121319Y2918D01*
X121256Y3084D01*
X121184Y3260D01*
X121090Y3416D01*
X120997Y3551D01*
X120986Y3562D01*
X120945Y3593D01*
X120883Y3644D01*
X120800Y3696D01*
X120696Y3759D01*
X120571Y3800D01*
X120426Y3842D01*
X120260Y3852D01*
X125346D01*
D01*
D02*
G37*
G36*
X111084Y3935D02*
X103776D01*
Y-4961D01*
D01*
Y3935D01*
X107358D01*
X107306Y3925D01*
X107243D01*
X107181Y3914D01*
X107015Y3873D01*
X106828Y3821D01*
X106631Y3738D01*
X106434Y3624D01*
X106340Y3562D01*
X106257Y3478D01*
Y3468D01*
X106236Y3458D01*
X106216Y3427D01*
X106184Y3385D01*
X106143Y3333D01*
X106102Y3271D01*
X106060Y3198D01*
X106008Y3115D01*
X105946Y3011D01*
X105894Y2897D01*
X105832Y2773D01*
X105769Y2638D01*
X105707Y2482D01*
X105655Y2316D01*
X105593Y2139D01*
X105541Y1942D01*
X103776Y-4961D01*
X111084D01*
D01*
X109299Y1942D01*
Y1953D01*
X109288Y1984D01*
X109267Y2046D01*
X109247Y2119D01*
X109226Y2202D01*
X109195Y2306D01*
X109112Y2534D01*
X109008Y2783D01*
X108883Y3042D01*
X108748Y3281D01*
X108676Y3385D01*
X108593Y3478D01*
X108572Y3499D01*
X108510Y3551D01*
X108416Y3624D01*
X108281Y3707D01*
X108115Y3790D01*
X107918Y3862D01*
X107690Y3914D01*
X107565Y3925D01*
X107430Y3935D01*
X111084D01*
D02*
G37*
G36*
X97092Y3779D02*
X90054D01*
Y-4961D01*
X92716D01*
X91974D01*
X92099Y-4950D01*
X92234D01*
X92379Y-4940D01*
X92701Y-4919D01*
X93033Y-4898D01*
X93365Y-4857D01*
X93511Y-4836D01*
X93656Y-4805D01*
X93666D01*
X93687Y-4794D01*
X93729Y-4784D01*
X93780Y-4774D01*
X93843Y-4753D01*
X93915Y-4732D01*
X94092Y-4680D01*
X94299Y-4608D01*
X94517Y-4525D01*
X94746Y-4410D01*
X94964Y-4286D01*
X94974Y-4275D01*
X95005Y-4255D01*
X95057Y-4223D01*
X95130Y-4172D01*
X95213Y-4109D01*
X95317Y-4037D01*
X95420Y-3943D01*
X95545Y-3850D01*
X95670Y-3736D01*
X95794Y-3621D01*
X95929Y-3487D01*
X96054Y-3341D01*
X96303Y-3030D01*
X96427Y-2864D01*
X96531Y-2687D01*
X96542Y-2677D01*
X96552Y-2646D01*
X96583Y-2594D01*
X96614Y-2521D01*
X96666Y-2428D01*
X96708Y-2324D01*
X96759Y-2199D01*
X96811Y-2065D01*
X96863Y-1909D01*
X96915Y-1753D01*
X96967Y-1577D01*
X97009Y-1400D01*
X97071Y-1006D01*
X97081Y-798D01*
X97092Y-591D01*
Y-487D01*
X97081Y-404D01*
Y-310D01*
X97061Y-196D01*
X97050Y-71D01*
X97029Y74D01*
X96998Y219D01*
X96967Y385D01*
X96874Y728D01*
X96822Y904D01*
X96749Y1081D01*
X96676Y1268D01*
X96583Y1444D01*
X96573Y1454D01*
X96562Y1486D01*
X96531Y1537D01*
X96490Y1600D01*
X96438Y1683D01*
X96375Y1776D01*
X96303Y1880D01*
X96220Y1994D01*
X96116Y2119D01*
X96012Y2243D01*
X95898Y2378D01*
X95773Y2513D01*
X95483Y2783D01*
X95161Y3032D01*
X95151D01*
X95140Y3042D01*
X95109Y3063D01*
X95078Y3084D01*
X94974Y3146D01*
X94839Y3229D01*
X94673Y3312D01*
X94476Y3395D01*
X94258Y3489D01*
X94019Y3562D01*
X94009D01*
X93988Y3572D01*
X93957Y3582D01*
X93905Y3593D01*
X93843Y3603D01*
X93770Y3624D01*
X93687Y3644D01*
X93594Y3655D01*
X93386Y3696D01*
X93137Y3728D01*
X92857Y3759D01*
X92566Y3779D01*
X97092D01*
D01*
D02*
G37*
G36*
X85310Y3779D02*
X79435D01*
Y-4961D01*
D01*
Y1755D01*
X82124D01*
X82227Y1745D01*
X82362Y1724D01*
X82508Y1703D01*
X82664Y1662D01*
X82809Y1610D01*
X82944Y1537D01*
X82954Y1527D01*
X82996Y1496D01*
X83047Y1444D01*
X83110Y1371D01*
X83172Y1288D01*
X83224Y1174D01*
X83266Y1039D01*
X83276Y894D01*
Y873D01*
Y831D01*
X83255Y759D01*
X83234Y665D01*
X83203Y572D01*
X83141Y468D01*
X83068Y364D01*
X82964Y271D01*
X82954Y261D01*
X82913Y230D01*
X82840Y198D01*
X82746Y146D01*
X82632Y105D01*
X82487Y74D01*
X82331Y43D01*
X82144Y32D01*
X80670D01*
Y-1193D01*
X82622Y-3019D01*
X79581D01*
Y-4961D01*
X79435D01*
X83079D01*
X83151Y-4950D01*
X83224D01*
X83317Y-4940D01*
X83515Y-4909D01*
X83743Y-4867D01*
X83982Y-4794D01*
X84220Y-4701D01*
X84428Y-4577D01*
X84438D01*
X84449Y-4556D01*
X84511Y-4504D01*
X84594Y-4421D01*
X84698Y-4307D01*
X84791Y-4161D01*
X84874Y-3985D01*
X84937Y-3777D01*
X84947Y-3673D01*
X84957Y-3549D01*
Y-3539D01*
Y-3497D01*
X84947Y-3445D01*
X84937Y-3362D01*
X84926Y-3279D01*
X84895Y-3175D01*
X84864Y-3071D01*
X84812Y-2957D01*
X84802Y-2947D01*
X84781Y-2905D01*
X84750Y-2853D01*
X84708Y-2781D01*
X84656Y-2698D01*
X84584Y-2604D01*
X84511Y-2521D01*
X84418Y-2428D01*
X83286Y-1400D01*
X83297D01*
X83328Y-1390D01*
X83380Y-1379D01*
X83452Y-1359D01*
X83525Y-1338D01*
X83618Y-1307D01*
X83836Y-1234D01*
X84075Y-1130D01*
X84324Y-985D01*
X84563Y-819D01*
X84677Y-715D01*
X84781Y-601D01*
X84791Y-591D01*
X84802Y-570D01*
X84833Y-539D01*
X84864Y-487D01*
X84905Y-424D01*
X84947Y-352D01*
X84999Y-269D01*
X85051Y-175D01*
X85092Y-61D01*
X85144Y63D01*
X85186Y188D01*
X85227Y333D01*
X85290Y655D01*
X85300Y821D01*
X85310Y1008D01*
Y1132D01*
X85300Y1216D01*
X85290Y1330D01*
X85269Y1454D01*
X85248Y1589D01*
X85217Y1735D01*
X85175Y1901D01*
X85123Y2067D01*
X85061Y2233D01*
X84978Y2399D01*
X84895Y2565D01*
X84791Y2731D01*
X84667Y2887D01*
X84532Y3032D01*
X84522Y3042D01*
X84501Y3063D01*
X84449Y3105D01*
X84386Y3146D01*
X84314Y3209D01*
X84220Y3271D01*
X84106Y3333D01*
X83982Y3406D01*
X83836Y3478D01*
X83681Y3541D01*
X83504Y3603D01*
X83328Y3665D01*
X83120Y3707D01*
X82913Y3748D01*
X82684Y3769D01*
X82446Y3779D01*
X85310D01*
D01*
D02*
G37*
G36*
X60699D02*
X54824D01*
Y-4961D01*
D01*
Y1755D01*
X57513D01*
X57617Y1745D01*
X57751Y1724D01*
X57897Y1703D01*
X58052Y1662D01*
X58198Y1610D01*
X58333Y1537D01*
X58343Y1527D01*
X58385Y1496D01*
X58437Y1444D01*
X58499Y1371D01*
X58561Y1288D01*
X58613Y1174D01*
X58654Y1039D01*
X58665Y894D01*
Y873D01*
Y831D01*
X58644Y759D01*
X58623Y665D01*
X58592Y572D01*
X58530Y468D01*
X58457Y364D01*
X58354Y271D01*
X58343Y261D01*
X58302Y230D01*
X58229Y198D01*
X58135Y146D01*
X58021Y105D01*
X57876Y74D01*
X57720Y43D01*
X57534Y32D01*
X56059D01*
Y-1193D01*
X58011Y-3019D01*
X54970D01*
Y-4961D01*
X54824D01*
X60699D01*
X58468D01*
X58540Y-4950D01*
X58613D01*
X58706Y-4940D01*
X58904Y-4909D01*
X59132Y-4867D01*
X59371Y-4794D01*
X59610Y-4701D01*
X59817Y-4577D01*
X59827D01*
X59838Y-4556D01*
X59900Y-4504D01*
X59983Y-4421D01*
X60087Y-4307D01*
X60180Y-4161D01*
X60263Y-3985D01*
X60326Y-3777D01*
X60336Y-3673D01*
X60347Y-3549D01*
Y-3539D01*
Y-3497D01*
X60336Y-3445D01*
X60326Y-3362D01*
X60315Y-3279D01*
X60284Y-3175D01*
X60253Y-3071D01*
X60201Y-2957D01*
X60191Y-2947D01*
X60170Y-2905D01*
X60139Y-2853D01*
X60097Y-2781D01*
X60045Y-2698D01*
X59973Y-2604D01*
X59900Y-2521D01*
X59807Y-2428D01*
X58675Y-1400D01*
X58686D01*
X58717Y-1390D01*
X58769Y-1379D01*
X58841Y-1359D01*
X58914Y-1338D01*
X59007Y-1307D01*
X59225Y-1234D01*
X59464Y-1130D01*
X59713Y-985D01*
X59952Y-819D01*
X60066Y-715D01*
X60170Y-601D01*
X60180Y-591D01*
X60191Y-570D01*
X60222Y-539D01*
X60253Y-487D01*
X60295Y-424D01*
X60336Y-352D01*
X60388Y-269D01*
X60440Y-175D01*
X60481Y-61D01*
X60533Y63D01*
X60575Y188D01*
X60616Y333D01*
X60679Y655D01*
X60689Y821D01*
X60699Y1008D01*
Y1132D01*
X60689Y1216D01*
X60679Y1330D01*
X60658Y1454D01*
X60637Y1589D01*
X60606Y1735D01*
X60564Y1901D01*
X60513Y2067D01*
X60450Y2233D01*
X60367Y2399D01*
X60284Y2565D01*
X60180Y2731D01*
X60056Y2887D01*
X59921Y3032D01*
X59911Y3042D01*
X59890Y3063D01*
X59838Y3105D01*
X59776Y3146D01*
X59703Y3209D01*
X59610Y3271D01*
X59495Y3333D01*
X59371Y3406D01*
X59225Y3478D01*
X59070Y3541D01*
X58893Y3603D01*
X58717Y3665D01*
X58509Y3707D01*
X58302Y3748D01*
X58073Y3769D01*
X57835Y3779D01*
X60699D01*
D02*
G37*
G36*
X46635D02*
X40718D01*
Y-4961D01*
D01*
Y1693D01*
X43770D01*
X43821Y1683D01*
X43884D01*
X44019Y1651D01*
X44081Y1620D01*
X44143Y1589D01*
X44154Y1579D01*
X44164Y1568D01*
X44216Y1506D01*
X44268Y1402D01*
X44278Y1340D01*
X44289Y1268D01*
Y1257D01*
Y1236D01*
X44278Y1205D01*
X44268Y1153D01*
X44247Y1101D01*
X44226Y1039D01*
X44185Y977D01*
X44133Y915D01*
X44122Y904D01*
X44102Y883D01*
X44071Y842D01*
X44019Y800D01*
X43956Y738D01*
X43884Y676D01*
X43790Y613D01*
X43687Y541D01*
X42005Y-476D01*
X41995D01*
X41984Y-497D01*
X41953Y-518D01*
X41912Y-539D01*
X41808Y-622D01*
X41673Y-726D01*
X41528Y-850D01*
X41372Y-1016D01*
X41216Y-1193D01*
X41081Y-1390D01*
Y-1400D01*
X41071Y-1411D01*
X41050Y-1442D01*
X41029Y-1483D01*
X40977Y-1597D01*
X40915Y-1743D01*
X40853Y-1919D01*
X40801Y-2116D01*
X40759Y-2324D01*
X40749Y-2542D01*
Y-2552D01*
Y-2563D01*
Y-2594D01*
Y-2635D01*
X40759Y-2750D01*
X40770Y-2884D01*
X40791Y-3051D01*
X40832Y-3217D01*
X40874Y-3404D01*
X40936Y-3580D01*
Y-3590D01*
X40946Y-3601D01*
X40977Y-3663D01*
X41019Y-3746D01*
X41081Y-3860D01*
X41164Y-3985D01*
X41268Y-4120D01*
X41382Y-4255D01*
X41517Y-4379D01*
X41538Y-4390D01*
X41579Y-4431D01*
X41662Y-4483D01*
X41766Y-4556D01*
X41891Y-4628D01*
X42046Y-4701D01*
X42213Y-4763D01*
X42399Y-4826D01*
X42410D01*
X42420Y-4836D01*
X42451D01*
X42503Y-4846D01*
X42555Y-4857D01*
X42628Y-4867D01*
X42711Y-4877D01*
X42815Y-4898D01*
X42929Y-4909D01*
X43053Y-4919D01*
X43188Y-4929D01*
X43344Y-4940D01*
X43510Y-4950D01*
X43697D01*
X43894Y-4961D01*
X40718D01*
X46105D01*
Y-2957D01*
X43655D01*
X43552Y-2947D01*
X43448Y-2936D01*
X43334Y-2926D01*
X43240Y-2905D01*
X43157Y-2874D01*
X43147D01*
X43126Y-2864D01*
X43074Y-2812D01*
X43012Y-2739D01*
X42991Y-2677D01*
X42981Y-2615D01*
Y-2604D01*
Y-2583D01*
X42991Y-2552D01*
X43001Y-2500D01*
X43043Y-2397D01*
X43074Y-2324D01*
X43116Y-2262D01*
X43126Y-2251D01*
X43147Y-2231D01*
X43178Y-2199D01*
X43230Y-2158D01*
X43282Y-2106D01*
X43365Y-2044D01*
X43448Y-1981D01*
X43552Y-1919D01*
X45192Y-933D01*
X45202D01*
X45223Y-912D01*
X45264Y-892D01*
X45306Y-860D01*
X45368Y-819D01*
X45430Y-767D01*
X45586Y-642D01*
X45763Y-497D01*
X45939Y-321D01*
X46115Y-134D01*
X46261Y84D01*
Y94D01*
X46281Y115D01*
X46292Y146D01*
X46323Y188D01*
X46344Y240D01*
X46375Y302D01*
X46448Y458D01*
X46520Y645D01*
X46572Y863D01*
X46614Y1101D01*
X46635Y1350D01*
Y1454D01*
X46624Y1568D01*
X46603Y1714D01*
X46572Y1880D01*
X46520Y2067D01*
X46458Y2254D01*
X46375Y2451D01*
Y2461D01*
X46365Y2472D01*
X46333Y2534D01*
X46271Y2627D01*
X46198Y2741D01*
X46095Y2876D01*
X45981Y3011D01*
X45835Y3146D01*
X45680Y3271D01*
X45659Y3281D01*
X45617Y3312D01*
X45534Y3364D01*
X45430Y3427D01*
X45295Y3489D01*
X45150Y3551D01*
X44984Y3613D01*
X44808Y3665D01*
X44787D01*
X44756Y3676D01*
X44714Y3686D01*
X44662Y3696D01*
X44600D01*
X44517Y3707D01*
X44434Y3717D01*
X44330Y3728D01*
X44216Y3738D01*
X44081Y3748D01*
X43946Y3759D01*
X43790Y3769D01*
X43624D01*
X43448Y3779D01*
X46635D01*
D02*
G37*
G36*
X49790D02*
X47610D01*
Y-5116D01*
D01*
Y-1909D01*
X47621Y-1992D01*
Y-2085D01*
X47641Y-2210D01*
X47652Y-2355D01*
X47683Y-2521D01*
X47724Y-2687D01*
X47766Y-2874D01*
X47828Y-3071D01*
X47890Y-3269D01*
X47973Y-3466D01*
X48077Y-3663D01*
X48191Y-3850D01*
X48326Y-4037D01*
X48482Y-4213D01*
X48493Y-4224D01*
X48524Y-4255D01*
X48575Y-4296D01*
X48638Y-4358D01*
X48731Y-4421D01*
X48835Y-4504D01*
X48960Y-4577D01*
X49105Y-4670D01*
X49261Y-4753D01*
X49437Y-4836D01*
X49624Y-4909D01*
X49832Y-4971D01*
X50060Y-5033D01*
X50288Y-5075D01*
X50548Y-5106D01*
X50807Y-5116D01*
X53921D01*
X50870D01*
X50932Y-5106D01*
X51025D01*
X51139Y-5085D01*
X51274Y-5075D01*
X51420Y-5044D01*
X51575Y-5002D01*
X51752Y-4961D01*
X51928Y-4898D01*
X52115Y-4826D01*
X52292Y-4743D01*
X52478Y-4639D01*
X52665Y-4525D01*
X52842Y-4390D01*
X53018Y-4234D01*
X53029Y-4224D01*
X53060Y-4192D01*
X53101Y-4140D01*
X53163Y-4078D01*
X53226Y-3995D01*
X53309Y-3891D01*
X53382Y-3767D01*
X53475Y-3632D01*
X53558Y-3487D01*
X53641Y-3320D01*
X53714Y-3134D01*
X53776Y-2947D01*
X53838Y-2739D01*
X53880Y-2532D01*
X53911Y-2303D01*
X53921Y-2065D01*
Y-2002D01*
X53911Y-1930D01*
Y-1836D01*
X53890Y-1722D01*
X53869Y-1587D01*
X53838Y-1442D01*
X53797Y-1276D01*
X53745Y-1099D01*
X53683Y-923D01*
X53610Y-736D01*
X53516Y-549D01*
X53402Y-373D01*
X53278Y-186D01*
X53122Y-20D01*
X52956Y146D01*
X52946Y157D01*
X52914Y178D01*
X52852Y219D01*
X52779Y271D01*
X52686Y344D01*
X52561Y406D01*
X52426Y489D01*
X52271Y562D01*
X52094Y634D01*
X51907Y717D01*
X51700Y780D01*
X51472Y842D01*
X51222Y904D01*
X50963Y946D01*
X50683Y967D01*
X50392Y977D01*
X50174D01*
Y-1110D01*
X50600D01*
X50693Y-1120D01*
X50818Y-1141D01*
X50963Y-1172D01*
X51108Y-1224D01*
X51254Y-1286D01*
X51378Y-1369D01*
X51389Y-1379D01*
X51430Y-1421D01*
X51482Y-1483D01*
X51544Y-1566D01*
X51596Y-1670D01*
X51648Y-1795D01*
X51689Y-1930D01*
X51700Y-2096D01*
Y-2116D01*
Y-2158D01*
X51689Y-2231D01*
X51669Y-2324D01*
X51638Y-2428D01*
X51586Y-2542D01*
X51524Y-2656D01*
X51430Y-2760D01*
X51420Y-2770D01*
X51378Y-2802D01*
X51326Y-2843D01*
X51243Y-2895D01*
X51150Y-2947D01*
X51036Y-2988D01*
X50901Y-3019D01*
X50755Y-3030D01*
X50683D01*
X50600Y-3009D01*
X50496Y-2988D01*
X50382Y-2957D01*
X50257Y-2895D01*
X50143Y-2822D01*
X50039Y-2718D01*
X50029Y-2708D01*
X49998Y-2667D01*
X49956Y-2594D01*
X49915Y-2490D01*
X49873Y-2376D01*
X49832Y-2220D01*
X49800Y-2054D01*
X49790Y-1857D01*
Y3779D01*
D02*
G37*
%LPD*%
G36*
X62889Y3769D02*
X62744Y3748D01*
X62589Y3707D01*
X62433Y3665D01*
X62277Y3593D01*
X62142Y3499D01*
X62132Y3489D01*
X62090Y3447D01*
X62038Y3375D01*
X61987Y3281D01*
X61924Y3157D01*
X61872Y3011D01*
X61831Y2835D01*
X61820Y2638D01*
Y3779D01*
X63004D01*
X62889Y3769D01*
D02*
G37*
G36*
X107430Y1226D02*
X107440Y1205D01*
Y1174D01*
X107451Y1132D01*
X107472Y1018D01*
X107503Y873D01*
X107534Y707D01*
X107565Y541D01*
X107596Y385D01*
X107617Y240D01*
Y219D01*
X107627Y178D01*
X107648Y115D01*
X107659Y32D01*
X107700Y-155D01*
X107721Y-238D01*
X107741Y-321D01*
X108904Y-4961D01*
X105946D01*
X107108Y-321D01*
Y-310D01*
X107119Y-279D01*
X107129Y-217D01*
X107150Y-144D01*
X107171Y-40D01*
X107191Y74D01*
X107222Y198D01*
X107254Y344D01*
Y364D01*
X107264Y416D01*
X107285Y499D01*
X107306Y603D01*
X107337Y738D01*
X107368Y883D01*
X107399Y1049D01*
X107430Y1236D01*
Y1226D01*
D02*
G37*
G36*
X92566Y1683D02*
X92607D01*
X92659Y1672D01*
X92732D01*
X92815Y1651D01*
X92919Y1641D01*
X93033Y1620D01*
X93147Y1589D01*
X93407Y1506D01*
X93542Y1454D01*
X93687Y1392D01*
X93822Y1319D01*
X93957Y1226D01*
X94081Y1132D01*
X94206Y1018D01*
X94216Y1008D01*
X94237Y987D01*
X94268Y956D01*
X94310Y904D01*
X94351Y842D01*
X94414Y759D01*
X94466Y676D01*
X94528Y572D01*
X94590Y458D01*
X94642Y344D01*
X94704Y209D01*
X94746Y63D01*
X94787Y-92D01*
X94818Y-248D01*
X94839Y-424D01*
X94850Y-601D01*
Y-611D01*
Y-642D01*
Y-694D01*
X94839Y-767D01*
X94829Y-850D01*
X94818Y-954D01*
X94798Y-1058D01*
X94766Y-1182D01*
X94683Y-1442D01*
X94632Y-1577D01*
X94569Y-1712D01*
X94486Y-1846D01*
X94393Y-1981D01*
X94289Y-2116D01*
X94175Y-2241D01*
X94165Y-2251D01*
X94144Y-2272D01*
X94102Y-2303D01*
X94050Y-2345D01*
X93988Y-2397D01*
X93905Y-2449D01*
X93812Y-2511D01*
X93708Y-2573D01*
X93583Y-2625D01*
X93459Y-2687D01*
X93313Y-2739D01*
X93158Y-2791D01*
X92992Y-2833D01*
X92815Y-2864D01*
X92639Y-2884D01*
X92441Y-2895D01*
X92390D01*
X92338Y-2884D01*
X92296D01*
X92265Y-2874D01*
X92234D01*
Y3779D01*
X92566D01*
Y1683D01*
D02*
G37*
D11*
X138668Y28901D02*
Y31033D01*
X139735Y32100D01*
X140801Y31033D01*
Y28901D01*
X141867Y32100D02*
X142934D01*
X142401D01*
Y28901D01*
X141867Y29434D01*
X144533Y32100D02*
Y31566D01*
X145066D01*
Y32100D01*
X144533D01*
X147199Y29434D02*
X147732Y28901D01*
X148799D01*
X149332Y29434D01*
Y31566D01*
X148799Y32100D01*
X147732D01*
X147199Y31566D01*
Y29434D01*
X116066Y38000D02*
X113934D01*
X116066Y35867D01*
Y35334D01*
X115533Y34801D01*
X114467D01*
X113934Y35334D01*
X122334Y-34801D02*
Y-38000D01*
X123934D01*
X124467Y-37467D01*
Y-36400D01*
X123934Y-35867D01*
X122334D01*
X123400D02*
X124467Y-34801D01*
X125533Y-38000D02*
X127666Y-34801D01*
Y-38000D02*
X125533Y-34801D01*
X66066Y-38000D02*
X65000Y-37467D01*
X63934Y-36400D01*
Y-35334D01*
X64467Y-34801D01*
X65533D01*
X66066Y-35334D01*
Y-35867D01*
X65533Y-36400D01*
X63934D01*
X132334Y-38000D02*
X134467D01*
X133400D01*
Y-34801D01*
X135533Y-38000D02*
X137666Y-34801D01*
Y-38000D02*
X135533Y-34801D01*
X45533D02*
Y-38000D01*
X43934Y-36400D01*
X46066D01*
X24467Y34801D02*
X22334D01*
Y36400D01*
X23401Y35867D01*
X23934D01*
X24467Y36400D01*
Y37467D01*
X23934Y38000D01*
X22867D01*
X22334Y37467D01*
X25533Y34801D02*
Y36934D01*
X26599Y38000D01*
X27666Y36934D01*
Y34801D01*
X103934Y-35334D02*
X104467Y-34801D01*
X105533D01*
X106066Y-35334D01*
Y-37467D01*
X105533Y-38000D01*
X104467D01*
X103934Y-37467D01*
Y-36934D01*
X104467Y-36400D01*
X106066D01*
X112867Y-37467D02*
X112334Y-38000D01*
X111268D01*
X110735Y-37467D01*
Y-35334D01*
X111268Y-34801D01*
X112334D01*
X112867Y-35334D01*
Y-36400D01*
X111801D01*
X113934Y-34801D02*
Y-38000D01*
X116066Y-34801D01*
Y-38000D01*
X117133D02*
Y-34801D01*
X118732D01*
X119265Y-35334D01*
Y-37467D01*
X118732Y-38000D01*
X117133D01*
X56066D02*
X53934D01*
Y-36400D01*
X55000Y-36934D01*
X55533D01*
X56066Y-36400D01*
Y-35334D01*
X55533Y-34801D01*
X54467D01*
X53934Y-35334D01*
X124467Y-28801D02*
X122334D01*
X124467Y-30934D01*
Y-31467D01*
X123934Y-32000D01*
X122867D01*
X122334Y-31467D01*
X125533D02*
X126066Y-32000D01*
X127133D01*
X127666Y-31467D01*
Y-29334D01*
X127133Y-28801D01*
X126066D01*
X125533Y-29334D01*
Y-31467D01*
X14467Y34801D02*
X12334D01*
Y36400D01*
X13400Y35867D01*
X13934D01*
X14467Y36400D01*
Y37467D01*
X13934Y38000D01*
X12867D01*
X12334Y37467D01*
X15533Y34801D02*
Y36934D01*
X16600Y38000D01*
X17666Y36934D01*
Y34801D01*
X142867Y35334D02*
X142334Y34801D01*
X141268D01*
X140735Y35334D01*
Y37467D01*
X141268Y38000D01*
X142334D01*
X142867Y37467D01*
Y36400D01*
X141801D01*
X143934Y38000D02*
Y34801D01*
X146066Y38000D01*
Y34801D01*
X147133D02*
Y38000D01*
X148732D01*
X149265Y37467D01*
Y35334D01*
X148732Y34801D01*
X147133D01*
X32867Y35334D02*
X32334Y34801D01*
X31268D01*
X30735Y35334D01*
Y37467D01*
X31268Y38000D01*
X32334D01*
X32867Y37467D01*
Y36400D01*
X31801D01*
X33934Y38000D02*
Y34801D01*
X36066Y38000D01*
Y34801D01*
X37133D02*
Y38000D01*
X38732D01*
X39265Y37467D01*
Y35334D01*
X38732Y34801D01*
X37133D01*
X72867Y35334D02*
X72334Y34801D01*
X71268D01*
X70735Y35334D01*
Y37467D01*
X71268Y38000D01*
X72334D01*
X72867Y37467D01*
Y36400D01*
X71801D01*
X73934Y38000D02*
Y34801D01*
X76066Y38000D01*
Y34801D01*
X77133D02*
Y38000D01*
X78732D01*
X79265Y37467D01*
Y35334D01*
X78732Y34801D01*
X77133D01*
X135000Y-28801D02*
X132867D01*
X135000Y-30934D01*
Y-31467D01*
X134467Y-32000D01*
X133400D01*
X132867Y-31467D01*
X136066Y-28801D02*
X137133D01*
X136600D01*
Y-32000D01*
X136066Y-31467D01*
X142867Y-37467D02*
X142334Y-38000D01*
X141268D01*
X140735Y-37467D01*
Y-35334D01*
X141268Y-34801D01*
X142334D01*
X142867Y-35334D01*
Y-36400D01*
X141801D01*
X143934Y-34801D02*
Y-38000D01*
X146066Y-34801D01*
Y-38000D01*
X147133D02*
Y-34801D01*
X148732D01*
X149265Y-35334D01*
Y-37467D01*
X148732Y-38000D01*
X147133D01*
X103934Y35334D02*
X104467Y34801D01*
X105533D01*
X106066Y35334D01*
Y35867D01*
X105533Y36400D01*
X105000D01*
X105533D01*
X106066Y36934D01*
Y37467D01*
X105533Y38000D01*
X104467D01*
X103934Y37467D01*
X80735Y38000D02*
Y34801D01*
X82334D01*
X82867Y35334D01*
Y36400D01*
X82334Y36934D01*
X80735D01*
X81801D02*
X82867Y38000D01*
X86066Y35334D02*
X85533Y34801D01*
X84467D01*
X83934Y35334D01*
Y35867D01*
X84467Y36400D01*
X85533D01*
X86066Y36934D01*
Y37467D01*
X85533Y38000D01*
X84467D01*
X83934Y37467D01*
X87133Y34801D02*
X89265D01*
X88199D01*
Y38000D01*
X93934Y-37467D02*
X94467Y-38000D01*
X95533D01*
X96066Y-37467D01*
Y-36934D01*
X95533Y-36400D01*
X96066Y-35867D01*
Y-35334D01*
X95533Y-34801D01*
X94467D01*
X93934Y-35334D01*
Y-35867D01*
X94467Y-36400D01*
X93934Y-36934D01*
Y-37467D01*
X94467Y-36400D02*
X95533D01*
X63934Y35334D02*
X64467Y34801D01*
X65533D01*
X66066Y35334D01*
Y37467D01*
X65533Y38000D01*
X64467D01*
X63934Y37467D01*
Y35334D01*
X54467Y38000D02*
X55533D01*
X55000D01*
Y34801D01*
X54467Y35334D01*
X22601Y-34801D02*
X23667D01*
X23134D01*
Y-38000D01*
X22601Y-37467D01*
X25267D02*
X25800Y-38000D01*
X26866D01*
X27399Y-37467D01*
Y-36934D01*
X26866Y-36400D01*
X27399Y-35867D01*
Y-35334D01*
X26866Y-34801D01*
X25800D01*
X25267Y-35334D01*
Y-35867D01*
X25800Y-36400D01*
X25267Y-36934D01*
Y-37467D01*
X25800Y-36400D02*
X26866D01*
X120735Y35334D02*
X121268Y34801D01*
X122334D01*
X122867Y35334D01*
Y35867D01*
X122334Y36400D01*
X121801D01*
X122334D01*
X122867Y36934D01*
Y37467D01*
X122334Y38000D01*
X121268D01*
X120735Y37467D01*
X123934Y34801D02*
Y36934D01*
X125000Y38000D01*
X126066Y36934D01*
Y34801D01*
X127133Y35334D02*
X127666Y34801D01*
X128732D01*
X129265Y35334D01*
Y35867D01*
X128732Y36400D01*
X128199D01*
X128732D01*
X129265Y36934D01*
Y37467D01*
X128732Y38000D01*
X127666D01*
X127133Y37467D01*
X82867Y-37467D02*
X82334Y-38000D01*
X81268D01*
X80735Y-37467D01*
Y-35334D01*
X81268Y-34801D01*
X82334D01*
X82867Y-35334D01*
Y-36400D01*
X81801D01*
X83934Y-34801D02*
Y-38000D01*
X86066Y-34801D01*
Y-38000D01*
X87133D02*
Y-34801D01*
X88732D01*
X89265Y-35334D01*
Y-37467D01*
X88732Y-38000D01*
X87133D01*
X12601Y-34801D02*
X13667D01*
X13134D01*
Y-38000D01*
X12601Y-37467D01*
X15267Y-35334D02*
X15800Y-34801D01*
X16866D01*
X17399Y-35334D01*
Y-37467D01*
X16866Y-38000D01*
X15800D01*
X15267Y-37467D01*
Y-36934D01*
X15800Y-36400D01*
X17399D01*
X42601Y38000D02*
X43667D01*
X43134D01*
Y34801D01*
X42601Y35334D01*
X45267D02*
X45800Y34801D01*
X46866D01*
X47399Y35334D01*
Y37467D01*
X46866Y38000D01*
X45800D01*
X45267Y37467D01*
Y35334D01*
X2867D02*
X2334Y34801D01*
X1268D01*
X735Y35334D01*
Y37467D01*
X1268Y38000D01*
X2334D01*
X2867Y37467D01*
Y36400D01*
X1801D01*
X3934Y38000D02*
Y34801D01*
X6066Y38000D01*
Y34801D01*
X7133D02*
Y38000D01*
X8732D01*
X9265Y37467D01*
Y35334D01*
X8732Y34801D01*
X7133D01*
X92867Y35334D02*
X92334Y34801D01*
X91268D01*
X90735Y35334D01*
Y37467D01*
X91268Y38000D01*
X92334D01*
X92867Y37467D01*
Y36400D01*
X91801D01*
X93934Y38000D02*
Y34801D01*
X96066Y38000D01*
Y34801D01*
X97133D02*
Y38000D01*
X98732D01*
X99265Y37467D01*
Y35334D01*
X98732Y34801D01*
X97133D01*
X73934Y-38000D02*
X76066D01*
Y-37467D01*
X73934Y-35334D01*
Y-34801D01*
X130735Y35334D02*
X131268Y34801D01*
X132334D01*
X132867Y35334D01*
Y35867D01*
X132334Y36400D01*
X131801D01*
X132334D01*
X132867Y36934D01*
Y37467D01*
X132334Y38000D01*
X131268D01*
X130735Y37467D01*
X133934Y34801D02*
Y36934D01*
X135000Y38000D01*
X136066Y36934D01*
Y34801D01*
X137133Y35334D02*
X137666Y34801D01*
X138732D01*
X139265Y35334D01*
Y35867D01*
X138732Y36400D01*
X138199D01*
X138732D01*
X139265Y36934D01*
Y37467D01*
X138732Y38000D01*
X137666D01*
X137133Y37467D01*
X2867Y-37467D02*
X2334Y-38000D01*
X1268D01*
X735Y-37467D01*
Y-35334D01*
X1268Y-34801D01*
X2334D01*
X2867Y-35334D01*
Y-36400D01*
X1801D01*
X3934Y-34801D02*
Y-38000D01*
X6066Y-34801D01*
Y-38000D01*
X7133D02*
Y-34801D01*
X8732D01*
X9265Y-35334D01*
Y-37467D01*
X8732Y-38000D01*
X7133D01*
X32867Y-37467D02*
X32334Y-38000D01*
X31268D01*
X30735Y-37467D01*
Y-35334D01*
X31268Y-34801D01*
X32334D01*
X32867Y-35334D01*
Y-36400D01*
X31801D01*
X33934Y-34801D02*
Y-38000D01*
X36066Y-34801D01*
Y-38000D01*
X37133D02*
Y-34801D01*
X38732D01*
X39265Y-35334D01*
Y-37467D01*
X38732Y-38000D01*
X37133D01*
D14*
X4900Y6100D02*
X7400Y-6900D01*
X9700Y1100D01*
X6400Y1400D02*
X9700Y1100D01*
X6400Y1400D02*
X10000Y5000D01*
X6000Y5300D02*
X10000Y5000D01*
X6000Y5300D02*
X9500Y1700D01*
X11400Y6100D01*
X142500Y50000D02*
X147500D01*
X140000Y42500D02*
X142500Y40000D01*
X82500Y50000D02*
X87500D01*
X72500D02*
X77500D01*
X82500Y40000D02*
X87500D01*
X80000Y42500D02*
X82500Y40000D01*
X70000Y42500D02*
X72500Y40000D01*
X37500Y50000D02*
X40000Y47500D01*
X17500Y50000D02*
X20000Y47500D01*
X17500Y40000D02*
X20000Y42500D01*
X7500Y40000D02*
X10000Y42500D01*
X147500Y50000D02*
X150000Y47500D01*
X147500Y40000D02*
X150000Y42500D01*
X142500Y40000D02*
X147500D01*
X107500Y50000D02*
X110000Y47500D01*
X127500Y40000D02*
X130000Y42500D01*
X87500Y50000D02*
X90000Y47500D01*
X77500Y50000D02*
X80000Y47500D01*
X42500Y50000D02*
X47500D01*
X72500Y40000D02*
X77500D01*
X32500Y50000D02*
X37500D01*
X27500D02*
X30000Y47500D01*
X150000Y42500D02*
Y47500D01*
X117500Y50000D02*
X120000Y47500D01*
X112500Y50000D02*
X117500D01*
X102500D02*
X107500D01*
X97500D02*
X100000Y47500D01*
X87500Y40000D02*
X90000Y42500D01*
X47500Y50000D02*
X50000Y47500D01*
X77500Y40000D02*
X80000Y42500D01*
X30000Y47500D02*
X32500Y50000D01*
X22500D02*
X27500D01*
X30000Y42500D02*
X32500Y40000D01*
X137500Y50000D02*
X140000Y47500D01*
X100000D02*
X102500Y50000D01*
X92500D02*
X97500D01*
X117500Y40000D02*
X120000Y42500D01*
X67500Y50000D02*
X70000Y47500D01*
X62500Y50000D02*
X67500D01*
X20000Y47500D02*
X22500Y50000D01*
X47500Y40000D02*
X50000Y42500D01*
X32500Y40000D02*
X37500D01*
X20000Y42500D02*
X22500Y40000D01*
X132500Y50000D02*
X137500D01*
X130000Y47500D02*
X132500Y50000D01*
X127500D02*
X130000Y47500D01*
X90000D02*
X92500Y50000D01*
X102500Y40000D02*
X107500D01*
X100000Y42500D02*
X102500Y40000D01*
X60000Y47500D02*
X62500Y50000D01*
X57500D02*
X60000Y47500D01*
X52500Y50000D02*
X57500D01*
X7500D02*
X10000Y47500D01*
X37500Y40000D02*
X40000Y42500D01*
X22500Y40000D02*
X27500D01*
X122500Y50000D02*
X127500D01*
X120000Y47500D02*
X122500Y50000D01*
X130000Y42500D02*
X132500Y40000D01*
X107500D02*
X110000Y42500D01*
X92500Y40000D02*
X97500D01*
X90000Y42500D02*
X92500Y40000D01*
X50000Y47500D02*
X52500Y50000D01*
X40000Y47500D02*
X42500Y50000D01*
X60000Y42500D02*
X62500Y40000D01*
X40000Y42500D02*
X42500Y40000D01*
X2500Y50000D02*
X7500D01*
X0Y47500D02*
X2500Y50000D01*
X27500Y40000D02*
X30000Y42500D01*
X110000Y47500D02*
X112500Y50000D01*
X132500Y40000D02*
X137500D01*
X120000Y42500D02*
X122500Y40000D01*
X97500D02*
X100000Y42500D01*
X67500Y40000D02*
X70000Y42500D01*
X62500Y40000D02*
X67500D01*
X50000Y42500D02*
X52500Y40000D01*
X42500D02*
X47500D01*
X10000Y47500D02*
X12500Y50000D01*
X10000Y42500D02*
X12500Y40000D01*
X0Y42500D02*
X2500Y40000D01*
X0Y42500D02*
Y47500D01*
X140000D02*
X142500Y50000D01*
X137500Y40000D02*
X140000Y42500D01*
X122500Y40000D02*
X127500D01*
X112500D02*
X117500D01*
X80000Y47500D02*
X82500Y50000D01*
X110000Y42500D02*
X112500Y40000D01*
X70000Y47500D02*
X72500Y50000D01*
X57500Y40000D02*
X60000Y42500D01*
X52500Y40000D02*
X57500D01*
X12500Y50000D02*
X17500D01*
X12500Y40000D02*
X17500D01*
X2500D02*
X7500D01*
X142500Y-40000D02*
X147500D01*
X140000Y-47500D02*
X142500Y-50000D01*
X82500Y-40000D02*
X87500D01*
X72500D02*
X77500D01*
X82500Y-50000D02*
X87500D01*
X80000Y-47500D02*
X82500Y-50000D01*
X70000Y-47500D02*
X72500Y-50000D01*
X37500Y-40000D02*
X40000Y-42500D01*
X17500Y-40000D02*
X20000Y-42500D01*
X17500Y-50000D02*
X20000Y-47500D01*
X7500Y-50000D02*
X10000Y-47500D01*
X147500Y-40000D02*
X150000Y-42500D01*
X147500Y-50000D02*
X150000Y-47500D01*
X142500Y-50000D02*
X147500D01*
X107500Y-40000D02*
X110000Y-42500D01*
X127500Y-50000D02*
X130000Y-47500D01*
X87500Y-40000D02*
X90000Y-42500D01*
X77500Y-40000D02*
X80000Y-42500D01*
X42500Y-40000D02*
X47500D01*
X72500Y-50000D02*
X77500D01*
X32500Y-40000D02*
X37500D01*
X27500D02*
X30000Y-42500D01*
X150000Y-47500D02*
Y-42500D01*
X117500Y-40000D02*
X120000Y-42500D01*
X112500Y-40000D02*
X117500D01*
X102500D02*
X107500D01*
X97500D02*
X100000Y-42500D01*
X87500Y-50000D02*
X90000Y-47500D01*
X47500Y-40000D02*
X50000Y-42500D01*
X77500Y-50000D02*
X80000Y-47500D01*
X30000Y-42500D02*
X32500Y-40000D01*
X22500D02*
X27500D01*
X30000Y-47500D02*
X32500Y-50000D01*
X137500Y-40000D02*
X140000Y-42500D01*
X100000D02*
X102500Y-40000D01*
X92500D02*
X97500D01*
X117500Y-50000D02*
X120000Y-47500D01*
X67500Y-40000D02*
X70000Y-42500D01*
X62500Y-40000D02*
X67500D01*
X20000Y-42500D02*
X22500Y-40000D01*
X47500Y-50000D02*
X50000Y-47500D01*
X32500Y-50000D02*
X37500D01*
X20000Y-47500D02*
X22500Y-50000D01*
X132500Y-40000D02*
X137500D01*
X130000Y-42500D02*
X132500Y-40000D01*
X127500D02*
X130000Y-42500D01*
X90000D02*
X92500Y-40000D01*
X102500Y-50000D02*
X107500D01*
X100000Y-47500D02*
X102500Y-50000D01*
X60000Y-42500D02*
X62500Y-40000D01*
X57500D02*
X60000Y-42500D01*
X52500Y-40000D02*
X57500D01*
X7500D02*
X10000Y-42500D01*
X37500Y-50000D02*
X40000Y-47500D01*
X22500Y-50000D02*
X27500D01*
X122500Y-40000D02*
X127500D01*
X120000Y-42500D02*
X122500Y-40000D01*
X130000Y-47500D02*
X132500Y-50000D01*
X107500D02*
X110000Y-47500D01*
X92500Y-50000D02*
X97500D01*
X90000Y-47500D02*
X92500Y-50000D01*
X50000Y-42500D02*
X52500Y-40000D01*
X40000Y-42500D02*
X42500Y-40000D01*
X60000Y-47500D02*
X62500Y-50000D01*
X40000Y-47500D02*
X42500Y-50000D01*
X2500Y-40000D02*
X7500D01*
X0Y-42500D02*
X2500Y-40000D01*
X27500Y-50000D02*
X30000Y-47500D01*
X110000Y-42500D02*
X112500Y-40000D01*
X132500Y-50000D02*
X137500D01*
X120000Y-47500D02*
X122500Y-50000D01*
X97500D02*
X100000Y-47500D01*
X67500Y-50000D02*
X70000Y-47500D01*
X62500Y-50000D02*
X67500D01*
X50000Y-47500D02*
X52500Y-50000D01*
X42500D02*
X47500D01*
X10000Y-42500D02*
X12500Y-40000D01*
X10000Y-47500D02*
X12500Y-50000D01*
X0Y-47500D02*
X2500Y-50000D01*
X0Y-47500D02*
Y-42500D01*
X140000D02*
X142500Y-40000D01*
X137500Y-50000D02*
X140000Y-47500D01*
X122500Y-50000D02*
X127500D01*
X112500D02*
X117500D01*
X80000Y-42500D02*
X82500Y-40000D01*
X110000Y-47500D02*
X112500Y-50000D01*
X70000Y-42500D02*
X72500Y-40000D01*
X57500Y-50000D02*
X60000Y-47500D01*
X52500Y-50000D02*
X57500D01*
X12500Y-40000D02*
X17500D01*
X12500Y-50000D02*
X17500D01*
X2500D02*
X7500D01*
D69*
X149301Y16765D02*
Y17831D01*
Y17298D01*
X151967D01*
X152500Y17831D01*
Y18364D01*
X151967Y18898D01*
X149301Y15699D02*
X152500D01*
Y13566D01*
X149834Y10367D02*
X149301Y10900D01*
Y11966D01*
X149834Y12500D01*
X151967D01*
X152500Y11966D01*
Y10900D01*
X151967Y10367D01*
X149301Y7168D02*
Y8234D01*
Y7701D01*
X151967D01*
X152500Y8234D01*
Y8768D01*
X151967Y9301D01*
X149301Y6102D02*
X152500D01*
Y3969D01*
X149834Y770D02*
X149301Y1303D01*
Y2370D01*
X149834Y2903D01*
X151967D01*
X152500Y2370D01*
Y1303D01*
X151967Y770D01*
X149301Y-2429D02*
Y-1362D01*
Y-1896D01*
X151967D01*
X152500Y-1362D01*
Y-829D01*
X151967Y-296D01*
X149301Y-3495D02*
X152500D01*
Y-5628D01*
X149834Y-8827D02*
X149301Y-8294D01*
Y-7227D01*
X149834Y-6694D01*
X151967D01*
X152500Y-7227D01*
Y-8294D01*
X151967Y-8827D01*
X149301Y-12026D02*
Y-10959D01*
Y-11493D01*
X151967D01*
X152500Y-10959D01*
Y-10426D01*
X151967Y-9893D01*
X149301Y-13092D02*
X152500D01*
Y-15225D01*
X149834Y-18424D02*
X149301Y-17890D01*
Y-16824D01*
X149834Y-16291D01*
X151967D01*
X152500Y-16824D01*
Y-17890D01*
X151967Y-18424D01*
M02*
