G04*
G04 #@! TF.GenerationSoftware,Altium Limited,Altium Designer,19.1.5 (86)*
G04*
G04 Layer_Physical_Order=2*
G04 Layer_Color=16711680*
%FSLAX25Y25*%
%MOIN*%
G70*
G01*
G75*
%ADD11C,0.00500*%
%ADD15C,0.01000*%
%ADD68C,0.03000*%
%ADD69C,0.00600*%
%ADD70C,0.02500*%
%ADD74C,0.02362*%
%ADD77C,0.07400*%
%ADD78O,0.06299X0.03937*%
%ADD79O,0.08268X0.03937*%
%ADD80C,0.02559*%
%ADD81C,0.01968*%
G36*
X153796Y47001D02*
Y-47001D01*
X152001Y-48796D01*
X148507D01*
X148395Y-48296D01*
X149105Y-47370D01*
X149579Y-46227D01*
X149675Y-45500D01*
X145000D01*
X140325D01*
X140421Y-46227D01*
X140895Y-47370D01*
X141605Y-48296D01*
X141493Y-48796D01*
X138223D01*
X138062Y-48322D01*
X138209Y-48209D01*
X138931Y-47269D01*
X139384Y-46175D01*
X139539Y-45000D01*
X139384Y-43825D01*
X138931Y-42731D01*
X138209Y-41791D01*
X137269Y-41069D01*
X136175Y-40616D01*
X135000Y-40461D01*
X133825Y-40616D01*
X132731Y-41069D01*
X131791Y-41791D01*
X131069Y-42731D01*
X130616Y-43825D01*
X130461Y-45000D01*
X130616Y-46175D01*
X131069Y-47269D01*
X131791Y-48209D01*
X131938Y-48322D01*
X131777Y-48796D01*
X128223D01*
X128062Y-48322D01*
X128209Y-48209D01*
X128931Y-47269D01*
X129384Y-46175D01*
X129539Y-45000D01*
X129384Y-43825D01*
X128931Y-42731D01*
X128209Y-41791D01*
X127269Y-41069D01*
X126175Y-40616D01*
X125000Y-40461D01*
X123825Y-40616D01*
X122731Y-41069D01*
X121791Y-41791D01*
X121069Y-42731D01*
X120616Y-43825D01*
X120461Y-45000D01*
X120616Y-46175D01*
X121069Y-47269D01*
X121791Y-48209D01*
X121938Y-48322D01*
X121777Y-48796D01*
X118507D01*
X118395Y-48296D01*
X119105Y-47370D01*
X119579Y-46227D01*
X119675Y-45500D01*
X115000D01*
X110325D01*
X110421Y-46227D01*
X110895Y-47370D01*
X111605Y-48296D01*
X111493Y-48796D01*
X108223D01*
X108062Y-48322D01*
X108209Y-48209D01*
X108931Y-47269D01*
X109384Y-46175D01*
X109539Y-45000D01*
X109384Y-43825D01*
X108931Y-42731D01*
X108867Y-42647D01*
X110757Y-40757D01*
X110989Y-40410D01*
X111071Y-40000D01*
X111071Y-40000D01*
Y-29500D01*
X110989Y-29090D01*
X110757Y-28743D01*
X110757Y-28743D01*
X106757Y-24743D01*
X106410Y-24511D01*
X106000Y-24429D01*
X72431D01*
X72286Y-24214D01*
X71696Y-23819D01*
X71000Y-23681D01*
X70304Y-23819D01*
X69714Y-24214D01*
X69319Y-24804D01*
X69181Y-25500D01*
X69319Y-26196D01*
X69714Y-26786D01*
X70304Y-27181D01*
X71000Y-27319D01*
X71696Y-27181D01*
X72286Y-26786D01*
X72431Y-26571D01*
X105556D01*
X108929Y-29943D01*
Y-34776D01*
X108429Y-34928D01*
X108286Y-34714D01*
X107696Y-34319D01*
X107282Y-34237D01*
X106939Y-34061D01*
X106763Y-33718D01*
X106681Y-33304D01*
X106286Y-32714D01*
X105696Y-32319D01*
X105282Y-32237D01*
X104939Y-32061D01*
X104763Y-31718D01*
X104681Y-31304D01*
X104286Y-30714D01*
X103696Y-30319D01*
X103282Y-30237D01*
X102939Y-30061D01*
X102763Y-29718D01*
X102681Y-29304D01*
X102286Y-28714D01*
X101696Y-28319D01*
X101000Y-28181D01*
X100304Y-28319D01*
X99714Y-28714D01*
X99319Y-29304D01*
X99181Y-30000D01*
X99231Y-30255D01*
X96057Y-33429D01*
X63000D01*
X62590Y-33511D01*
X62243Y-33743D01*
X61057Y-34929D01*
X54000D01*
X53590Y-35011D01*
X53243Y-35243D01*
X47353Y-41133D01*
X47269Y-41069D01*
X46175Y-40616D01*
X45000Y-40461D01*
X43825Y-40616D01*
X42731Y-41069D01*
X41791Y-41791D01*
X41069Y-42731D01*
X40616Y-43825D01*
X40461Y-45000D01*
X40616Y-46175D01*
X41069Y-47269D01*
X41791Y-48209D01*
X41938Y-48322D01*
X41777Y-48796D01*
X38507D01*
X38395Y-48296D01*
X39105Y-47370D01*
X39579Y-46227D01*
X39675Y-45500D01*
X35000D01*
X30325D01*
X30421Y-46227D01*
X30895Y-47370D01*
X31605Y-48296D01*
X31493Y-48796D01*
X28223D01*
X28062Y-48322D01*
X28209Y-48209D01*
X28931Y-47269D01*
X29384Y-46175D01*
X29539Y-45000D01*
X29384Y-43825D01*
X28931Y-42731D01*
X28209Y-41791D01*
X27269Y-41069D01*
X26175Y-40616D01*
X25000Y-40461D01*
X23825Y-40616D01*
X22731Y-41069D01*
X22688Y-41102D01*
X21822Y-40235D01*
Y-38745D01*
X24045Y-36522D01*
X39600D01*
X39600Y-36522D01*
X40029Y-36436D01*
X40393Y-36193D01*
X48615Y-27971D01*
X49113Y-28020D01*
X49214Y-28171D01*
X49804Y-28565D01*
X50500Y-28703D01*
X51196Y-28565D01*
X51786Y-28171D01*
X52181Y-27580D01*
X52232Y-27322D01*
X64300D01*
X64300Y-27322D01*
X64729Y-27236D01*
X65093Y-26993D01*
X69465Y-22622D01*
X83980D01*
X83980Y-22622D01*
X84409Y-22536D01*
X84773Y-22293D01*
X90944Y-16122D01*
X118858D01*
X119593Y-16856D01*
X119605Y-16897D01*
X119502Y-17472D01*
X119140Y-17714D01*
X118746Y-18304D01*
X118608Y-19000D01*
X118746Y-19696D01*
X119140Y-20286D01*
X119731Y-20681D01*
X120427Y-20819D01*
X121123Y-20681D01*
X121713Y-20286D01*
X121909D01*
X122499Y-20681D01*
X123195Y-20819D01*
X123891Y-20681D01*
X124482Y-20286D01*
X124876Y-19696D01*
X125014Y-19000D01*
X124876Y-18304D01*
X124482Y-17714D01*
X123891Y-17319D01*
X123633Y-17268D01*
Y-16208D01*
X123547Y-15779D01*
X123304Y-15415D01*
X123304Y-15415D01*
X120696Y-12807D01*
X120332Y-12564D01*
X119903Y-12478D01*
X119903Y-12478D01*
X89900D01*
X89900Y-12478D01*
X89471Y-12564D01*
X89107Y-12807D01*
X89107Y-12807D01*
X82935Y-18979D01*
X68420D01*
X67991Y-19064D01*
X67627Y-19307D01*
X67627Y-19307D01*
X63256Y-23678D01*
X52232D01*
X52181Y-23420D01*
X51786Y-22829D01*
X51196Y-22435D01*
X50500Y-22297D01*
X49804Y-22435D01*
X49214Y-22829D01*
X48819Y-23420D01*
X48768Y-23678D01*
X48220D01*
X47791Y-23764D01*
X47427Y-24007D01*
X47427Y-24007D01*
X38555Y-32878D01*
X23000D01*
X23000Y-32878D01*
X22571Y-32964D01*
X22207Y-33207D01*
X18507Y-36907D01*
X18264Y-37271D01*
X18178Y-37700D01*
X18179Y-37700D01*
Y-40235D01*
X17312Y-41102D01*
X17269Y-41069D01*
X16175Y-40616D01*
X15000Y-40461D01*
X13825Y-40616D01*
X12731Y-41069D01*
X11791Y-41791D01*
X11069Y-42731D01*
X10616Y-43825D01*
X10461Y-45000D01*
X10616Y-46175D01*
X11069Y-47269D01*
X11791Y-48209D01*
X11938Y-48322D01*
X11777Y-48796D01*
X8507D01*
X8395Y-48296D01*
X9105Y-47370D01*
X9579Y-46227D01*
X9675Y-45500D01*
X5000D01*
Y-45000D01*
X4500D01*
Y-40325D01*
X3773Y-40421D01*
X2630Y-40894D01*
X1704Y-41605D01*
X1204Y-41493D01*
Y41493D01*
X1704Y41605D01*
X2630Y40894D01*
X3773Y40421D01*
X4500Y40325D01*
Y45000D01*
X5000D01*
Y45500D01*
X9675D01*
X9579Y46227D01*
X9105Y47370D01*
X8395Y48296D01*
X8507Y48796D01*
X11777D01*
X11938Y48322D01*
X11791Y48209D01*
X11069Y47269D01*
X10616Y46175D01*
X10461Y45000D01*
X10616Y43825D01*
X11069Y42731D01*
X11791Y41791D01*
X12731Y41069D01*
X13825Y40616D01*
X15000Y40461D01*
X16175Y40616D01*
X17269Y41069D01*
X18209Y41791D01*
X18931Y42731D01*
X19384Y43825D01*
X19539Y45000D01*
X19384Y46175D01*
X18931Y47269D01*
X18209Y48209D01*
X18062Y48322D01*
X18223Y48796D01*
X21777D01*
X21938Y48322D01*
X21791Y48209D01*
X21069Y47269D01*
X20616Y46175D01*
X20461Y45000D01*
X20616Y43825D01*
X21069Y42731D01*
X21791Y41791D01*
X22731Y41069D01*
X23825Y40616D01*
X25000Y40461D01*
X26175Y40616D01*
X27269Y41069D01*
X28209Y41791D01*
X28931Y42731D01*
X29384Y43825D01*
X29539Y45000D01*
X29384Y46175D01*
X28931Y47269D01*
X28209Y48209D01*
X28062Y48322D01*
X28223Y48796D01*
X31493D01*
X31605Y48296D01*
X30895Y47370D01*
X30421Y46227D01*
X30325Y45500D01*
X35000D01*
X39675D01*
X39579Y46227D01*
X39105Y47370D01*
X38395Y48296D01*
X38507Y48796D01*
X41777D01*
X41938Y48322D01*
X41791Y48209D01*
X41069Y47269D01*
X40616Y46175D01*
X40461Y45000D01*
X40616Y43825D01*
X41069Y42731D01*
X41791Y41791D01*
X42731Y41069D01*
X43825Y40616D01*
X45000Y40461D01*
X46175Y40616D01*
X47269Y41069D01*
X47353Y41133D01*
X51743Y36743D01*
X52090Y36511D01*
X52500Y36429D01*
X67057D01*
X73243Y30243D01*
X73590Y30011D01*
X74000Y29929D01*
X74000Y29929D01*
X104057D01*
X104731Y29255D01*
X104681Y29000D01*
X104819Y28304D01*
X105214Y27714D01*
X105804Y27319D01*
X106500Y27181D01*
X107196Y27319D01*
X107786Y27714D01*
X108181Y28304D01*
X108245Y28627D01*
X108755D01*
X108819Y28304D01*
X109214Y27714D01*
X109804Y27319D01*
X110500Y27181D01*
X111196Y27319D01*
X111786Y27714D01*
X112181Y28304D01*
X112319Y29000D01*
X112181Y29696D01*
X111786Y30286D01*
X111571Y30431D01*
Y32000D01*
X111571Y32000D01*
X111489Y32410D01*
X111257Y32757D01*
X109257Y34757D01*
X108910Y34989D01*
X108500Y35071D01*
X76443D01*
X68867Y42647D01*
X68931Y42731D01*
X69384Y43825D01*
X69539Y45000D01*
X69384Y46175D01*
X68931Y47269D01*
X68209Y48209D01*
X68062Y48322D01*
X68223Y48796D01*
X71493D01*
X71605Y48296D01*
X70895Y47370D01*
X70421Y46227D01*
X70325Y45500D01*
X75000D01*
X79675D01*
X79579Y46227D01*
X79105Y47370D01*
X78395Y48296D01*
X78507Y48796D01*
X81777D01*
X81938Y48322D01*
X81791Y48209D01*
X81069Y47269D01*
X80616Y46175D01*
X80461Y45000D01*
X80616Y43825D01*
X81069Y42731D01*
X81791Y41791D01*
X82731Y41069D01*
X83825Y40616D01*
X85000Y40461D01*
X86175Y40616D01*
X87269Y41069D01*
X88209Y41791D01*
X88931Y42731D01*
X89384Y43825D01*
X89539Y45000D01*
X89384Y46175D01*
X88931Y47269D01*
X88209Y48209D01*
X88062Y48322D01*
X88223Y48796D01*
X91493D01*
X91605Y48296D01*
X90895Y47370D01*
X90421Y46227D01*
X90325Y45500D01*
X95000D01*
X99675D01*
X99579Y46227D01*
X99105Y47370D01*
X98395Y48296D01*
X98507Y48796D01*
X101777D01*
X101938Y48322D01*
X101791Y48209D01*
X101069Y47269D01*
X100616Y46175D01*
X100461Y45000D01*
X100616Y43825D01*
X101069Y42731D01*
X101791Y41791D01*
X102731Y41069D01*
X103825Y40616D01*
X105000Y40461D01*
X106175Y40616D01*
X107269Y41069D01*
X108209Y41791D01*
X108931Y42731D01*
X109384Y43825D01*
X109539Y45000D01*
X109384Y46175D01*
X108931Y47269D01*
X108209Y48209D01*
X108062Y48322D01*
X108223Y48796D01*
X111777D01*
X111938Y48322D01*
X111791Y48209D01*
X111069Y47269D01*
X110616Y46175D01*
X110461Y45000D01*
X110616Y43825D01*
X111069Y42731D01*
X111791Y41791D01*
X112731Y41069D01*
X113825Y40616D01*
X115000Y40461D01*
X116175Y40616D01*
X117269Y41069D01*
X118209Y41791D01*
X118931Y42731D01*
X119384Y43825D01*
X119539Y45000D01*
X119384Y46175D01*
X118931Y47269D01*
X118209Y48209D01*
X118062Y48322D01*
X118223Y48796D01*
X121777D01*
X121938Y48322D01*
X121791Y48209D01*
X121069Y47269D01*
X120616Y46175D01*
X120461Y45000D01*
X120616Y43825D01*
X121069Y42731D01*
X121791Y41791D01*
X122731Y41069D01*
X123825Y40616D01*
X125000Y40461D01*
X126175Y40616D01*
X127269Y41069D01*
X128209Y41791D01*
X128931Y42731D01*
X129384Y43825D01*
X129539Y45000D01*
X129384Y46175D01*
X128931Y47269D01*
X128209Y48209D01*
X128062Y48322D01*
X128223Y48796D01*
X131777D01*
X131938Y48322D01*
X131791Y48209D01*
X131069Y47269D01*
X130616Y46175D01*
X130461Y45000D01*
X130616Y43825D01*
X131069Y42731D01*
X131791Y41791D01*
X132655Y41127D01*
Y39500D01*
X132833Y38603D01*
X133342Y37842D01*
X139938Y31245D01*
Y19228D01*
Y17255D01*
X139529Y16845D01*
X111471D01*
X106345Y21971D01*
Y24000D01*
X106167Y24897D01*
X105658Y25658D01*
X104897Y26167D01*
X104000Y26345D01*
X103103Y26167D01*
X102342Y25658D01*
X101833Y24897D01*
X101655Y24000D01*
Y21000D01*
X101833Y20103D01*
X102342Y19342D01*
X108842Y12842D01*
X109603Y12333D01*
X110500Y12155D01*
X140500D01*
X141397Y12333D01*
X142158Y12842D01*
X143942Y14625D01*
X144450Y15386D01*
X144629Y16284D01*
Y19228D01*
Y32217D01*
X144450Y33114D01*
X143942Y33875D01*
X137345Y40471D01*
Y41127D01*
X138209Y41791D01*
X138931Y42731D01*
X139384Y43825D01*
X139539Y45000D01*
X139384Y46175D01*
X138931Y47269D01*
X138209Y48209D01*
X138062Y48322D01*
X138223Y48796D01*
X141493D01*
X141605Y48296D01*
X140895Y47370D01*
X140421Y46227D01*
X140325Y45500D01*
X145000D01*
X149675D01*
X149579Y46227D01*
X149105Y47370D01*
X148395Y48296D01*
X148507Y48796D01*
X152001D01*
X153796Y47001D01*
D02*
G37*
%LPC*%
G36*
X99675Y44500D02*
X95500D01*
Y40325D01*
X96227Y40421D01*
X97370Y40894D01*
X98352Y41648D01*
X99105Y42630D01*
X99579Y43773D01*
X99675Y44500D01*
D02*
G37*
G36*
X79675D02*
X75500D01*
Y40325D01*
X76227Y40421D01*
X77370Y40894D01*
X78352Y41648D01*
X79105Y42630D01*
X79579Y43773D01*
X79675Y44500D01*
D02*
G37*
G36*
X39675D02*
X35500D01*
Y40325D01*
X36227Y40421D01*
X37370Y40894D01*
X38352Y41648D01*
X39105Y42630D01*
X39579Y43773D01*
X39675Y44500D01*
D02*
G37*
G36*
X9675D02*
X5500D01*
Y40325D01*
X6227Y40421D01*
X7370Y40894D01*
X8352Y41648D01*
X9105Y42630D01*
X9579Y43773D01*
X9675Y44500D01*
D02*
G37*
G36*
X149675D02*
X145500D01*
Y40325D01*
X146227Y40421D01*
X147370Y40894D01*
X148352Y41648D01*
X149105Y42630D01*
X149579Y43773D01*
X149675Y44500D01*
D02*
G37*
G36*
X144500D02*
X140325D01*
X140421Y43773D01*
X140895Y42630D01*
X141648Y41648D01*
X142630Y40894D01*
X143773Y40421D01*
X144500Y40325D01*
Y44500D01*
D02*
G37*
G36*
X94500D02*
X90325D01*
X90421Y43773D01*
X90895Y42630D01*
X91648Y41648D01*
X92630Y40894D01*
X93773Y40421D01*
X94500Y40325D01*
Y44500D01*
D02*
G37*
G36*
X74500D02*
X70325D01*
X70421Y43773D01*
X70895Y42630D01*
X71648Y41648D01*
X72630Y40894D01*
X73773Y40421D01*
X74500Y40325D01*
Y44500D01*
D02*
G37*
G36*
X34500D02*
X30325D01*
X30421Y43773D01*
X30895Y42630D01*
X31648Y41648D01*
X32630Y40894D01*
X33773Y40421D01*
X34500Y40325D01*
Y44500D01*
D02*
G37*
G36*
X46500Y39325D02*
X37184D01*
X36677Y39225D01*
X36247Y38937D01*
X34563Y37253D01*
X34275Y36823D01*
X34174Y36316D01*
Y27000D01*
X34275Y26493D01*
X34563Y26063D01*
X40674Y19951D01*
Y13228D01*
X40319Y12696D01*
X40181Y12000D01*
X40319Y11304D01*
X40714Y10714D01*
X41304Y10319D01*
X42000Y10181D01*
X42696Y10319D01*
X43286Y10714D01*
X43681Y11304D01*
X43819Y12000D01*
X43681Y12696D01*
X43325Y13228D01*
Y20500D01*
X43225Y21007D01*
X42937Y21437D01*
X36825Y27549D01*
Y35767D01*
X37733Y36674D01*
X45951D01*
X51063Y31563D01*
X51493Y31275D01*
X52000Y31174D01*
X62272D01*
X62804Y30819D01*
X63500Y30681D01*
X64196Y30819D01*
X64786Y31214D01*
X65181Y31804D01*
X65319Y32500D01*
X65181Y33196D01*
X64786Y33786D01*
X64196Y34181D01*
X63500Y34319D01*
X62804Y34181D01*
X62272Y33825D01*
X52549D01*
X47437Y38937D01*
X47007Y39225D01*
X46500Y39325D01*
D02*
G37*
G36*
X43000Y35590D02*
X43000Y35590D01*
X40000D01*
X39200Y35431D01*
X38522Y34978D01*
X38069Y34300D01*
X37910Y33500D01*
X38069Y32700D01*
X38522Y32022D01*
X39200Y31569D01*
X40000Y31410D01*
X42134D01*
X51022Y22522D01*
X51700Y22069D01*
X52500Y21910D01*
X52500Y21910D01*
X76634D01*
X78522Y20022D01*
X78522Y20022D01*
X79200Y19569D01*
X80000Y19410D01*
X83000D01*
X83800Y19569D01*
X84478Y20022D01*
X84931Y20700D01*
X85090Y21500D01*
X84931Y22300D01*
X84478Y22978D01*
X83800Y23431D01*
X83000Y23590D01*
X80866D01*
X78978Y25478D01*
X78300Y25931D01*
X77500Y26090D01*
X77500Y26090D01*
X53366D01*
X44478Y34978D01*
X43800Y35431D01*
X43000Y35590D01*
D02*
G37*
G36*
X98500Y22819D02*
X97804Y22681D01*
X97214Y22286D01*
X96819Y21696D01*
X96694Y21069D01*
X92951Y17325D01*
X78549D01*
X77806Y18069D01*
X77681Y18696D01*
X77286Y19286D01*
X76696Y19681D01*
X76000Y19819D01*
X75304Y19681D01*
X74714Y19286D01*
X74319Y18696D01*
X74181Y18000D01*
X74319Y17304D01*
X74714Y16714D01*
X75304Y16319D01*
X75931Y16195D01*
X77063Y15063D01*
X77493Y14775D01*
X78000Y14674D01*
X93500D01*
X94007Y14775D01*
X94437Y15063D01*
X98569Y19195D01*
X99196Y19319D01*
X99786Y19714D01*
X100181Y20304D01*
X100319Y21000D01*
X100181Y21696D01*
X99786Y22286D01*
X99196Y22681D01*
X98500Y22819D01*
D02*
G37*
G36*
X28858Y19800D02*
X24528D01*
X23805Y19705D01*
X23131Y19426D01*
X22553Y18982D01*
X22109Y18404D01*
X21830Y17731D01*
X21735Y17008D01*
X21830Y16285D01*
X22109Y15612D01*
X22553Y15033D01*
X23131Y14590D01*
X23805Y14311D01*
X24528Y14216D01*
X28858D01*
X29581Y14311D01*
X30255Y14590D01*
X30833Y15033D01*
X31277Y15612D01*
X31556Y16285D01*
X31651Y17008D01*
X31556Y17731D01*
X31277Y18404D01*
X30833Y18982D01*
X30255Y19426D01*
X29581Y19705D01*
X28858Y19800D01*
D02*
G37*
G36*
X11417D02*
X9055D01*
X8332Y19705D01*
X7659Y19426D01*
X7081Y18982D01*
X6637Y18404D01*
X6358Y17731D01*
X6263Y17008D01*
X6358Y16285D01*
X6637Y15612D01*
X7081Y15033D01*
X7659Y14590D01*
X8332Y14311D01*
X9055Y14216D01*
X11417D01*
X12140Y14311D01*
X12813Y14590D01*
X13392Y15033D01*
X13836Y15612D01*
X14115Y16285D01*
X14210Y17008D01*
X14115Y17731D01*
X13836Y18404D01*
X13392Y18982D01*
X12813Y19426D01*
X12140Y19705D01*
X11417Y19800D01*
D02*
G37*
G36*
X66000Y7622D02*
X66000Y7622D01*
X57288D01*
X57287Y7622D01*
X56858Y7536D01*
X56494Y7293D01*
X56494Y7293D01*
X51128Y1927D01*
X50602Y2012D01*
X50588Y2080D01*
X50194Y2671D01*
X49603Y3065D01*
X48907Y3204D01*
X48211Y3065D01*
X47621Y2671D01*
X47226Y2080D01*
X47088Y1384D01*
X47226Y688D01*
X47621Y98D01*
Y-98D01*
X47226Y-688D01*
X47088Y-1384D01*
X47226Y-2080D01*
X47621Y-2671D01*
X48211Y-3065D01*
X48907Y-3204D01*
X49603Y-3065D01*
X50194Y-2671D01*
X50588Y-2080D01*
X50639Y-1822D01*
X52067D01*
X52067Y-1822D01*
X52496Y-1736D01*
X52860Y-1493D01*
X58332Y3979D01*
X64956D01*
X68727Y207D01*
X68727Y207D01*
X69091Y-36D01*
X69520Y-122D01*
X69520Y-122D01*
X79000D01*
X79000Y-122D01*
X79429Y-36D01*
X79793Y207D01*
X81193Y1607D01*
X81193Y1607D01*
X81436Y1971D01*
X81522Y2400D01*
X81522Y2400D01*
Y3260D01*
X81780Y3311D01*
X82371Y3706D01*
X82765Y4296D01*
X82903Y4992D01*
X82765Y5688D01*
X82371Y6278D01*
X81780Y6673D01*
X81084Y6811D01*
X80388Y6673D01*
X79798Y6278D01*
X79602D01*
X79012Y6673D01*
X78316Y6811D01*
X77620Y6673D01*
X77029Y6278D01*
X76635Y5688D01*
X76496Y4992D01*
X76635Y4296D01*
X76818Y4022D01*
X76551Y3522D01*
X70565D01*
X66793Y7293D01*
X66429Y7536D01*
X66000Y7622D01*
D02*
G37*
G36*
X118500Y8319D02*
X117804Y8181D01*
X117214Y7786D01*
X116819Y7196D01*
X116681Y6500D01*
X116731Y6245D01*
X114557Y4071D01*
X88500D01*
X88090Y3989D01*
X87743Y3757D01*
X87743Y3757D01*
X81755Y-2231D01*
X81500Y-2181D01*
X80804Y-2319D01*
X80214Y-2714D01*
X79819Y-3304D01*
X79681Y-4000D01*
X79819Y-4696D01*
X80214Y-5286D01*
X80804Y-5681D01*
X81500Y-5819D01*
X82196Y-5681D01*
X82786Y-5286D01*
X83181Y-4696D01*
X83319Y-4000D01*
X83269Y-3745D01*
X88943Y1929D01*
X115000D01*
X115410Y2011D01*
X115757Y2243D01*
X118245Y4731D01*
X118500Y4681D01*
X119196Y4819D01*
X119786Y5214D01*
X120181Y5804D01*
X120319Y6500D01*
X120181Y7196D01*
X119786Y7786D01*
X119196Y8181D01*
X118500Y8319D01*
D02*
G37*
G36*
X75197Y-4874D02*
X74501Y-5012D01*
X73969Y-5367D01*
X53307D01*
X52800Y-5468D01*
X52370Y-5756D01*
X51931Y-6194D01*
X51304Y-6319D01*
X50714Y-6714D01*
X50319Y-7304D01*
X50181Y-8000D01*
X50319Y-8696D01*
X50714Y-9286D01*
X51304Y-9681D01*
X52000Y-9819D01*
X52696Y-9681D01*
X53286Y-9286D01*
X53681Y-8696D01*
X53806Y-8069D01*
X53856Y-8018D01*
X73969D01*
X74501Y-8374D01*
X75197Y-8512D01*
X75893Y-8374D01*
X76483Y-7979D01*
X76878Y-7389D01*
X77016Y-6693D01*
X76878Y-5997D01*
X76483Y-5407D01*
X75893Y-5012D01*
X75197Y-4874D01*
D02*
G37*
G36*
X121000Y-5878D02*
X121000Y-5878D01*
X87594D01*
X87165Y-5964D01*
X86801Y-6207D01*
X86801Y-6207D01*
X81630Y-11378D01*
X81213D01*
X80819Y-11000D01*
X80681Y-10304D01*
X80286Y-9714D01*
X79696Y-9319D01*
X79000Y-9181D01*
X78304Y-9319D01*
X77714Y-9714D01*
X77319Y-10304D01*
X77181Y-11000D01*
X77319Y-11696D01*
X77714Y-12286D01*
X78304Y-12681D01*
X79000Y-12819D01*
X79194Y-12780D01*
X79664Y-13250D01*
X79194Y-13720D01*
X79000Y-13681D01*
X78304Y-13819D01*
X77714Y-14214D01*
X77319Y-14804D01*
X77181Y-15500D01*
X77319Y-16196D01*
X77714Y-16786D01*
X78304Y-17181D01*
X79000Y-17319D01*
X79696Y-17181D01*
X80286Y-16786D01*
X80681Y-16196D01*
X80819Y-15500D01*
X81213Y-15122D01*
X82594D01*
X82594Y-15122D01*
X83023Y-15036D01*
X83387Y-14793D01*
X88559Y-9622D01*
X120035D01*
X130207Y-19793D01*
X130207Y-19793D01*
X130571Y-20036D01*
X131000Y-20121D01*
X134604D01*
X134714Y-20286D01*
X135304Y-20681D01*
X136000Y-20819D01*
X136696Y-20681D01*
X137286Y-20286D01*
X137681Y-19696D01*
X137819Y-19000D01*
X137681Y-18304D01*
X137286Y-17714D01*
X136696Y-17319D01*
X136000Y-17181D01*
X135304Y-17319D01*
X135254Y-17352D01*
X134804Y-17052D01*
X134819Y-16977D01*
X134681Y-16281D01*
X134286Y-15690D01*
X133696Y-15296D01*
X133000Y-15158D01*
X132304Y-15296D01*
X131714Y-15690D01*
X131184Y-15598D01*
X121793Y-6207D01*
X121429Y-5964D01*
X121000Y-5878D01*
D02*
G37*
G36*
X16000Y25819D02*
X15304Y25681D01*
X14714Y25286D01*
X14319Y24696D01*
X14181Y24000D01*
X14319Y23304D01*
X14714Y22714D01*
X14929Y22569D01*
Y-11669D01*
X15011Y-12079D01*
X15243Y-12426D01*
X17305Y-14488D01*
X17251Y-14765D01*
X17119Y-14988D01*
X13333D01*
X12813Y-14590D01*
X12140Y-14311D01*
X11417Y-14216D01*
X9055D01*
X8332Y-14311D01*
X7659Y-14590D01*
X7081Y-15033D01*
X6637Y-15612D01*
X6358Y-16285D01*
X6263Y-17008D01*
X6358Y-17731D01*
X6637Y-18404D01*
X7081Y-18982D01*
X7659Y-19426D01*
X8332Y-19705D01*
X9055Y-19800D01*
X11417D01*
X12140Y-19705D01*
X12813Y-19426D01*
X13333Y-19028D01*
X22612D01*
X23131Y-19426D01*
X23805Y-19705D01*
X24528Y-19800D01*
X28858D01*
X29581Y-19705D01*
X30255Y-19426D01*
X30833Y-18982D01*
X31277Y-18404D01*
X31556Y-17731D01*
X31608Y-17329D01*
X32136Y-17150D01*
X34743Y-19757D01*
X35090Y-19989D01*
X35500Y-20071D01*
X62069D01*
X62214Y-20286D01*
X62804Y-20681D01*
X63500Y-20819D01*
X64196Y-20681D01*
X64786Y-20286D01*
X65181Y-19696D01*
X65319Y-19000D01*
X65181Y-18304D01*
X64786Y-17714D01*
X64196Y-17319D01*
X63500Y-17181D01*
X62804Y-17319D01*
X62214Y-17714D01*
X62069Y-17929D01*
X35943D01*
X31057Y-13043D01*
X30710Y-12811D01*
X30300Y-12729D01*
X26735D01*
X26499Y-12289D01*
X26565Y-12189D01*
X26727Y-11378D01*
X26565Y-10567D01*
X26357Y-10255D01*
X26349Y-10171D01*
X26527Y-9610D01*
X26577Y-9577D01*
X26577Y-9577D01*
X27077Y-9077D01*
X27253Y-8812D01*
X27316Y-8500D01*
X27316Y-8500D01*
X27316Y-6518D01*
X27319Y-6500D01*
X27316Y-6482D01*
X27316Y6482D01*
X27319Y6500D01*
X27316Y6518D01*
X27316Y8421D01*
X27316Y8421D01*
X27254Y8733D01*
X27077Y8998D01*
X26498Y9577D01*
X26492Y9581D01*
X26299Y10038D01*
X26344Y10235D01*
X26565Y10567D01*
X26727Y11378D01*
X26565Y12189D01*
X26106Y12877D01*
X25418Y13337D01*
X24606Y13498D01*
X23795Y13337D01*
X23107Y12877D01*
X22647Y12189D01*
X22486Y11378D01*
X22647Y10567D01*
X22815Y10316D01*
X22548Y9816D01*
X22500D01*
X22500Y9816D01*
X22188Y9754D01*
X21923Y9577D01*
X21923Y9577D01*
X21423Y9077D01*
X21247Y8812D01*
X21184Y8500D01*
X21184Y8500D01*
Y8018D01*
X21181Y8000D01*
X21184Y7982D01*
X21184Y5018D01*
X21181Y5000D01*
X21184Y4982D01*
X21184Y-4982D01*
X21181Y-5000D01*
X21184Y-5018D01*
X21184Y-7983D01*
X21181Y-8000D01*
X21184Y-8017D01*
Y-8500D01*
X21184Y-8500D01*
X21246Y-8812D01*
X21335Y-8945D01*
X21423Y-9077D01*
X21423Y-9077D01*
X21923Y-9577D01*
X21923Y-9577D01*
X22188Y-9754D01*
X22500Y-9816D01*
X22500Y-9816D01*
X22548D01*
X22815Y-10316D01*
X22647Y-10567D01*
X22486Y-11378D01*
X22647Y-12189D01*
X22714Y-12289D01*
X22478Y-12729D01*
X18574D01*
X17071Y-11226D01*
Y22569D01*
X17286Y22714D01*
X17681Y23304D01*
X17819Y24000D01*
X17681Y24696D01*
X17286Y25286D01*
X16696Y25681D01*
X16000Y25819D01*
D02*
G37*
G36*
X80500Y-28181D02*
X79804Y-28319D01*
X79214Y-28714D01*
X79069Y-28929D01*
X57000D01*
X56590Y-29011D01*
X56243Y-29243D01*
X55755Y-29731D01*
X55500Y-29681D01*
X54804Y-29819D01*
X54214Y-30214D01*
X53819Y-30804D01*
X53681Y-31500D01*
X53819Y-32196D01*
X54214Y-32786D01*
X54804Y-33181D01*
X55500Y-33319D01*
X56196Y-33181D01*
X56786Y-32786D01*
X57181Y-32196D01*
X57319Y-31500D01*
X57707Y-31071D01*
X79069D01*
X79214Y-31286D01*
X79804Y-31681D01*
X80500Y-31819D01*
X81196Y-31681D01*
X81786Y-31286D01*
X82181Y-30696D01*
X82319Y-30000D01*
X82181Y-29304D01*
X81786Y-28714D01*
X81196Y-28319D01*
X80500Y-28181D01*
D02*
G37*
G36*
X145500Y-40325D02*
Y-44500D01*
X149675D01*
X149579Y-43773D01*
X149105Y-42630D01*
X148352Y-41648D01*
X147370Y-40894D01*
X146227Y-40421D01*
X145500Y-40325D01*
D02*
G37*
G36*
X115500D02*
Y-44500D01*
X119675D01*
X119579Y-43773D01*
X119105Y-42630D01*
X118352Y-41648D01*
X117370Y-40894D01*
X116227Y-40421D01*
X115500Y-40325D01*
D02*
G37*
G36*
X35500D02*
Y-44500D01*
X39675D01*
X39579Y-43773D01*
X39105Y-42630D01*
X38352Y-41648D01*
X37370Y-40894D01*
X36227Y-40421D01*
X35500Y-40325D01*
D02*
G37*
G36*
X5500D02*
Y-44500D01*
X9675D01*
X9579Y-43773D01*
X9105Y-42630D01*
X8352Y-41648D01*
X7370Y-40894D01*
X6227Y-40421D01*
X5500Y-40325D01*
D02*
G37*
G36*
X114500D02*
X113773Y-40421D01*
X112630Y-40894D01*
X111648Y-41648D01*
X110895Y-42630D01*
X110421Y-43773D01*
X110325Y-44500D01*
X114500D01*
Y-40325D01*
D02*
G37*
G36*
X34500D02*
X33773Y-40421D01*
X32630Y-40894D01*
X31648Y-41648D01*
X30895Y-42630D01*
X30421Y-43773D01*
X30325Y-44500D01*
X34500D01*
Y-40325D01*
D02*
G37*
G36*
X144500D02*
X143773Y-40421D01*
X142630Y-40894D01*
X141648Y-41648D01*
X140895Y-42630D01*
X140421Y-43773D01*
X140325Y-44500D01*
X144500D01*
Y-40325D01*
D02*
G37*
%LPD*%
G36*
X26500Y8421D02*
X26500Y-8500D01*
X26000Y-9000D01*
X22500Y-9000D01*
X22000Y-8500D01*
X22000Y8500D01*
X22500Y9000D01*
X25921Y9000D01*
X26500Y8421D01*
D02*
G37*
D11*
X18131Y-13800D02*
X30300D01*
X16000Y-11669D02*
X18131Y-13800D01*
X16000Y-11669D02*
Y24000D01*
X115000Y3000D02*
X118500Y6500D01*
X88500Y3000D02*
X115000D01*
X81500Y-4000D02*
X88500Y3000D01*
X35500Y-19000D02*
X63500D01*
X30300Y-13800D02*
X35500Y-19000D01*
X104000Y-39000D02*
X107000Y-36000D01*
X99000D02*
X103000Y-32000D01*
X96500Y-34500D02*
X101000Y-30000D01*
X63000Y-34500D02*
X96500D01*
X64000Y-36000D02*
X99000D01*
X101500Y-37500D02*
X105000Y-34000D01*
X110500Y29000D02*
Y32000D01*
X108500Y34000D02*
X110500Y32000D01*
X76000Y34000D02*
X108500D01*
X104500Y31000D02*
X106500Y29000D01*
X74000Y31000D02*
X104500D01*
X67500Y37500D02*
X74000Y31000D01*
X107000Y32500D02*
X108500Y31000D01*
X75000Y32500D02*
X107000D01*
X57000Y-30000D02*
X80500D01*
X55500Y-31500D02*
X57000Y-30000D01*
X61500Y-36000D02*
X63000Y-34500D01*
X54000Y-36000D02*
X61500D01*
X45000Y-45000D02*
X54000Y-36000D01*
X55000Y-45000D02*
X64000Y-36000D01*
X81000Y-39000D02*
X104000D01*
X72500Y-37500D02*
X101500D01*
X110000Y-40000D02*
Y-29500D01*
X106000Y-25500D02*
X110000Y-29500D01*
X71000Y-25500D02*
X106000D01*
X105000Y-45000D02*
X110000Y-40000D01*
X65000Y-45000D02*
X72500Y-37500D01*
X55000Y45000D02*
X61000Y39000D01*
X68500D01*
X75000Y32500D01*
Y-45000D02*
X81000Y-39000D01*
X52500Y37500D02*
X67500D01*
X45000Y45000D02*
X52500Y37500D01*
X65000Y45000D02*
X76000Y34000D01*
D15*
X78000Y16000D02*
X93500D01*
X76000Y18000D02*
X78000Y16000D01*
X53307Y-6693D02*
X75197D01*
X52000Y-8000D02*
X53307Y-6693D01*
X93500Y16000D02*
X98500Y21000D01*
X42000Y12000D02*
Y20500D01*
X35500Y27000D02*
X42000Y20500D01*
X35500Y27000D02*
Y36316D01*
X37184Y38000D01*
X52000Y32500D02*
X63500D01*
X46500Y38000D02*
X52000Y32500D01*
X37184Y38000D02*
X46500D01*
D68*
X140500Y14500D02*
X142283Y16284D01*
X110500Y14500D02*
X140500D01*
X104000Y21000D02*
X110500Y14500D01*
X142283Y19228D02*
Y32217D01*
X135000Y39500D02*
X142283Y32217D01*
X135000Y39500D02*
Y45000D01*
X142283Y16284D02*
Y19228D01*
X104000Y21000D02*
Y24000D01*
D69*
X69520Y1000D02*
X79000D01*
X65420Y5100D02*
X69520Y1000D01*
X57867Y5100D02*
X65420D01*
X70100Y2400D02*
X78420D01*
X66000Y6500D02*
X70100Y2400D01*
X57287Y6500D02*
X66000D01*
X49943Y-700D02*
X52067D01*
X57867Y5100D01*
X51487Y700D02*
X57287Y6500D01*
X49943Y700D02*
X51487D01*
X79000Y2980D02*
Y3956D01*
X78420Y2400D02*
X79000Y2980D01*
Y1000D02*
X80400Y2400D01*
Y3956D01*
X78316Y4640D02*
X79000Y3956D01*
X78316Y4640D02*
Y4992D01*
X81084Y4640D02*
Y4992D01*
X80400Y3956D02*
X81084Y4640D01*
X49259Y-1384D02*
X49943Y-700D01*
X48907Y-1384D02*
X49259D01*
Y1384D02*
X49943Y700D01*
X48907Y1384D02*
X49259D01*
X119903Y-13600D02*
X122511Y-16208D01*
X89900Y-13600D02*
X119903D01*
X83400Y-20100D02*
X89900Y-13600D01*
X68420Y-20100D02*
X83400D01*
X63720Y-24800D02*
X68420Y-20100D01*
X51536Y-24800D02*
X63720D01*
X50852Y-24116D02*
X51536Y-24800D01*
X50148Y-24116D02*
X50500D01*
X50852D01*
X49464Y-24800D02*
X50148Y-24116D01*
X48220Y-24800D02*
X49464D01*
X39020Y-34000D02*
X48220Y-24800D01*
X23000Y-34000D02*
X39020D01*
X19300Y-37700D02*
X23000Y-34000D01*
X19300Y-40700D02*
Y-37700D01*
X15000Y-45000D02*
X19300Y-40700D01*
X121111Y-17964D02*
Y-16788D01*
X119323Y-15000D02*
X121111Y-16788D01*
X90480Y-15000D02*
X119323D01*
X83980Y-21500D02*
X90480Y-15000D01*
X69000Y-21500D02*
X83980D01*
X64300Y-26200D02*
X69000Y-21500D01*
X51536Y-26200D02*
X64300D01*
X50852Y-26884D02*
X51536Y-26200D01*
X50500Y-26884D02*
X50852D01*
X50148D02*
X50500D01*
X48800Y-26200D02*
X49464D01*
X50148Y-26884D01*
X39600Y-35400D02*
X48800Y-26200D01*
X23580Y-35400D02*
X39600D01*
X20700Y-38280D02*
X23580Y-35400D01*
X20700Y-40700D02*
Y-38280D01*
Y-40700D02*
X25000Y-45000D01*
X120427Y-19000D02*
Y-18649D01*
X121111Y-17964D01*
X123195Y-19000D02*
Y-18649D01*
X122511Y-17964D02*
X123195Y-18649D01*
X122511Y-17964D02*
Y-16208D01*
X80500Y-12500D02*
X82094D01*
X87594Y-7000D01*
X130977Y-16977D02*
X133000D01*
X121000Y-7000D02*
X130977Y-16977D01*
X87594Y-7000D02*
X121000D01*
X88094Y-8500D02*
X120500D01*
X82594Y-14000D02*
X88094Y-8500D01*
X80500Y-14000D02*
X82594D01*
X79000Y-15500D02*
X80500Y-14000D01*
X79000Y-11000D02*
X80500Y-12500D01*
X131000Y-19000D02*
X136000D01*
X120500Y-8500D02*
X131000Y-19000D01*
D70*
X52500Y24000D02*
X77500D01*
X43000Y33500D02*
X52500Y24000D01*
X40000Y33500D02*
X43000D01*
X77500Y24000D02*
X80000Y21500D01*
X83000D01*
D74*
X10236Y-17008D02*
X26693D01*
D77*
X145000Y45000D02*
D03*
X135000D02*
D03*
X125000D02*
D03*
X115000D02*
D03*
X105000D02*
D03*
X95000D02*
D03*
X85000D02*
D03*
X75000D02*
D03*
X65000D02*
D03*
X55000D02*
D03*
X45000D02*
D03*
X35000D02*
D03*
X25000D02*
D03*
X15000D02*
D03*
X5000D02*
D03*
X145000Y-45000D02*
D03*
X135000D02*
D03*
X125000D02*
D03*
X115000D02*
D03*
X105000D02*
D03*
X95000D02*
D03*
X85000D02*
D03*
X75000D02*
D03*
X65000D02*
D03*
X55000D02*
D03*
X45000D02*
D03*
X35000D02*
D03*
X25000D02*
D03*
X15000D02*
D03*
X5000D02*
D03*
D78*
X10236Y-17008D02*
D03*
Y17008D02*
D03*
D79*
X26693D02*
D03*
Y-17008D02*
D03*
D80*
X24606Y-11378D02*
D03*
Y11378D02*
D03*
D81*
X12000Y29000D02*
D03*
Y-29000D02*
D03*
X2500Y15000D02*
D03*
Y7500D02*
D03*
Y0D02*
D03*
Y-7500D02*
D03*
Y-15000D02*
D03*
X117000Y19000D02*
D03*
X148000Y18898D02*
D03*
Y15748D02*
D03*
Y12598D02*
D03*
Y9449D02*
D03*
Y6299D02*
D03*
Y3150D02*
D03*
Y-18898D02*
D03*
Y-15748D02*
D03*
Y-12598D02*
D03*
Y-9449D02*
D03*
Y-6299D02*
D03*
Y-3150D02*
D03*
Y0D02*
D03*
X128947Y0D02*
D03*
X132835Y-3888D02*
D03*
Y3888D02*
D03*
X136722Y-0D02*
D03*
X152500Y-36000D02*
D03*
X41500Y-38000D02*
D03*
X101000Y38000D02*
D03*
X87000Y36500D02*
D03*
X29000Y-38000D02*
D03*
X55500Y-1000D02*
D03*
X31500Y-31000D02*
D03*
X2500Y-29000D02*
D03*
Y29000D02*
D03*
X50000Y-36500D02*
D03*
X152500Y37000D02*
D03*
X146000Y27000D02*
D03*
Y33500D02*
D03*
X152500Y27000D02*
D03*
X138500D02*
D03*
X129500D02*
D03*
X133500Y31500D02*
D03*
X124000Y27000D02*
D03*
X113500D02*
D03*
X96000Y7000D02*
D03*
X106000D02*
D03*
X113000Y-33500D02*
D03*
Y-27000D02*
D03*
X152500D02*
D03*
X138500Y-36000D02*
D03*
Y-27000D02*
D03*
X130500Y-36000D02*
D03*
Y-27000D02*
D03*
X136723Y7776D02*
D03*
X140610Y3888D02*
D03*
X140610Y-3888D02*
D03*
X136722Y-7776D02*
D03*
X128947D02*
D03*
X125059Y-3888D02*
D03*
X125059Y3888D02*
D03*
X128947Y7776D02*
D03*
X136722Y-3888D02*
D03*
X128947D02*
D03*
X136723Y3888D02*
D03*
X128947D02*
D03*
X96000Y-500D02*
D03*
X103500Y16500D02*
D03*
X106000Y-500D02*
D03*
X95500Y14000D02*
D03*
X76000Y18000D02*
D03*
X69000Y7500D02*
D03*
X75197Y-6693D02*
D03*
X35039Y-12598D02*
D03*
X18898Y0D02*
D03*
X14961Y-13780D02*
D03*
X118500Y6500D02*
D03*
X31500Y-20500D02*
D03*
X50000Y12205D02*
D03*
X48819Y7087D02*
D03*
X107000Y-36000D02*
D03*
X103000Y-32000D02*
D03*
X101000Y-30000D02*
D03*
X105000Y-34000D02*
D03*
X98500Y21000D02*
D03*
X118500Y37000D02*
D03*
X110500Y29000D02*
D03*
X106500D02*
D03*
X108500Y31000D02*
D03*
X109500Y11000D02*
D03*
X142283Y16228D02*
D03*
Y19228D02*
D03*
X104000Y24000D02*
D03*
X97250Y-23250D02*
D03*
X80500Y-30000D02*
D03*
X63500Y32500D02*
D03*
X42000Y12000D02*
D03*
X83000Y21500D02*
D03*
X80000D02*
D03*
X89500Y21000D02*
D03*
X43000Y33500D02*
D03*
X40000D02*
D03*
X50000Y18898D02*
D03*
X30000Y22000D02*
D03*
X33465Y18898D02*
D03*
X37402Y-10630D02*
D03*
X16000Y24000D02*
D03*
X25500Y-6500D02*
D03*
Y6500D02*
D03*
X51000Y-31500D02*
D03*
X69000Y12500D02*
D03*
X59000D02*
D03*
X64000D02*
D03*
Y2500D02*
D03*
X59000D02*
D03*
X78316Y4992D02*
D03*
X81084D02*
D03*
X48907Y1384D02*
D03*
Y-1384D02*
D03*
X50500Y-24116D02*
D03*
Y-26884D02*
D03*
X123195Y-19000D02*
D03*
X120427D02*
D03*
X52000Y-8000D02*
D03*
X71000Y-25500D02*
D03*
X55500Y-31500D02*
D03*
X63500Y-19000D02*
D03*
X81500Y-4000D02*
D03*
X104000Y21000D02*
D03*
X133000Y-16977D02*
D03*
X136000Y-19000D02*
D03*
X117087Y27000D02*
D03*
X23000Y5000D02*
D03*
Y8000D02*
D03*
Y-5000D02*
D03*
Y-8000D02*
D03*
X79000Y-11000D02*
D03*
Y-15500D02*
D03*
M02*
