G04*
G04 #@! TF.GenerationSoftware,Altium Limited,Altium Designer,19.1.5 (86)*
G04*
G04 Layer_Color=65535*
%FSLAX25Y25*%
%MOIN*%
G70*
G01*
G75*
%ADD10C,0.00787*%
%ADD11C,0.00500*%
%ADD12C,0.00984*%
%ADD13C,0.00394*%
%ADD14C,0.00800*%
%ADD15C,0.01000*%
%ADD16R,0.03150X0.00787*%
G36*
X74335Y-2835D02*
X71677D01*
Y-2573D01*
X71779Y-2059D01*
X71980Y-1576D01*
X72271Y-1141D01*
X72641Y-771D01*
X73076Y-480D01*
X73559Y-279D01*
X74073Y-177D01*
X74335D01*
D01*
Y-2835D01*
D02*
G37*
G36*
X103394Y8996D02*
X103689Y7815D01*
X103098D01*
X101917Y8996D01*
Y9783D01*
X103394Y8996D01*
D02*
G37*
D10*
X148976Y28543D02*
G03*
X148976Y28543I-394J0D01*
G01*
X74335Y-177D02*
G03*
X71677Y-2835I0J-2657D01*
G01*
X101917Y9587D02*
G03*
X103689Y7815I1772J0D01*
G01*
X74335Y-2835D02*
Y-177D01*
X71677Y-2835D02*
X74335D01*
X53665Y-2835D02*
X56323D01*
X53665D02*
Y-177D01*
Y15177D02*
Y17835D01*
X56323D01*
X74335Y15177D02*
Y17835D01*
X71677D02*
X74335D01*
X56244Y-34405D02*
X59394D01*
X56244D02*
Y-31354D01*
Y-22594D02*
X59394D01*
X56244Y-25646D02*
Y-22594D01*
X70244Y-34405D02*
X73394D01*
X70244D02*
Y-31354D01*
Y-22594D02*
X73394D01*
X70244Y-25646D02*
Y-22594D01*
X48847Y13185D02*
Y23815D01*
X42153Y13185D02*
Y23815D01*
X43532Y20075D02*
X47469D01*
X43532Y17319D02*
X45500Y20075D01*
X47469Y17319D01*
X43532D02*
X47469D01*
X45500Y20075D02*
Y20862D01*
Y16138D02*
Y17319D01*
X38000Y19681D02*
Y20862D01*
Y16138D02*
Y16925D01*
X36031Y19681D02*
X39968D01*
X36031D02*
X38000Y16925D01*
X39968Y19681D01*
X36031Y16925D02*
X39968D01*
X41346Y13185D02*
Y23815D01*
X34653Y13185D02*
Y23815D01*
X77311Y-4783D02*
X103689D01*
X77311D02*
Y9783D01*
X101917Y9587D02*
Y9783D01*
X77311D02*
X102803D01*
X103689Y8898D01*
Y-4783D02*
Y8898D01*
D11*
X93150Y-29000D02*
G03*
X92150Y-30000I0J-1000D01*
G01*
Y-33000D02*
G03*
X93150Y-34000I1000J0D01*
G01*
X96850D02*
G03*
X97850Y-33000I0J1000D01*
G01*
Y-30000D02*
G03*
X96850Y-29000I-1000J0D01*
G01*
X51500Y31500D02*
G03*
X52500Y30500I1000J0D01*
G01*
X61500D02*
G03*
X62500Y31500I0J1000D01*
G01*
Y34500D02*
G03*
X61500Y35500I-1000J0D01*
G01*
X52500D02*
G03*
X51500Y34500I0J-1000D01*
G01*
X58500Y-12000D02*
G03*
X59500Y-13000I1000J0D01*
G01*
X68500D02*
G03*
X69500Y-12000I0J1000D01*
G01*
Y-9000D02*
G03*
X68500Y-8000I-1000J0D01*
G01*
X59500D02*
G03*
X58500Y-9000I0J-1000D01*
G01*
Y-17500D02*
G03*
X59500Y-18500I1000J0D01*
G01*
X68500D02*
G03*
X69500Y-17500I0J1000D01*
G01*
Y-14500D02*
G03*
X68500Y-13500I-1000J0D01*
G01*
X59500D02*
G03*
X58500Y-14500I0J-1000D01*
G01*
X77000Y22500D02*
G03*
X78000Y23500I0J1000D01*
G01*
X73000D02*
G03*
X74000Y22500I1000J0D01*
G01*
Y33500D02*
G03*
X73000Y32500I0J-1000D01*
G01*
X78000D02*
G03*
X77000Y33500I-1000J0D01*
G01*
X96500Y22500D02*
G03*
X97500Y23500I0J1000D01*
G01*
X92500D02*
G03*
X93500Y22500I1000J0D01*
G01*
Y33500D02*
G03*
X92500Y32500I0J-1000D01*
G01*
X97500D02*
G03*
X96500Y33500I-1000J0D01*
G01*
X82500Y22500D02*
G03*
X83500Y23500I0J1000D01*
G01*
X78500D02*
G03*
X79500Y22500I1000J0D01*
G01*
Y33500D02*
G03*
X78500Y32500I0J-1000D01*
G01*
X83500D02*
G03*
X82500Y33500I-1000J0D01*
G01*
X102000Y22500D02*
G03*
X103000Y23500I0J1000D01*
G01*
X98000D02*
G03*
X99000Y22500I1000J0D01*
G01*
Y33500D02*
G03*
X98000Y32500I0J-1000D01*
G01*
X103000D02*
G03*
X102000Y33500I-1000J0D01*
G01*
X47469Y-10047D02*
G03*
X46484Y-9063I-984J0D01*
G01*
Y-16937D02*
G03*
X47469Y-15953I0J984D01*
G01*
X43532D02*
G03*
X44516Y-16937I984J0D01*
G01*
Y-9063D02*
G03*
X43532Y-10047I0J-984D01*
G01*
X90953Y30031D02*
G03*
X91937Y31016I0J984D01*
G01*
X84063D02*
G03*
X85047Y30031I984J0D01*
G01*
Y33968D02*
G03*
X84063Y32984I0J-984D01*
G01*
X91937D02*
G03*
X90953Y33968I-984J0D01*
G01*
X85469Y-27047D02*
G03*
X84484Y-26063I-984J0D01*
G01*
Y-33937D02*
G03*
X85469Y-32953I0J984D01*
G01*
X81532D02*
G03*
X82516Y-33937I984J0D01*
G01*
Y-26063D02*
G03*
X81532Y-27047I0J-984D01*
G01*
X49468Y-26547D02*
G03*
X48484Y-25563I-984J0D01*
G01*
Y-33437D02*
G03*
X49468Y-32453I0J984D01*
G01*
X45531D02*
G03*
X46516Y-33437I984J0D01*
G01*
Y-25563D02*
G03*
X45531Y-26547I0J-984D01*
G01*
Y-24453D02*
G03*
X46516Y-25437I984J0D01*
G01*
Y-17563D02*
G03*
X45531Y-18547I0J-984D01*
G01*
X49468D02*
G03*
X48484Y-17563I-984J0D01*
G01*
Y-25437D02*
G03*
X49468Y-24453I0J984D01*
G01*
X85047Y25969D02*
G03*
X84063Y24984I0J-984D01*
G01*
X91937D02*
G03*
X90953Y25969I-984J0D01*
G01*
Y22031D02*
G03*
X91937Y23016I0J984D01*
G01*
X84063D02*
G03*
X85047Y22031I984J0D01*
G01*
X90953Y26032D02*
G03*
X91937Y27016I0J984D01*
G01*
X84063D02*
G03*
X85047Y26032I984J0D01*
G01*
Y29969D02*
G03*
X84063Y28984I0J-984D01*
G01*
X91937D02*
G03*
X90953Y29969I-984J0D01*
G01*
X15047Y22468D02*
G03*
X14063Y21484I0J-984D01*
G01*
X21937D02*
G03*
X20953Y22468I-984J0D01*
G01*
Y18531D02*
G03*
X21937Y19516I0J984D01*
G01*
X14063D02*
G03*
X15047Y18531I984J0D01*
G01*
X38047Y-30031D02*
G03*
X37063Y-31016I0J-984D01*
G01*
X44937D02*
G03*
X43953Y-30031I-984J0D01*
G01*
Y-33968D02*
G03*
X44937Y-32984I0J984D01*
G01*
X37063D02*
G03*
X38047Y-33968I984J0D01*
G01*
X66953Y21531D02*
G03*
X67937Y22516I0J984D01*
G01*
X60063D02*
G03*
X61047Y21531I984J0D01*
G01*
Y25469D02*
G03*
X60063Y24484I0J-984D01*
G01*
X67937D02*
G03*
X66953Y25469I-984J0D01*
G01*
X33000Y24500D02*
G03*
X34000Y25500I0J1000D01*
G01*
Y34500D02*
G03*
X33000Y35500I-1000J0D01*
G01*
X30000D02*
G03*
X29000Y34500I0J-1000D01*
G01*
Y25500D02*
G03*
X30000Y24500I1000J0D01*
G01*
X90158Y-28118D02*
G03*
X90158Y-28118I-276J0D01*
G01*
X154961Y-25984D02*
X160000D01*
X154961Y25984D02*
X160000D01*
Y-25984D02*
Y25984D01*
X93150Y-29000D02*
X96850D01*
X92150Y-33000D02*
Y-30000D01*
X93150Y-34000D02*
X96850D01*
X97850Y-33000D02*
Y-30000D01*
X57937Y-21969D02*
Y-18032D01*
X50063D02*
X57937D01*
X50063Y-21969D02*
Y-18032D01*
Y-21969D02*
X57937D01*
X77937D02*
Y-18032D01*
X70063D02*
X77937D01*
X70063Y-21969D02*
Y-18032D01*
Y-21969D02*
X77937D01*
X37000Y4803D02*
X37984Y5787D01*
X36016D02*
X37984D01*
X36016D02*
X37000Y4803D01*
X38675Y2638D02*
Y7362D01*
X35325Y2638D02*
Y7362D01*
X39563Y32D02*
X47437D01*
X39563D02*
Y3968D01*
X47437D01*
Y32D02*
Y3968D01*
X39563Y-3968D02*
X47437D01*
X39563D02*
Y-32D01*
X47437D01*
Y-3968D02*
Y-32D01*
X39563Y4532D02*
X47437D01*
X39563D02*
Y8468D01*
X47437D01*
Y4532D02*
Y8468D01*
X33516Y-31287D02*
X34500Y-30303D01*
X33516Y-31287D02*
X35484D01*
X34500Y-30303D02*
X35484Y-31287D01*
X32825Y-32862D02*
Y-28138D01*
X36175Y-32862D02*
Y-28138D01*
X34500Y-20697D02*
X35484Y-19713D01*
X33516D02*
X35484D01*
X33516D02*
X34500Y-20697D01*
X36175Y-22862D02*
Y-18138D01*
X32825Y-22862D02*
Y-18138D01*
X36016Y-5787D02*
X37000Y-4803D01*
X36016Y-5787D02*
X37984D01*
X37000Y-4803D02*
X37984Y-5787D01*
X35325Y-7362D02*
Y-2638D01*
X38675Y-7362D02*
Y-2638D01*
X51500Y31500D02*
Y34500D01*
X52500Y30500D02*
X61500D01*
X62500Y31500D02*
Y34500D01*
X52500Y35500D02*
X61500D01*
X51563Y26032D02*
Y29969D01*
Y26032D02*
X59437D01*
Y29969D01*
X51563D02*
X59437D01*
X58500Y-12000D02*
Y-9000D01*
X59500Y-13000D02*
X68500D01*
X69500Y-12000D02*
Y-9000D01*
X59500Y-8000D02*
X68500D01*
X58500Y-17500D02*
Y-14500D01*
X59500Y-18500D02*
X68500D01*
X69500Y-17500D02*
Y-14500D01*
X59500Y-13500D02*
X68500D01*
X57937Y-12968D02*
Y-9031D01*
X50063D02*
X57937D01*
X50063Y-12968D02*
Y-9031D01*
Y-12968D02*
X57937D01*
Y-17469D02*
Y-13532D01*
X50063D02*
X57937D01*
X50063Y-17469D02*
Y-13532D01*
Y-17469D02*
X57937D01*
X78000Y23500D02*
Y32500D01*
X74000Y22500D02*
X77000D01*
X73000Y23500D02*
Y32500D01*
X74000Y33500D02*
X77000D01*
X97500Y23500D02*
Y32500D01*
X93500Y22500D02*
X96500D01*
X92500Y23500D02*
Y32500D01*
X93500Y33500D02*
X96500D01*
X83500Y23500D02*
Y32500D01*
X79500Y22500D02*
X82500D01*
X78500Y23500D02*
Y32500D01*
X79500Y33500D02*
X82500D01*
X103000Y23500D02*
Y32500D01*
X99000Y22500D02*
X102000D01*
X98000Y23500D02*
Y32500D01*
X99000Y33500D02*
X102000D01*
X44516Y-16937D02*
X46484D01*
X47469Y-15953D02*
Y-10047D01*
X44516Y-9063D02*
X46484D01*
X43532Y-15953D02*
Y-10047D01*
X84063Y31016D02*
Y32984D01*
X85047Y30031D02*
X90953D01*
X91937Y31016D02*
Y32984D01*
X85047Y33968D02*
X90953D01*
X82516Y-33937D02*
X84484D01*
X85469Y-32953D02*
Y-27047D01*
X82516Y-26063D02*
X84484D01*
X81532Y-32953D02*
Y-27047D01*
X46516Y-33437D02*
X48484D01*
X49468Y-32453D02*
Y-26547D01*
X46516Y-25563D02*
X48484D01*
X45531Y-32453D02*
Y-26547D01*
X46516Y-17563D02*
X48484D01*
X45531Y-24453D02*
Y-18547D01*
X46516Y-25437D02*
X48484D01*
X49468Y-24453D02*
Y-18547D01*
X91937Y23016D02*
Y24984D01*
X85047Y25969D02*
X90953D01*
X84063Y23016D02*
Y24984D01*
X85047Y22031D02*
X90953D01*
X84063Y27016D02*
Y28984D01*
X85047Y26032D02*
X90953D01*
X91937Y27016D02*
Y28984D01*
X85047Y29969D02*
X90953D01*
X21937Y19516D02*
Y21484D01*
X15047Y22468D02*
X20953D01*
X14063Y19516D02*
Y21484D01*
X15047Y18531D02*
X20953D01*
X44937Y-32984D02*
Y-31016D01*
X38047Y-30031D02*
X43953D01*
X37063Y-32984D02*
Y-31016D01*
X38047Y-33968D02*
X43953D01*
X60063Y22516D02*
Y24484D01*
X61047Y21531D02*
X66953D01*
X67937Y22516D02*
Y24484D01*
X61047Y25469D02*
X66953D01*
X39000Y27500D02*
X50000D01*
X39000D02*
Y32500D01*
X50000D01*
Y27500D02*
Y32500D01*
X30000Y24500D02*
X33000D01*
X34000Y25500D02*
Y34500D01*
X30000Y35500D02*
X33000D01*
X29000Y25500D02*
Y34500D01*
X39563Y-8468D02*
Y-4532D01*
Y-8468D02*
X47437D01*
Y-4532D01*
X39563D02*
X47437D01*
X39031Y-16937D02*
X42968D01*
Y-9063D01*
X39031D02*
X42968D01*
X39031Y-16937D02*
Y-9063D01*
X81532Y-25437D02*
X85469D01*
Y-17563D01*
X81532D02*
X85469D01*
X81532Y-25437D02*
Y-17563D01*
X44937Y-29469D02*
Y-25532D01*
X37063D02*
X44937D01*
X37063Y-29469D02*
Y-25532D01*
Y-29469D02*
X44937D01*
Y-25469D02*
Y-21531D01*
X37063D02*
X44937D01*
X37063Y-25469D02*
Y-21531D01*
Y-25469D02*
X44937D01*
X86032Y-25437D02*
X89969D01*
Y-17563D01*
X86032D02*
X89969D01*
X86032Y-25437D02*
Y-17563D01*
X77937Y-12968D02*
Y-9031D01*
X70063D02*
X77937D01*
X70063Y-12968D02*
Y-9031D01*
Y-12968D02*
X77937D01*
Y-17469D02*
Y-13532D01*
X70063D02*
X77937D01*
X70063Y-17469D02*
Y-13532D01*
Y-17469D02*
X77937D01*
X34532Y27563D02*
X38469D01*
Y35437D01*
X34532D02*
X38469D01*
X34532Y27563D02*
Y35437D01*
X51563Y21531D02*
Y25469D01*
Y21531D02*
X59437D01*
Y25469D01*
X51563D02*
X59437D01*
X71937Y30531D02*
Y34468D01*
X64063D02*
X71937D01*
X64063Y30531D02*
Y34468D01*
Y30531D02*
X71937D01*
X68532Y29437D02*
X72469D01*
X68532Y21563D02*
Y29437D01*
Y21563D02*
X72469D01*
Y29437D01*
X60063Y26032D02*
Y29969D01*
Y26032D02*
X67937D01*
Y29969D01*
X60063D02*
X67937D01*
X86032Y-33937D02*
X89969D01*
Y-26063D01*
X86032D02*
X89969D01*
X86032Y-33937D02*
Y-26063D01*
X3732Y27031D02*
Y30968D01*
Y22602D02*
X20268D01*
X3732Y35398D02*
X20268D01*
Y27031D02*
Y30968D01*
X3732Y-30968D02*
Y-27031D01*
Y-35398D02*
X20268D01*
X3732Y-22602D02*
X20268D01*
Y-30968D02*
Y-27031D01*
X94606Y-27331D02*
X95394D01*
X94606Y-18669D02*
X95394D01*
X90669Y-27331D02*
Y-18669D01*
X99331Y-27331D02*
Y-18669D01*
X27500Y34865D02*
X24301D01*
Y33265D01*
X24834Y32732D01*
X25367D01*
X25901Y33265D01*
Y34865D01*
Y33265D01*
X26434Y32732D01*
X26967D01*
X27500Y33265D01*
Y34865D01*
Y30066D02*
Y31133D01*
X26967Y31666D01*
X24834D01*
X24301Y31133D01*
Y30066D01*
X24834Y29533D01*
X26967D01*
X27500Y30066D01*
Y26867D02*
Y27934D01*
X26967Y28467D01*
X24834D01*
X24301Y27934D01*
Y26867D01*
X24834Y26334D01*
X26967D01*
X27500Y26867D01*
Y25268D02*
Y23135D01*
Y24202D01*
X24301D01*
X122334Y-40199D02*
Y-37000D01*
X123934D01*
X124467Y-37533D01*
Y-38600D01*
X123934Y-39133D01*
X122334D01*
X123400D02*
X124467Y-40199D01*
X125533Y-37000D02*
X127666Y-40199D01*
Y-37000D02*
X125533Y-40199D01*
X14467Y40199D02*
X12334D01*
Y38600D01*
X13400Y39133D01*
X13934D01*
X14467Y38600D01*
Y37533D01*
X13934Y37000D01*
X12867D01*
X12334Y37533D01*
X15533Y40199D02*
Y38066D01*
X16600Y37000D01*
X17666Y38066D01*
Y40199D01*
X2867Y-37533D02*
X2334Y-37000D01*
X1268D01*
X735Y-37533D01*
Y-39666D01*
X1268Y-40199D01*
X2334D01*
X2867Y-39666D01*
Y-38600D01*
X1801D01*
X3934Y-40199D02*
Y-37000D01*
X6066Y-40199D01*
Y-37000D01*
X7133D02*
Y-40199D01*
X8732D01*
X9265Y-39666D01*
Y-37533D01*
X8732Y-37000D01*
X7133D01*
X24467Y40199D02*
X22334D01*
Y38600D01*
X23401Y39133D01*
X23934D01*
X24467Y38600D01*
Y37533D01*
X23934Y37000D01*
X22867D01*
X22334Y37533D01*
X25533Y40199D02*
Y38066D01*
X26599Y37000D01*
X27666Y38066D01*
Y40199D01*
X32867Y39666D02*
X32334Y40199D01*
X31268D01*
X30735Y39666D01*
Y37533D01*
X31268Y37000D01*
X32334D01*
X32867Y37533D01*
Y38600D01*
X31801D01*
X33934Y37000D02*
Y40199D01*
X36066Y37000D01*
Y40199D01*
X37133D02*
Y37000D01*
X38732D01*
X39265Y37533D01*
Y39666D01*
X38732Y40199D01*
X37133D01*
X24301Y-24735D02*
X27500D01*
Y-26334D01*
X26967Y-26867D01*
X25901D01*
X25367Y-26334D01*
Y-24735D01*
Y-25801D02*
X24301Y-26867D01*
X26967Y-30066D02*
X27500Y-29533D01*
Y-28467D01*
X26967Y-27934D01*
X26434D01*
X25901Y-28467D01*
Y-29533D01*
X25367Y-30066D01*
X24834D01*
X24301Y-29533D01*
Y-28467D01*
X24834Y-27934D01*
X27500Y-31133D02*
Y-33265D01*
Y-32199D01*
X24301D01*
X42601Y37000D02*
X43667D01*
X43134D01*
Y40199D01*
X42601Y39666D01*
X45267D02*
X45800Y40199D01*
X46866D01*
X47399Y39666D01*
Y37533D01*
X46866Y37000D01*
X45800D01*
X45267Y37533D01*
Y39666D01*
X22601Y-40199D02*
X23667D01*
X23134D01*
Y-37000D01*
X22601Y-37533D01*
X25267D02*
X25800Y-37000D01*
X26866D01*
X27399Y-37533D01*
Y-38066D01*
X26866Y-38600D01*
X27399Y-39133D01*
Y-39666D01*
X26866Y-40199D01*
X25800D01*
X25267Y-39666D01*
Y-39133D01*
X25800Y-38600D01*
X25267Y-38066D01*
Y-37533D01*
X25800Y-38600D02*
X26866D01*
X135000Y-34199D02*
X132867D01*
X135000Y-32066D01*
Y-31533D01*
X134467Y-31000D01*
X133400D01*
X132867Y-31533D01*
X136066Y-34199D02*
X137133D01*
X136600D01*
Y-31000D01*
X136066Y-31533D01*
X56066Y-37000D02*
X53934D01*
Y-38600D01*
X55000Y-38066D01*
X55533D01*
X56066Y-38600D01*
Y-39666D01*
X55533Y-40199D01*
X54467D01*
X53934Y-39666D01*
X142867Y-37533D02*
X142334Y-37000D01*
X141268D01*
X140735Y-37533D01*
Y-39666D01*
X141268Y-40199D01*
X142334D01*
X142867Y-39666D01*
Y-38600D01*
X141801D01*
X143934Y-40199D02*
Y-37000D01*
X146066Y-40199D01*
Y-37000D01*
X147133D02*
Y-40199D01*
X148732D01*
X149265Y-39666D01*
Y-37533D01*
X148732Y-37000D01*
X147133D01*
X140668Y-31000D02*
Y-33133D01*
X141735Y-34199D01*
X142801Y-33133D01*
Y-31000D01*
X143867Y-34199D02*
X144934D01*
X144401D01*
Y-31000D01*
X143867Y-31533D01*
X146533Y-34199D02*
Y-33666D01*
X147066D01*
Y-34199D01*
X146533D01*
X149199Y-31533D02*
X149732Y-31000D01*
X150798D01*
X151332Y-31533D01*
Y-33666D01*
X150798Y-34199D01*
X149732D01*
X149199Y-33666D01*
Y-31533D01*
X73934Y-37000D02*
X76066D01*
Y-37533D01*
X73934Y-39666D01*
Y-40199D01*
X54467Y37000D02*
X55533D01*
X55000D01*
Y40199D01*
X54467Y39666D01*
X72867D02*
X72334Y40199D01*
X71268D01*
X70735Y39666D01*
Y37533D01*
X71268Y37000D01*
X72334D01*
X72867Y37533D01*
Y38600D01*
X71801D01*
X73934Y37000D02*
Y40199D01*
X76066Y37000D01*
Y40199D01*
X77133D02*
Y37000D01*
X78732D01*
X79265Y37533D01*
Y39666D01*
X78732Y40199D01*
X77133D01*
X142867Y39666D02*
X142334Y40199D01*
X141268D01*
X140735Y39666D01*
Y37533D01*
X141268Y37000D01*
X142334D01*
X142867Y37533D01*
Y38600D01*
X141801D01*
X143934Y37000D02*
Y40199D01*
X146066Y37000D01*
Y40199D01*
X147133D02*
Y37000D01*
X148732D01*
X149265Y37533D01*
Y39666D01*
X148732Y40199D01*
X147133D01*
X32867Y-37533D02*
X32334Y-37000D01*
X31268D01*
X30735Y-37533D01*
Y-39666D01*
X31268Y-40199D01*
X32334D01*
X32867Y-39666D01*
Y-38600D01*
X31801D01*
X33934Y-40199D02*
Y-37000D01*
X36066Y-40199D01*
Y-37000D01*
X37133D02*
Y-40199D01*
X38732D01*
X39265Y-39666D01*
Y-37533D01*
X38732Y-37000D01*
X37133D01*
X80735Y37000D02*
Y40199D01*
X82334D01*
X82867Y39666D01*
Y38600D01*
X82334Y38066D01*
X80735D01*
X81801D02*
X82867Y37000D01*
X86066Y39666D02*
X85533Y40199D01*
X84467D01*
X83934Y39666D01*
Y39133D01*
X84467Y38600D01*
X85533D01*
X86066Y38066D01*
Y37533D01*
X85533Y37000D01*
X84467D01*
X83934Y37533D01*
X87133Y40199D02*
X89265D01*
X88199D01*
Y37000D01*
X112867Y-37533D02*
X112334Y-37000D01*
X111268D01*
X110735Y-37533D01*
Y-39666D01*
X111268Y-40199D01*
X112334D01*
X112867Y-39666D01*
Y-38600D01*
X111801D01*
X113934Y-40199D02*
Y-37000D01*
X116066Y-40199D01*
Y-37000D01*
X117133D02*
Y-40199D01*
X118732D01*
X119265Y-39666D01*
Y-37533D01*
X118732Y-37000D01*
X117133D01*
X130735Y39666D02*
X131268Y40199D01*
X132334D01*
X132867Y39666D01*
Y39133D01*
X132334Y38600D01*
X131801D01*
X132334D01*
X132867Y38066D01*
Y37533D01*
X132334Y37000D01*
X131268D01*
X130735Y37533D01*
X133934Y40199D02*
Y38066D01*
X135000Y37000D01*
X136066Y38066D01*
Y40199D01*
X137133Y39666D02*
X137666Y40199D01*
X138732D01*
X139265Y39666D01*
Y39133D01*
X138732Y38600D01*
X138199D01*
X138732D01*
X139265Y38066D01*
Y37533D01*
X138732Y37000D01*
X137666D01*
X137133Y37533D01*
X2867Y39666D02*
X2334Y40199D01*
X1268D01*
X735Y39666D01*
Y37533D01*
X1268Y37000D01*
X2334D01*
X2867Y37533D01*
Y38600D01*
X1801D01*
X3934Y37000D02*
Y40199D01*
X6066Y37000D01*
Y40199D01*
X7133D02*
Y37000D01*
X8732D01*
X9265Y37533D01*
Y39666D01*
X8732Y40199D01*
X7133D01*
X63934Y39666D02*
X64467Y40199D01*
X65533D01*
X66066Y39666D01*
Y37533D01*
X65533Y37000D01*
X64467D01*
X63934Y37533D01*
Y39666D01*
X132334Y-37000D02*
X134467D01*
X133400D01*
Y-40199D01*
X135533Y-37000D02*
X137666Y-40199D01*
Y-37000D02*
X135533Y-40199D01*
X66066Y-37000D02*
X65000Y-37533D01*
X63934Y-38600D01*
Y-39666D01*
X64467Y-40199D01*
X65533D01*
X66066Y-39666D01*
Y-39133D01*
X65533Y-38600D01*
X63934D01*
X45533Y-40199D02*
Y-37000D01*
X43934Y-38600D01*
X46066D01*
X82867Y-37533D02*
X82334Y-37000D01*
X81268D01*
X80735Y-37533D01*
Y-39666D01*
X81268Y-40199D01*
X82334D01*
X82867Y-39666D01*
Y-38600D01*
X81801D01*
X83934Y-40199D02*
Y-37000D01*
X86066Y-40199D01*
Y-37000D01*
X87133D02*
Y-40199D01*
X88732D01*
X89265Y-39666D01*
Y-37533D01*
X88732Y-37000D01*
X87133D01*
X93934Y-37533D02*
X94467Y-37000D01*
X95533D01*
X96066Y-37533D01*
Y-38066D01*
X95533Y-38600D01*
X96066Y-39133D01*
Y-39666D01*
X95533Y-40199D01*
X94467D01*
X93934Y-39666D01*
Y-39133D01*
X94467Y-38600D01*
X93934Y-38066D01*
Y-37533D01*
X94467Y-38600D02*
X95533D01*
X12601Y-40199D02*
X13667D01*
X13134D01*
Y-37000D01*
X12601Y-37533D01*
X15267Y-39666D02*
X15800Y-40199D01*
X16866D01*
X17399Y-39666D01*
Y-37533D01*
X16866Y-37000D01*
X15800D01*
X15267Y-37533D01*
Y-38066D01*
X15800Y-38600D01*
X17399D01*
X120735Y39666D02*
X121268Y40199D01*
X122334D01*
X122867Y39666D01*
Y39133D01*
X122334Y38600D01*
X121801D01*
X122334D01*
X122867Y38066D01*
Y37533D01*
X122334Y37000D01*
X121268D01*
X120735Y37533D01*
X123934Y40199D02*
Y38066D01*
X125000Y37000D01*
X126066Y38066D01*
Y40199D01*
X127133Y39666D02*
X127666Y40199D01*
X128732D01*
X129265Y39666D01*
Y39133D01*
X128732Y38600D01*
X128199D01*
X128732D01*
X129265Y38066D01*
Y37533D01*
X128732Y37000D01*
X127666D01*
X127133Y37533D01*
X103934Y39666D02*
X104467Y40199D01*
X105533D01*
X106066Y39666D01*
Y39133D01*
X105533Y38600D01*
X105000D01*
X105533D01*
X106066Y38066D01*
Y37533D01*
X105533Y37000D01*
X104467D01*
X103934Y37533D01*
X92867Y39666D02*
X92334Y40199D01*
X91268D01*
X90735Y39666D01*
Y37533D01*
X91268Y37000D01*
X92334D01*
X92867Y37533D01*
Y38600D01*
X91801D01*
X93934Y37000D02*
Y40199D01*
X96066Y37000D01*
Y40199D01*
X97133D02*
Y37000D01*
X98732D01*
X99265Y37533D01*
Y39666D01*
X98732Y40199D01*
X97133D01*
X124467Y-34199D02*
X122334D01*
X124467Y-32066D01*
Y-31533D01*
X123934Y-31000D01*
X122867D01*
X122334Y-31533D01*
X125533D02*
X126066Y-31000D01*
X127133D01*
X127666Y-31533D01*
Y-33666D01*
X127133Y-34199D01*
X126066D01*
X125533Y-33666D01*
Y-31533D01*
X116066Y37000D02*
X113934D01*
X116066Y39133D01*
Y39666D01*
X115533Y40199D01*
X114467D01*
X113934Y39666D01*
X103934Y-39666D02*
X104467Y-40199D01*
X105533D01*
X106066Y-39666D01*
Y-37533D01*
X105533Y-37000D01*
X104467D01*
X103934Y-37533D01*
Y-38066D01*
X104467Y-38600D01*
X106066D01*
D12*
X77386Y-2244D02*
G03*
X77386Y-2244I-492J0D01*
G01*
X64020Y-35685D02*
G03*
X64020Y-35685I-492J0D01*
G01*
X78020D02*
G03*
X78020Y-35685I-492J0D01*
G01*
X105165Y14902D02*
G03*
X105165Y14902I-492J0D01*
G01*
D13*
X56311Y32016D02*
X57689Y33000D01*
X56311Y32016D02*
Y33000D01*
X57689Y32114D02*
Y33000D01*
Y33886D01*
X56311Y33000D02*
Y33984D01*
X57689Y33000D01*
X63311Y-11484D02*
X64689Y-10500D01*
X63311Y-11484D02*
Y-10500D01*
X64689Y-11386D02*
Y-10500D01*
Y-9614D01*
X63311Y-10500D02*
Y-9516D01*
X64689Y-10500D01*
X63311Y-16984D02*
X64689Y-16000D01*
X63311Y-16984D02*
Y-16000D01*
X64689Y-16886D02*
Y-16000D01*
Y-15114D01*
X63311Y-16000D02*
Y-15016D01*
X64689Y-16000D01*
X31500Y30689D02*
X32484Y29311D01*
X31500D02*
X32484D01*
X31500Y30689D02*
X32386D01*
X30614D02*
X31500D01*
X30516Y29311D02*
X31500D01*
X30516D02*
X31500Y30689D01*
D14*
X101900Y-25600D02*
X104400Y-12600D01*
X106700Y-20600D01*
X103400Y-20900D02*
X106700Y-20600D01*
X103400Y-20900D02*
X107000Y-24500D01*
X103000Y-24800D02*
X107000Y-24500D01*
X103000Y-24800D02*
X106500Y-21200D01*
X108400Y-25600D01*
D15*
X0Y-17598D02*
Y17598D01*
X6087D01*
X14386D02*
X21362D01*
X0Y-17598D02*
X6087D01*
X14386D02*
X21362D01*
D16*
X37000Y4312D02*
D03*
X34499Y-29813D02*
D03*
X34500Y-21189D02*
D03*
X36999Y-4312D02*
D03*
M02*
