G04*
G04 #@! TF.GenerationSoftware,Altium Limited,Altium Designer,19.1.5 (86)*
G04*
G04 Layer_Color=128*
%FSLAX25Y25*%
%MOIN*%
G70*
G01*
G75*
%ADD10C,0.00800*%
%ADD11C,0.00200*%
D10*
X155000Y-47500D02*
Y47500D01*
X152500Y-50000D02*
X155000Y-47500D01*
X2500Y-50000D02*
X152500D01*
Y50000D02*
X155000Y47500D01*
X2500Y50000D02*
X152500D01*
X0Y-47500D02*
Y47500D01*
X2500Y50000D01*
X0Y-47500D02*
X2500Y-50000D01*
D11*
X143000Y45000D02*
X147000D01*
X145000Y43000D02*
Y47000D01*
X133000Y45000D02*
X137000D01*
X135000Y43000D02*
Y47000D01*
X123000Y45000D02*
X127000D01*
X125000Y43000D02*
Y47000D01*
X113000Y45000D02*
X117000D01*
X115000Y43000D02*
Y47000D01*
X103000Y45000D02*
X107000D01*
X105000Y43000D02*
Y47000D01*
X93000Y45000D02*
X97000D01*
X95000Y43000D02*
Y47000D01*
X83000Y45000D02*
X87000D01*
X85000Y43000D02*
Y47000D01*
X73000Y45000D02*
X77000D01*
X75000Y43000D02*
Y47000D01*
X63000Y45000D02*
X67000D01*
X65000Y43000D02*
Y47000D01*
X53000Y45000D02*
X57000D01*
X55000Y43000D02*
Y47000D01*
X43000Y45000D02*
X47000D01*
X45000Y43000D02*
Y47000D01*
X33000Y45000D02*
X37000D01*
X35000Y43000D02*
Y47000D01*
X23000Y45000D02*
X27000D01*
X25000Y43000D02*
Y47000D01*
X13000Y45000D02*
X17000D01*
X15000Y43000D02*
Y47000D01*
X3000Y45000D02*
X7000D01*
X5000Y43000D02*
Y47000D01*
X143000Y-45000D02*
X147000D01*
X145000Y-47000D02*
Y-43000D01*
X133000Y-45000D02*
X137000D01*
X135000Y-47000D02*
Y-43000D01*
X123000Y-45000D02*
X127000D01*
X125000Y-47000D02*
Y-43000D01*
X113000Y-45000D02*
X117000D01*
X115000Y-47000D02*
Y-43000D01*
X103000Y-45000D02*
X107000D01*
X105000Y-47000D02*
Y-43000D01*
X93000Y-45000D02*
X97000D01*
X95000Y-47000D02*
Y-43000D01*
X83000Y-45000D02*
X87000D01*
X85000Y-47000D02*
Y-43000D01*
X73000Y-45000D02*
X77000D01*
X75000Y-47000D02*
Y-43000D01*
X63000Y-45000D02*
X67000D01*
X65000Y-47000D02*
Y-43000D01*
X53000Y-45000D02*
X57000D01*
X55000Y-47000D02*
Y-43000D01*
X43000Y-45000D02*
X47000D01*
X45000Y-47000D02*
Y-43000D01*
X33000Y-45000D02*
X37000D01*
X35000Y-47000D02*
Y-43000D01*
X23000Y-45000D02*
X27000D01*
X25000Y-47000D02*
Y-43000D01*
X13000Y-45000D02*
X17000D01*
X15000Y-47000D02*
Y-43000D01*
X3000Y-45000D02*
X7000D01*
X5000Y-47000D02*
Y-43000D01*
X9055Y-17008D02*
X11417D01*
X10236Y-18189D02*
Y-15827D01*
X25512Y17008D02*
X27874D01*
X26693Y15827D02*
Y18189D01*
X25512Y-17008D02*
X27874D01*
X26693Y-18189D02*
Y-15827D01*
X9055Y17008D02*
X11417D01*
X10236Y15827D02*
Y18189D01*
X23327Y-11378D02*
X25886D01*
X24606Y-12657D02*
Y-10098D01*
X23327Y11378D02*
X25886D01*
X24606Y10098D02*
Y12657D01*
X11409Y29000D02*
X12591D01*
X12000Y28409D02*
Y29591D01*
X11409Y-29000D02*
X12591D01*
X12000Y-29591D02*
Y-28409D01*
X1909Y15000D02*
X3091D01*
X2500Y14410D02*
Y15590D01*
X1909Y7500D02*
X3091D01*
X2500Y6909D02*
Y8091D01*
X1909Y0D02*
X3091D01*
X2500Y-591D02*
Y591D01*
X1909Y-7500D02*
X3091D01*
X2500Y-8091D02*
Y-6909D01*
X1909Y-15000D02*
X3091D01*
X2500Y-15590D02*
Y-14410D01*
X116409Y19000D02*
X117591D01*
X117000Y18409D02*
Y19590D01*
X147409Y18898D02*
X148591D01*
X148000Y18307D02*
Y19488D01*
X147409Y15748D02*
X148591D01*
X148000Y15157D02*
Y16339D01*
X147409Y12598D02*
X148591D01*
X148000Y12008D02*
Y13189D01*
X147409Y9449D02*
X148591D01*
X148000Y8858D02*
Y10039D01*
X147409Y6299D02*
X148591D01*
X148000Y5709D02*
Y6890D01*
X147409Y3150D02*
X148591D01*
X148000Y2559D02*
Y3740D01*
X147409Y-18898D02*
X148591D01*
X148000Y-19488D02*
Y-18307D01*
X147409Y-15748D02*
X148591D01*
X148000Y-16339D02*
Y-15157D01*
X147409Y-12598D02*
X148591D01*
X148000Y-13189D02*
Y-12008D01*
X147409Y-9449D02*
X148591D01*
X148000Y-10039D02*
Y-8858D01*
X147409Y-6299D02*
X148591D01*
X148000Y-6890D02*
Y-5709D01*
X147409Y-3150D02*
X148591D01*
X148000Y-3740D02*
Y-2559D01*
X147409Y0D02*
X148591D01*
X148000Y-591D02*
Y591D01*
X128356Y0D02*
X129537D01*
X128947Y-591D02*
Y591D01*
X132244Y-3888D02*
X133425D01*
X132835Y-4478D02*
Y-3297D01*
X132244Y3888D02*
X133425D01*
X132835Y3297D02*
Y4478D01*
X136132Y-0D02*
X137313D01*
X136722Y-591D02*
Y591D01*
X151909Y-36000D02*
X153091D01*
X152500Y-36591D02*
Y-35409D01*
X40909Y-38000D02*
X42091D01*
X41500Y-38591D02*
Y-37409D01*
X100409Y38000D02*
X101591D01*
X101000Y37409D02*
Y38591D01*
X86409Y36500D02*
X87590D01*
X87000Y35909D02*
Y37091D01*
X28409Y-38000D02*
X29591D01*
X29000Y-38591D02*
Y-37409D01*
X54909Y-1000D02*
X56090D01*
X55500Y-1591D02*
Y-410D01*
X30909Y-31000D02*
X32091D01*
X31500Y-31591D02*
Y-30409D01*
X1909Y-29000D02*
X3091D01*
X2500Y-29591D02*
Y-28409D01*
X1909Y29000D02*
X3091D01*
X2500Y28409D02*
Y29591D01*
X49409Y-36500D02*
X50591D01*
X50000Y-37091D02*
Y-35909D01*
X151909Y37000D02*
X153091D01*
X152500Y36409D02*
Y37591D01*
X145409Y27000D02*
X146591D01*
X146000Y26409D02*
Y27591D01*
X145409Y33500D02*
X146591D01*
X146000Y32909D02*
Y34091D01*
X151909Y27000D02*
X153091D01*
X152500Y26409D02*
Y27591D01*
X137909Y27000D02*
X139091D01*
X138500Y26409D02*
Y27591D01*
X128909Y27000D02*
X130091D01*
X129500Y26409D02*
Y27591D01*
X132909Y31500D02*
X134091D01*
X133500Y30909D02*
Y32091D01*
X123409Y27000D02*
X124591D01*
X124000Y26409D02*
Y27591D01*
X112909Y27000D02*
X114091D01*
X113500Y26409D02*
Y27591D01*
X95410Y7000D02*
X96591D01*
X96000Y6409D02*
Y7591D01*
X105409Y7000D02*
X106591D01*
X106000Y6409D02*
Y7591D01*
X112409Y-33500D02*
X113591D01*
X113000Y-34091D02*
Y-32909D01*
X112409Y-27000D02*
X113591D01*
X113000Y-27591D02*
Y-26409D01*
X151909Y-27000D02*
X153091D01*
X152500Y-27591D02*
Y-26409D01*
X137909Y-36000D02*
X139091D01*
X138500Y-36591D02*
Y-35409D01*
X137909Y-27000D02*
X139091D01*
X138500Y-27591D02*
Y-26409D01*
X129909Y-36000D02*
X131091D01*
X130500Y-36591D02*
Y-35409D01*
X129909Y-27000D02*
X131091D01*
X130500Y-27591D02*
Y-26409D01*
X136132Y7776D02*
X137313D01*
X136723Y7185D02*
Y8366D01*
X140020Y3888D02*
X141201D01*
X140610Y3297D02*
Y4478D01*
X140020Y-3888D02*
X141201D01*
X140610Y-4478D02*
Y-3297D01*
X136132Y-7776D02*
X137313D01*
X136722Y-8366D02*
Y-7185D01*
X128356Y-7776D02*
X129537D01*
X128947Y-8366D02*
Y-7185D01*
X124469Y-3888D02*
X125650D01*
X125059Y-4478D02*
Y-3297D01*
X124469Y3888D02*
X125650D01*
X125059Y3297D02*
Y4478D01*
X128356Y7776D02*
X129537D01*
X128947Y7185D02*
Y8366D01*
X136132Y-3888D02*
X137313D01*
X136722Y-4478D02*
Y-3297D01*
X128356Y-3888D02*
X129537D01*
X128947Y-4478D02*
Y-3297D01*
X136132Y3888D02*
X137313D01*
X136723Y3297D02*
Y4478D01*
X128356Y3888D02*
X129537D01*
X128947Y3297D02*
Y4478D01*
X95410Y-500D02*
X96591D01*
X96000Y-1091D02*
Y91D01*
X102909Y16500D02*
X104091D01*
X103500Y15910D02*
Y17090D01*
X105409Y-500D02*
X106591D01*
X106000Y-1091D02*
Y91D01*
X94910Y14000D02*
X96091D01*
X95500Y13409D02*
Y14591D01*
X75410Y18000D02*
X76591D01*
X76000Y17410D02*
Y18590D01*
X68410Y7500D02*
X69591D01*
X69000Y6909D02*
Y8091D01*
X74606Y-6693D02*
X75787D01*
X75197Y-7283D02*
Y-6102D01*
X34449Y-12598D02*
X35630D01*
X35039Y-13189D02*
Y-12008D01*
X18307Y0D02*
X19488D01*
X18898Y-591D02*
Y591D01*
X14370Y-13780D02*
X15551D01*
X14961Y-14370D02*
Y-13189D01*
X117909Y6500D02*
X119091D01*
X118500Y5909D02*
Y7091D01*
X30909Y-20500D02*
X32091D01*
X31500Y-21091D02*
Y-19909D01*
X49409Y12205D02*
X50591D01*
X50000Y11614D02*
Y12795D01*
X48228Y7087D02*
X49409D01*
X48819Y6496D02*
Y7677D01*
X106409Y-36000D02*
X107591D01*
X107000Y-36591D02*
Y-35409D01*
X102409Y-32000D02*
X103591D01*
X103000Y-32591D02*
Y-31409D01*
X100409Y-30000D02*
X101591D01*
X101000Y-30591D02*
Y-29409D01*
X104409Y-34000D02*
X105591D01*
X105000Y-34591D02*
Y-33409D01*
X97909Y21000D02*
X99090D01*
X98500Y20410D02*
Y21590D01*
X117909Y37000D02*
X119091D01*
X118500Y36409D02*
Y37591D01*
X109909Y29000D02*
X111091D01*
X110500Y28409D02*
Y29591D01*
X105909Y29000D02*
X107091D01*
X106500Y28409D02*
Y29591D01*
X107909Y31000D02*
X109091D01*
X108500Y30409D02*
Y31591D01*
X108909Y11000D02*
X110091D01*
X109500Y10409D02*
Y11591D01*
X141693Y16228D02*
X142874D01*
X142283Y15638D02*
Y16819D01*
X141693Y19228D02*
X142874D01*
X142283Y18638D02*
Y19819D01*
X103409Y24000D02*
X104591D01*
X104000Y23410D02*
Y24590D01*
X96659Y-23250D02*
X97840D01*
X97250Y-23841D02*
Y-22659D01*
X79909Y-30000D02*
X81090D01*
X80500Y-30591D02*
Y-29409D01*
X62910Y32500D02*
X64091D01*
X63500Y31909D02*
Y33091D01*
X41409Y12000D02*
X42591D01*
X42000Y11409D02*
Y12591D01*
X82410Y21500D02*
X83591D01*
X83000Y20910D02*
Y22091D01*
X79409Y21500D02*
X80590D01*
X80000Y20910D02*
Y22091D01*
X88910Y21000D02*
X90091D01*
X89500Y20410D02*
Y21590D01*
X42409Y33500D02*
X43591D01*
X43000Y32909D02*
Y34091D01*
X39409Y33500D02*
X40591D01*
X40000Y32909D02*
Y34091D01*
X49409Y18898D02*
X50591D01*
X50000Y18307D02*
Y19488D01*
X29409Y22000D02*
X30591D01*
X30000Y21409D02*
Y22591D01*
X32874Y18898D02*
X34055D01*
X33465Y18307D02*
Y19488D01*
X36811Y-10630D02*
X37992D01*
X37402Y-11220D02*
Y-10039D01*
X15409Y24000D02*
X16590D01*
X16000Y23410D02*
Y24590D01*
X24909Y-6500D02*
X26091D01*
X25500Y-7091D02*
Y-5909D01*
X24909Y6500D02*
X26091D01*
X25500Y5909D02*
Y7091D01*
X50409Y-31500D02*
X51591D01*
X51000Y-32091D02*
Y-30909D01*
X68410Y12500D02*
X69591D01*
X69000Y11909D02*
Y13091D01*
X58410Y12500D02*
X59591D01*
X59000Y11909D02*
Y13091D01*
X63410Y12500D02*
X64591D01*
X64000Y11909D02*
Y13091D01*
X63410Y2500D02*
X64591D01*
X64000Y1909D02*
Y3091D01*
X58410Y2500D02*
X59591D01*
X59000Y1909D02*
Y3091D01*
X77725Y4992D02*
X78906D01*
X78316Y4401D02*
Y5582D01*
X80494Y4992D02*
X81675D01*
X81084Y4401D02*
Y5582D01*
X48317Y1384D02*
X49498D01*
X48907Y794D02*
Y1975D01*
X48317Y-1384D02*
X49498D01*
X48907Y-1975D02*
Y-794D01*
X49909Y-24116D02*
X51091D01*
X50500Y-24706D02*
Y-23525D01*
X49909Y-26884D02*
X51091D01*
X50500Y-27475D02*
Y-26294D01*
X122605Y-19000D02*
X123786D01*
X123195Y-19590D02*
Y-18409D01*
X119836Y-19000D02*
X121017D01*
X120427Y-19590D02*
Y-18409D01*
X51410Y-8000D02*
X52591D01*
X52000Y-8591D02*
Y-7409D01*
X70410Y-25500D02*
X71591D01*
X71000Y-26091D02*
Y-24909D01*
X54909Y-31500D02*
X56090D01*
X55500Y-32091D02*
Y-30909D01*
X62910Y-19000D02*
X64091D01*
X63500Y-19590D02*
Y-18409D01*
X80910Y-4000D02*
X82091D01*
X81500Y-4591D02*
Y-3409D01*
X103409Y21000D02*
X104591D01*
X104000Y20410D02*
Y21590D01*
X132409Y-16977D02*
X133591D01*
X133000Y-17567D02*
Y-16386D01*
X135409Y-19000D02*
X136591D01*
X136000Y-19590D02*
Y-18409D01*
X116496Y27000D02*
X117677D01*
X117087Y26409D02*
Y27591D01*
X22410Y5000D02*
X23591D01*
X23000Y4409D02*
Y5591D01*
X22410Y8000D02*
X23591D01*
X23000Y7409D02*
Y8591D01*
X22410Y-5000D02*
X23591D01*
X23000Y-5591D02*
Y-4409D01*
X22410Y-8000D02*
X23591D01*
X23000Y-8591D02*
Y-7409D01*
X78409Y-11000D02*
X79590D01*
X79000Y-11591D02*
Y-10409D01*
X78409Y-15500D02*
X79590D01*
X79000Y-16091D02*
Y-14909D01*
M02*
