M48
;Layer_Color=9474304
;FILE_FORMAT=2:5
INCH,LZ
;TYPE=PLATED
T1F00S00C0.01181
T3F00S00C0.02559
T4F00S00C0.04000
%
T01
X0113Y-00335
Y-0027
X0120427Y-0019
X0123195
X0133Y-0016977
X0136Y-0019
X01385Y-0027
X01305
Y-0036
X01385
X01525
Y-0027
X0148Y-0018898
Y-0015748
Y-0012598
Y-0009449
Y-0006299
Y-000315
Y0
Y000315
Y0006299
Y0009449
Y0012598
Y0015748
Y0018898
X0142283Y0019228
Y0016228
X0136723Y0007776
Y0003888
X014061
X0132835
X0128947
Y0
X0128947Y-0003888
Y-0007776
X0125059Y-0003888
X0132835
X0136722
Y-0
X014061Y-0003888
X0136722Y-0007776
X0125059Y0003888
X0128947Y0007776
X01185Y00065
X0117Y0019
X0117087Y0027
X01135
X0124
X01295
X01335Y00315
X01385Y0027
X0146
Y00335
X01525Y0037
Y0027
X01185Y0037
X01105Y0029
X01065
X01085Y0031
X0104Y0024
Y0021
X01035Y00165
X00985Y0021
X00895
X0083Y00215
X008
X0076Y0018
X0069Y00125
Y00075
X0064Y00125
X0059
X005Y0012205
X0048819Y0007087
X0048907Y0001384
Y-0001384
X00555Y-0001
X0059Y00025
X0064
X0078316Y0004992
X0081084
X00815Y-0004
X0075197Y-0006693
X0079Y-0011
Y-00155
X00805Y-003
X0071Y-00255
X00635Y-0019
X00505Y-0024116
Y-0026884
X0051Y-00315
X00555
X005Y-00365
X00415Y-0038
X0029
X00315Y-0031
Y-00205
X0035039Y-0012598
X0037402Y-001063
X00255Y-00065
X0023Y-0005
Y-0008
X0018898Y0
X0023Y0005
Y0008
X00255Y00065
X003Y0022
X0033465Y0018898
X0042Y0012
X005Y0018898
X0043Y00335
X004
X00635Y00325
X0087Y00365
X0101Y0038
X00955Y0014
X0096Y0007
Y-00005
X0106
Y0007
X01095Y0011
X009725Y-002325
X0101Y-003
X0103Y-0032
X0105Y-0034
X0107Y-0036
X0052Y-0008
X0014961Y-001378
X00025Y-0015
Y-00075
Y0
Y00075
Y0015
Y0029
X0012
X0016Y0024
X0012Y-0029
X00025
T03
X0024606Y-0011378
Y0011378
T04
X0005Y-0045
X0015
X0025
X0035
X0045
X0055
X0065
X0075
X0085
X0095
X0105
X0115
X0125
X0135
X0145
Y0045
X0135
X0125
X0115
X0105
X0095
X0085
X0075
X0065
X0055
X0045
X0035
X0025
X0015
X0005
M30
