G04*
G04 #@! TF.GenerationSoftware,Altium Limited,Altium Designer,19.1.5 (86)*
G04*
G04 Layer_Color=32768*
%FSLAX25Y25*%
%MOIN*%
G70*
G01*
G75*
%ADD11C,0.00500*%
%ADD13C,0.00394*%
%ADD83C,0.00197*%
%ADD84R,0.02000X0.02000*%
%ADD85R,0.07874X0.01968*%
D11*
X6500Y25000D02*
X17500D01*
X6500Y33000D02*
X17500D01*
X11990Y29906D02*
Y33000D01*
Y25000D02*
Y27248D01*
X10986Y29039D02*
X11990Y27248D01*
X6500Y-33000D02*
X17500D01*
X6500Y-25000D02*
X17500D01*
X11990Y-28095D02*
Y-25000D01*
Y-33000D02*
Y-30752D01*
X10986Y-28961D02*
X11990Y-30752D01*
X98937Y-27331D02*
Y-18669D01*
X91063D02*
X98937D01*
X91063Y-27331D02*
X98937D01*
X91063D02*
Y-18669D01*
D13*
X62032Y7500D02*
X65969D01*
X64000Y5531D02*
Y9469D01*
X57032Y-28500D02*
X60969D01*
X59000Y-30468D02*
Y-26531D01*
X52917Y-20000D02*
X55083D01*
X54000Y-21083D02*
Y-18917D01*
X72917Y-20000D02*
X75083D01*
X74000Y-21083D02*
Y-18917D01*
X71031Y-28500D02*
X74968D01*
X73000Y-30468D02*
Y-26531D01*
X35976Y5000D02*
X38024D01*
X37000Y3976D02*
Y6024D01*
X43500Y917D02*
Y3083D01*
X42417Y2000D02*
X44583D01*
X43500Y-3083D02*
Y-917D01*
X42417Y-2000D02*
X44583D01*
X43500Y5417D02*
Y7583D01*
X42417Y6500D02*
X44583D01*
X33476Y-30500D02*
X35524D01*
X34500Y-31524D02*
Y-29476D01*
X33476Y-20500D02*
X35524D01*
X34500Y-21524D02*
Y-19476D01*
X35976Y-5000D02*
X38024D01*
X37000Y-6024D02*
Y-3976D01*
X45500Y16532D02*
Y20469D01*
X43532Y18500D02*
X47469D01*
X36031D02*
X39968D01*
X38000Y16532D02*
Y20469D01*
X57000Y31130D02*
Y34870D01*
X55130Y33000D02*
X58870D01*
X54417Y28000D02*
X56583D01*
X55500Y26917D02*
Y29083D01*
X64000Y-12370D02*
Y-8630D01*
X62130Y-10500D02*
X65870D01*
X64000Y-17870D02*
Y-14130D01*
X62130Y-16000D02*
X65870D01*
X52917Y-11000D02*
X55083D01*
X54000Y-12083D02*
Y-9917D01*
X52917Y-15500D02*
X55083D01*
X54000Y-16583D02*
Y-14417D01*
X75500Y26130D02*
Y29870D01*
X73630Y28000D02*
X77370D01*
X95000Y26130D02*
Y29870D01*
X93130Y28000D02*
X96870D01*
X81000Y26130D02*
Y29870D01*
X79130Y28000D02*
X82870D01*
X100500Y26130D02*
Y29870D01*
X98630Y28000D02*
X102370D01*
X7500Y-370D02*
Y3370D01*
X5630Y1500D02*
X9370D01*
X90500Y532D02*
Y4468D01*
X88532Y2500D02*
X92469D01*
X45500Y-14024D02*
Y-11976D01*
X44476Y-13000D02*
X46524D01*
X86976Y32000D02*
X89024D01*
X88000Y30976D02*
Y33024D01*
X83500Y-31024D02*
Y-28976D01*
X82476Y-30000D02*
X84524D01*
X47500Y-30524D02*
Y-28476D01*
X46476Y-29500D02*
X48524D01*
X47500Y-22524D02*
Y-20476D01*
X46476Y-21500D02*
X48524D01*
X86976Y24000D02*
X89024D01*
X88000Y22976D02*
Y25024D01*
X86976Y28000D02*
X89024D01*
X88000Y26976D02*
Y29024D01*
X16976Y20500D02*
X19024D01*
X18000Y19476D02*
Y21524D01*
X39976Y-32000D02*
X42024D01*
X41000Y-33024D02*
Y-30976D01*
X62976Y23500D02*
X65024D01*
X64000Y22476D02*
Y24524D01*
X44500Y28032D02*
Y30000D01*
X42531D02*
X44500D01*
Y31969D01*
Y30000D02*
X46468D01*
X29630D02*
X33370D01*
X31500Y28130D02*
Y31870D01*
X104500Y-22870D02*
Y-19130D01*
X102630Y-21000D02*
X106370D01*
X42417Y-6500D02*
X44583D01*
X43500Y-7583D02*
Y-5417D01*
X41000Y-14083D02*
Y-11917D01*
X39917Y-13000D02*
X42083D01*
X83500Y-22583D02*
Y-20417D01*
X82417Y-21500D02*
X84583D01*
X39917Y-27500D02*
X42083D01*
X41000Y-28583D02*
Y-26417D01*
X39917Y-23500D02*
X42083D01*
X41000Y-24583D02*
Y-22417D01*
X88000Y-22583D02*
Y-20417D01*
X86917Y-21500D02*
X89083D01*
X72917Y-11000D02*
X75083D01*
X74000Y-12083D02*
Y-9917D01*
X72917Y-15500D02*
X75083D01*
X74000Y-16583D02*
Y-14417D01*
X36500Y30417D02*
Y32583D01*
X35417Y31500D02*
X37583D01*
X54417Y23500D02*
X56583D01*
X55500Y22417D02*
Y24583D01*
X66917Y32500D02*
X69083D01*
X68000Y31417D02*
Y33583D01*
X70500Y24417D02*
Y26583D01*
X69417Y25500D02*
X71583D01*
X62917Y28000D02*
X65083D01*
X64000Y26917D02*
Y29083D01*
X88000Y-31083D02*
Y-28917D01*
X86917Y-30000D02*
X89083D01*
X-1969Y0D02*
X1969D01*
X0Y-1969D02*
Y1969D01*
D83*
X109803Y26969D02*
X160984D01*
X109803Y-26969D02*
Y26969D01*
Y-26969D02*
X160984D01*
Y26969D01*
X76303Y-4803D02*
Y19803D01*
X51697Y-4803D02*
Y19803D01*
Y-4803D02*
X76303D01*
X51697Y19803D02*
X76303D01*
X65299Y-35390D02*
Y-21610D01*
X52701Y-35390D02*
Y-21610D01*
Y-35390D02*
X65299D01*
X52701Y-21610D02*
X65299D01*
X79299Y-35390D02*
Y-21610D01*
X66701Y-35390D02*
Y-21610D01*
Y-35390D02*
X79299D01*
X66701Y-21610D02*
X79299D01*
X76327Y19232D02*
X104673D01*
X76327Y-14232D02*
X104673D01*
Y19232D01*
X76327Y-14232D02*
Y19232D01*
D84*
X25000Y45000D02*
D03*
X65000D02*
D03*
X105000D02*
D03*
X145000D02*
D03*
X5000D02*
D03*
X15000D02*
D03*
X35000D02*
D03*
X45000D02*
D03*
X55000D02*
D03*
X75000D02*
D03*
X85000D02*
D03*
X95000D02*
D03*
X115000D02*
D03*
X125000D02*
D03*
X135000D02*
D03*
X25000Y-45000D02*
D03*
X65000D02*
D03*
X105000D02*
D03*
X145000D02*
D03*
X5000D02*
D03*
X15000D02*
D03*
X35000D02*
D03*
X45000D02*
D03*
X55000D02*
D03*
X75000D02*
D03*
X85000D02*
D03*
X95000D02*
D03*
X115000D02*
D03*
X125000D02*
D03*
X135000D02*
D03*
D85*
X95000Y-23984D02*
D03*
M02*
